<?xml version="1.0" encoding="utf-8" standalone="no"?>
<!DOCTYPE svg PUBLIC "-//W3C//DTD SVG 1.1//EN"
  "http://www.w3.org/Graphics/SVG/1.1/DTD/svg11.dtd">
<svg xmlns:xlink="http://www.w3.org/1999/xlink" width="460.8pt" height="345.6pt" viewBox="0 0 460.8 345.6" xmlns="http://www.w3.org/2000/svg" version="1.1">
 <metadata>
  <rdf:RDF xmlns:dc="http://purl.org/dc/elements/1.1/" xmlns:cc="http://creativecommons.org/ns#" xmlns:rdf="http://www.w3.org/1999/02/22-rdf-syntax-ns#">
   <cc:Work>
    <dc:type rdf:resource="http://purl.org/dc/dcmitype/StillImage"/>
    <dc:date>2026-03-06T15:05:20.190811</dc:date>
    <dc:format>image/svg+xml</dc:format>
    <dc:creator>
     <cc:Agent>
      <dc:title>Matplotlib v3.10.8, https://matplotlib.org/</dc:title>
     </cc:Agent>
    </dc:creator>
   </cc:Work>
  </rdf:RDF>
 </metadata>
 <defs>
  <style type="text/css">*{stroke-linejoin: round; stroke-linecap: butt}</style>
 </defs>
 <g id="figure_1">
  <g id="patch_1">
   <path d="M 0 345.6 
L 460.8 345.6 
L 460.8 0 
L 0 0 
z
" style="fill: #ffffff"/>
  </g>
  <g id="axes_1">
   <g id="patch_2">
    <path d="M 43.79 161.2325 
L 447.84 161.2325 
L 447.84 27.915 
L 43.79 27.915 
z
" style="fill: #ffffff"/>
   </g>
   <g id="matplotlib.axis_1">
    <g id="xtick_1">
     <g id="line2d_1">
      <path d="M 63.214463 161.2325 
L 63.214463 27.915 
" clip-path="url(#p170feecec3)" style="fill: none; stroke-dasharray: 1,1.65; stroke-dashoffset: 0; stroke: #808080"/>
     </g>
     <g id="line2d_2">
      <defs>
       <path id="me9b93f0f4a" d="M 0 0 
L 0 6 
" style="stroke: #262626; stroke-width: 1.25"/>
      </defs>
      <g>
       <use xlink:href="#me9b93f0f4a" x="63.214463" y="161.2325" style="fill: #262626; stroke: #262626; stroke-width: 1.25"/>
      </g>
     </g>
    </g>
    <g id="xtick_2">
     <g id="line2d_3">
      <path d="M 125.669139 161.2325 
L 125.669139 27.915 
" clip-path="url(#p170feecec3)" style="fill: none; stroke-dasharray: 1,1.65; stroke-dashoffset: 0; stroke: #808080"/>
     </g>
     <g id="line2d_4">
      <g>
       <use xlink:href="#me9b93f0f4a" x="125.669139" y="161.2325" style="fill: #262626; stroke: #262626; stroke-width: 1.25"/>
      </g>
     </g>
    </g>
    <g id="xtick_3">
     <g id="line2d_5">
      <path d="M 190.240924 161.2325 
L 190.240924 27.915 
" clip-path="url(#p170feecec3)" style="fill: none; stroke-dasharray: 1,1.65; stroke-dashoffset: 0; stroke: #808080"/>
     </g>
     <g id="line2d_6">
      <g>
       <use xlink:href="#me9b93f0f4a" x="190.240924" y="161.2325" style="fill: #262626; stroke: #262626; stroke-width: 1.25"/>
      </g>
     </g>
    </g>
    <g id="xtick_4">
     <g id="line2d_7">
      <path d="M 254.812708 161.2325 
L 254.812708 27.915 
" clip-path="url(#p170feecec3)" style="fill: none; stroke-dasharray: 1,1.65; stroke-dashoffset: 0; stroke: #808080"/>
     </g>
     <g id="line2d_8">
      <g>
       <use xlink:href="#me9b93f0f4a" x="254.812708" y="161.2325" style="fill: #262626; stroke: #262626; stroke-width: 1.25"/>
      </g>
     </g>
    </g>
    <g id="xtick_5">
     <g id="line2d_9">
      <path d="M 320.443046 161.2325 
L 320.443046 27.915 
" clip-path="url(#p170feecec3)" style="fill: none; stroke-dasharray: 1,1.65; stroke-dashoffset: 0; stroke: #808080"/>
     </g>
     <g id="line2d_10">
      <g>
       <use xlink:href="#me9b93f0f4a" x="320.443046" y="161.2325" style="fill: #262626; stroke: #262626; stroke-width: 1.25"/>
      </g>
     </g>
    </g>
    <g id="xtick_6">
     <g id="line2d_11">
      <path d="M 385.01483 161.2325 
L 385.01483 27.915 
" clip-path="url(#p170feecec3)" style="fill: none; stroke-dasharray: 1,1.65; stroke-dashoffset: 0; stroke: #808080"/>
     </g>
     <g id="line2d_12">
      <g>
       <use xlink:href="#me9b93f0f4a" x="385.01483" y="161.2325" style="fill: #262626; stroke: #262626; stroke-width: 1.25"/>
      </g>
     </g>
    </g>
   </g>
   <g id="matplotlib.axis_2">
    <g id="ytick_1">
     <g id="line2d_13">
      <path d="M 43.79 145.86333 
L 447.84 145.86333 
" clip-path="url(#p170feecec3)" style="fill: none; stroke-dasharray: 1,1.65; stroke-dashoffset: 0; stroke: #808080"/>
     </g>
     <g id="line2d_14">
      <defs>
       <path id="mc3afd373a2" d="M 0 0 
L -6 0 
" style="stroke: #262626; stroke-width: 1.25"/>
      </defs>
      <g>
       <use xlink:href="#mc3afd373a2" x="43.79" y="145.86333" style="fill: #262626; stroke: #262626; stroke-width: 1.25"/>
      </g>
     </g>
     <g id="text_1">
      <!-- −0.2 -->
      <g style="fill: #262626" transform="translate(13.005 149.619658) scale(0.11 -0.11)">
       <defs>
        <path id="STIXGeneral-Regular-2212" d="M 3974 1408 
L 410 1408 
L 410 1830 
L 3974 1830 
L 3974 1408 
z
" transform="scale(0.015625)"/>
        <path id="STIXGeneral-Regular-30" d="M 3046 2112 
Q 3046 1683 2963 1302 
Q 2880 922 2717 602 
Q 2554 282 2266 96 
Q 1978 -90 1600 -90 
Q 1210 -90 915 108 
Q 621 307 461 640 
Q 301 973 227 1350 
Q 154 1728 154 2150 
Q 154 2746 301 3222 
Q 448 3699 790 4012 
Q 1133 4326 1626 4326 
Q 2253 4326 2649 3712 
Q 3046 3098 3046 2112 
z
M 2432 2080 
Q 2432 3091 2217 3625 
Q 2003 4160 1587 4160 
Q 1190 4160 979 3622 
Q 768 3085 768 2106 
Q 768 1120 979 598 
Q 1190 77 1600 77 
Q 2003 77 2217 598 
Q 2432 1120 2432 2080 
z
" transform="scale(0.015625)"/>
        <path id="STIXGeneral-Regular-2e" d="M 1158 275 
Q 1158 134 1052 32 
Q 947 -70 800 -70 
Q 653 -70 550 32 
Q 448 134 448 281 
Q 448 429 553 534 
Q 659 640 806 640 
Q 947 640 1052 531 
Q 1158 422 1158 275 
z
" transform="scale(0.015625)"/>
        <path id="STIXGeneral-Regular-32" d="M 3034 877 
L 2688 0 
L 186 0 
L 186 77 
L 1325 1286 
Q 1773 1754 1965 2144 
Q 2157 2534 2157 2950 
Q 2157 3379 1920 3616 
Q 1683 3853 1267 3853 
Q 922 3853 720 3673 
Q 518 3494 326 3021 
L 192 3053 
Q 301 3648 630 3987 
Q 960 4326 1523 4326 
Q 2054 4326 2380 4006 
Q 2707 3686 2707 3200 
Q 2707 2477 1888 1613 
L 832 486 
L 2330 486 
Q 2541 486 2665 569 
Q 2790 653 2944 915 
L 3034 877 
z
" transform="scale(0.015625)"/>
       </defs>
       <use xlink:href="#STIXGeneral-Regular-2212"/>
       <use xlink:href="#STIXGeneral-Regular-30" transform="translate(68.499985 0)"/>
       <use xlink:href="#STIXGeneral-Regular-2e" transform="translate(118.499969 0)"/>
       <use xlink:href="#STIXGeneral-Regular-32" transform="translate(143.499954 0)"/>
      </g>
     </g>
    </g>
    <g id="ytick_2">
     <g id="line2d_15">
      <path d="M 43.79 117.88084 
L 447.84 117.88084 
" clip-path="url(#p170feecec3)" style="fill: none; stroke-dasharray: 1,1.65; stroke-dashoffset: 0; stroke: #808080"/>
     </g>
     <g id="line2d_16">
      <g>
       <use xlink:href="#mc3afd373a2" x="43.79" y="117.88084" style="fill: #262626; stroke: #262626; stroke-width: 1.25"/>
      </g>
     </g>
     <g id="text_2">
      <!-- −0.1 -->
      <g style="fill: #262626" transform="translate(13.005 121.637168) scale(0.11 -0.11)">
       <defs>
        <path id="STIXGeneral-Regular-31" d="M 2522 0 
L 755 0 
L 755 96 
Q 1107 115 1235 227 
Q 1363 339 1363 608 
L 1363 3482 
Q 1363 3795 1171 3795 
Q 1082 3795 883 3718 
L 710 3654 
L 710 3744 
L 1856 4326 
L 1914 4307 
L 1914 486 
Q 1914 275 2042 185 
Q 2170 96 2522 96 
L 2522 0 
z
" transform="scale(0.015625)"/>
       </defs>
       <use xlink:href="#STIXGeneral-Regular-2212"/>
       <use xlink:href="#STIXGeneral-Regular-30" transform="translate(68.499985 0)"/>
       <use xlink:href="#STIXGeneral-Regular-2e" transform="translate(118.499969 0)"/>
       <use xlink:href="#STIXGeneral-Regular-31" transform="translate(143.499954 0)"/>
      </g>
     </g>
    </g>
    <g id="ytick_3">
     <g id="line2d_17">
      <path d="M 43.79 89.89835 
L 447.84 89.89835 
" clip-path="url(#p170feecec3)" style="fill: none; stroke-dasharray: 1,1.65; stroke-dashoffset: 0; stroke: #808080"/>
     </g>
     <g id="line2d_18">
      <g>
       <use xlink:href="#mc3afd373a2" x="43.79" y="89.89835" style="fill: #262626; stroke: #262626; stroke-width: 1.25"/>
      </g>
     </g>
     <g id="text_3">
      <!-- 0.0 -->
      <g style="fill: #262626" transform="translate(20.54 93.654678) scale(0.11 -0.11)">
       <use xlink:href="#STIXGeneral-Regular-30"/>
       <use xlink:href="#STIXGeneral-Regular-2e" transform="translate(49.999985 0)"/>
       <use xlink:href="#STIXGeneral-Regular-30" transform="translate(74.999969 0)"/>
      </g>
     </g>
    </g>
    <g id="ytick_4">
     <g id="line2d_19">
      <path d="M 43.79 61.915859 
L 447.84 61.915859 
" clip-path="url(#p170feecec3)" style="fill: none; stroke-dasharray: 1,1.65; stroke-dashoffset: 0; stroke: #808080"/>
     </g>
     <g id="line2d_20">
      <g>
       <use xlink:href="#mc3afd373a2" x="43.79" y="61.915859" style="fill: #262626; stroke: #262626; stroke-width: 1.25"/>
      </g>
     </g>
     <g id="text_4">
      <!-- 0.1 -->
      <g style="fill: #262626" transform="translate(20.54 65.672188) scale(0.11 -0.11)">
       <use xlink:href="#STIXGeneral-Regular-30"/>
       <use xlink:href="#STIXGeneral-Regular-2e" transform="translate(49.999985 0)"/>
       <use xlink:href="#STIXGeneral-Regular-31" transform="translate(74.999969 0)"/>
      </g>
     </g>
    </g>
    <g id="ytick_5">
     <g id="line2d_21">
      <path d="M 43.79 33.933369 
L 447.84 33.933369 
" clip-path="url(#p170feecec3)" style="fill: none; stroke-dasharray: 1,1.65; stroke-dashoffset: 0; stroke: #808080"/>
     </g>
     <g id="line2d_22">
      <g>
       <use xlink:href="#mc3afd373a2" x="43.79" y="33.933369" style="fill: #262626; stroke: #262626; stroke-width: 1.25"/>
      </g>
     </g>
     <g id="text_5">
      <!-- 0.2 -->
      <g style="fill: #262626" transform="translate(20.54 37.689697) scale(0.11 -0.11)">
       <use xlink:href="#STIXGeneral-Regular-30"/>
       <use xlink:href="#STIXGeneral-Regular-2e" transform="translate(49.999985 0)"/>
       <use xlink:href="#STIXGeneral-Regular-32" transform="translate(74.999969 0)"/>
      </g>
     </g>
    </g>
   </g>
   <g id="FillBetweenPolyCollection_1"/>
   <g id="FillBetweenPolyCollection_2"/>
   <g id="line2d_23">
    <path d="M 62.155909 95.585418 
L 63.214463 89.89835 
L 64.273017 78.008614 
L 65.331571 67.973602 
L 66.390124 87.435842 
L 69.565786 93.087186 
L 70.62434 89.024775 
L 71.682894 86.000849 
L 72.741447 80.318043 
L 73.800001 84.274751 
L 76.975663 97.048182 
L 78.034217 92.838716 
L 79.092771 113.53152 
L 80.151324 81.89542 
L 81.209878 98.821769 
L 84.38554 89.89835 
L 85.444094 96.112502 
L 86.502647 75.655281 
L 87.561201 86.044571 
L 88.619755 89.308041 
L 91.795417 91.077474 
L 92.85397 99.660745 
L 93.912524 85.500187 
L 94.971078 84.680844 
L 96.029632 89.162845 
L 99.205293 86.094224 
L 100.263847 88.884047 
L 101.322401 92.661542 
L 102.380955 100.172401 
L 103.439509 98.365898 
L 106.61517 80.672563 
L 107.673724 91.416903 
L 108.732278 78.133036 
L 109.790832 79.733974 
L 110.849386 91.307151 
L 114.025047 89.89835 
L 115.083601 100.998591 
L 116.142155 81.639894 
L 117.200709 100.371209 
L 118.259263 90.789049 
L 121.434924 74.846329 
L 122.493478 84.871399 
L 123.552032 90.716927 
L 124.610586 87.287351 
L 125.669139 59.934135 
L 128.844801 78.63846 
L 129.903355 95.0475 
L 130.961909 85.10543 
L 132.020462 77.351187 
L 133.079016 92.064625 
L 136.254678 100.7542 
L 138.371785 89.777821 
L 139.430339 85.925724 
L 140.488893 83.398649 
L 143.664555 84.34793 
L 144.723108 83.000627 
L 145.781662 103.283093 
L 146.840216 90.838095 
L 147.89877 91.430252 
L 151.074431 93.586613 
L 152.132985 82.685796 
L 153.191539 92.714236 
L 154.250093 71.197707 
L 155.308647 89.89835 
L 158.484308 86.065695 
L 159.542862 96.837888 
L 160.601416 94.394727 
L 161.65997 92.631712 
L 162.718524 98.61635 
L 165.894185 98.045275 
L 166.952739 97.162196 
L 168.011293 80.694801 
L 169.069847 102.869792 
L 170.128401 85.882644 
L 173.304062 85.078969 
L 174.362616 72.789909 
L 175.42117 87.372859 
L 176.479724 95.553011 
L 177.538277 90.364194 
L 180.713939 99.517744 
L 181.772493 90.381302 
L 182.831047 89.89835 
L 183.8896 96.265377 
L 184.948154 98.701776 
L 188.123816 90.025355 
L 189.18237 84.331089 
L 190.240924 85.916022 
L 191.299477 110.664121 
L 192.358031 116.104091 
L 196.592247 82.100857 
L 197.6508 56.892285 
L 198.709354 104.979323 
L 199.767908 106.260485 
L 202.94357 78.248876 
L 204.002123 78.846715 
L 205.060677 87.038709 
L 206.119231 87.197211 
L 207.177785 86.084254 
L 210.353446 95.769735 
L 211.412 100.945511 
L 212.470554 92.729686 
L 213.529108 94.680074 
L 214.587662 101.007406 
L 217.763323 89.89835 
L 218.821877 85.628283 
L 219.880431 104.24412 
L 220.938985 94.848482 
L 221.997539 89.141753 
L 225.1732 99.727574 
L 226.231754 85.556049 
L 227.290308 88.516488 
L 228.348862 98.76762 
L 229.407416 95.324807 
L 232.583077 94.942395 
L 233.641631 108.558152 
L 234.700185 94.498441 
L 235.758739 97.673123 
L 236.817292 89.534154 
L 239.992954 77.539239 
L 241.051508 98.075688 
L 242.110062 108.74194 
L 243.168615 100.315582 
L 244.227169 93.124218 
L 247.402831 84.081824 
L 248.461385 91.690181 
L 249.519938 85.340609 
L 250.578492 72.936457 
L 251.637046 90.082194 
L 254.812708 106.08751 
L 255.871261 105.421386 
L 256.929815 96.612443 
L 257.988369 89.89835 
L 259.046923 45.794071 
L 262.222584 99.866812 
L 263.281138 107.742507 
L 264.339692 108.31988 
L 265.398246 73.89085 
L 266.4568 87.687185 
L 269.632461 80.438532 
L 270.691015 100.359696 
L 271.749569 67.115057 
L 272.808123 87.499136 
L 273.866677 100.579307 
L 277.042338 92.004978 
L 278.100892 118.869298 
L 279.159446 73.7262 
L 280.218 155.172614 
L 281.276554 81.381786 
L 284.452215 65.343424 
L 285.510769 81.441169 
L 286.569323 110.600518 
L 287.627877 109.458967 
L 288.68643 106.325125 
L 291.862092 102.810087 
L 292.920646 76.448357 
L 293.9792 96.133683 
L 295.037753 67.774485 
L 296.096307 97.60049 
L 299.271969 86.27603 
L 300.330523 112.083955 
L 301.389076 76.060221 
L 302.44763 84.909768 
L 303.506184 71.289923 
L 306.681846 77.057844 
L 307.7404 102.009834 
L 308.798953 65.063922 
L 309.857507 83.313923 
L 310.916061 118.897713 
L 314.091723 83.476294 
L 315.150276 106.612798 
L 316.20883 105.291236 
L 317.267384 90.427971 
L 318.325938 99.30455 
L 321.501599 89.89835 
L 322.560153 106.794425 
L 323.618707 102.05641 
L 324.677261 109.680937 
L 325.735815 75.348537 
L 328.911476 98.335334 
L 329.97003 84.852593 
L 331.028584 88.337467 
L 332.087138 113.909448 
L 333.145692 101.658221 
L 336.321353 109.658903 
L 337.379907 116.11389 
L 338.438461 90.312459 
L 339.497015 97.507292 
L 340.555569 82.289403 
L 343.73123 118.871315 
L 344.789784 106.08917 
L 345.848338 55.364729 
L 346.906892 79.268187 
L 347.965445 111.57004 
L 351.141107 90.803841 
L 352.199661 73.223907 
L 353.258215 90.754148 
L 354.316768 90.323216 
L 355.375322 114.013003 
L 358.550984 140.357354 
L 359.609538 75.737464 
L 360.668091 89.371194 
L 361.726645 66.033572 
L 362.785199 56.027745 
L 365.960861 85.192603 
L 367.019414 33.974886 
L 368.077968 143.289436 
L 369.136522 37.903772 
L 370.195076 78.948094 
L 373.370737 73.603943 
L 374.429291 142.696736 
L 375.487845 63.645524 
L 376.546399 99.099207 
L 377.604953 71.789536 
L 380.780614 86.880463 
L 381.839168 106.741901 
L 382.897722 63.223968 
L 383.956276 92.811497 
L 385.01483 79.050632 
L 388.190491 66.777204 
L 389.249045 83.630897 
L 390.307599 81.841547 
L 391.366153 122.993702 
L 392.424707 93.621108 
L 395.600368 121.610299 
L 396.658922 69.661371 
L 397.717476 100.511132 
L 398.77603 65.943012 
L 399.834583 89.282444 
L 403.010245 80.459623 
L 404.068799 94.121794 
L 405.127353 75.969086 
L 406.185906 53.113528 
L 407.24446 87.122457 
L 410.420122 80.037223 
L 411.478676 114.442924 
L 412.537229 65.353784 
L 413.595783 89.89835 
L 414.654337 99.637154 
L 417.829999 76.069427 
L 418.888553 109.42917 
L 419.947106 107.327152 
L 421.00566 86.375098 
L 422.064214 90.70669 
L 425.239876 120.672865 
L 426.298429 80.425567 
L 427.356983 105.157269 
L 428.415537 98.326567 
L 429.474091 105.538846 
L 429.474091 105.538846 
" clip-path="url(#p170feecec3)" style="fill: none; stroke: #ffa500; stroke-width: 1.5; stroke-linecap: round"/>
   </g>
   <g id="line2d_24">
    <path d="M 62.155909 97.720996 
L 63.214463 89.89835 
L 64.273017 73.733905 
L 65.331571 63.937599 
L 66.390124 86.856736 
L 69.565786 94.010664 
L 70.62434 88.735929 
L 71.682894 84.550423 
L 72.741447 76.776729 
L 73.800001 81.975891 
L 76.975663 100.11396 
L 78.034217 94.206867 
L 79.092771 119.614543 
L 80.151324 79.833641 
L 81.209878 101.421539 
L 84.38554 89.89835 
L 85.444094 98.386756 
L 86.502647 71.176436 
L 87.561201 84.770667 
L 88.619755 89.079323 
L 91.795417 91.582427 
L 92.85397 103.471845 
L 93.912524 83.428112 
L 94.971078 82.137691 
L 96.029632 88.789422 
L 99.205293 84.269889 
L 100.263847 88.369979 
L 101.322401 94.187713 
L 102.380955 104.424181 
L 103.439509 102.58172 
L 106.61517 77.0328 
L 107.673724 92.154383 
L 108.732278 73.144958 
L 109.790832 76.014989 
L 110.849386 91.813842 
L 114.025047 89.89835 
L 115.083601 106.399606 
L 116.142155 78.012759 
L 117.200709 104.068399 
L 118.259263 91.171535 
L 121.434924 70.957576 
L 122.493478 83.101001 
L 123.552032 90.981128 
L 124.610586 86.479694 
L 125.669139 56.744001 
L 128.844801 76.443129 
L 129.903355 96.665854 
L 130.961909 83.589921 
L 132.020462 73.557659 
L 133.079016 92.872695 
L 136.254678 104.24986 
L 138.371785 89.724866 
L 139.430339 84.196569 
L 140.488893 80.969391 
L 143.664555 82.073082 
L 144.723108 80.304273 
L 145.781662 107.584841 
L 146.840216 91.253305 
L 147.89877 92.189717 
L 151.074431 95.371808 
L 152.132985 79.248762 
L 153.191539 94.128761 
L 154.250093 65.066571 
L 155.308647 89.89835 
L 158.484308 84.215031 
L 159.542862 99.811528 
L 160.601416 96.817195 
L 161.65997 94.270526 
L 162.718524 103.435891 
L 165.894185 102.911582 
L 166.952739 101.290245 
L 168.011293 75.105139 
L 169.069847 109.92352 
L 170.128401 83.690608 
L 173.304062 82.359572 
L 174.362616 65.216164 
L 175.42117 86.251276 
L 176.479724 98.584668 
L 177.538277 90.625074 
L 180.713939 104.810716 
L 181.772493 90.649662 
L 182.831047 89.89835 
L 183.8896 100.254494 
L 184.948154 103.825933 
L 188.123816 90.106551 
L 189.18237 80.920339 
L 190.240924 83.243585 
L 191.299477 119.93936 
L 192.358031 123.516465 
L 196.592247 79.390549 
L 197.6508 52.475644 
L 198.709354 106.829188 
L 199.767908 108.099997 
L 202.94357 76.515037 
L 204.002123 76.844633 
L 205.060677 86.420158 
L 206.119231 86.432767 
L 207.177785 84.730543 
L 210.353446 98.643451 
L 211.412 105.273798 
L 212.470554 94.083238 
L 213.529108 96.726985 
L 214.587662 105.998061 
L 217.763323 89.89835 
L 218.821877 83.377628 
L 219.880431 109.791977 
L 220.938985 97.2576 
L 221.997539 88.74421 
L 225.1732 104.534639 
L 226.231754 83.451842 
L 227.290308 87.777975 
L 228.348862 102.680925 
L 229.407416 98.323283 
L 232.583077 97.862803 
L 233.641631 117.171062 
L 234.700185 96.785016 
L 235.758739 101.590659 
L 236.817292 89.34124 
L 239.992954 71.759847 
L 241.051508 101.799008 
L 242.110062 113.64093 
L 244.227169 94.468724 
L 247.402831 81.4306 
L 248.461385 92.560262 
L 249.519938 83.005807 
L 250.578492 65.939386 
L 251.637046 90.163955 
L 254.812708 112.524042 
L 255.871261 110.811656 
L 256.929815 99.313723 
L 257.988369 89.89835 
L 259.046923 43.137394 
L 262.222584 100.713212 
L 263.281138 108.98709 
L 264.339692 109.303605 
L 265.398246 72.839358 
L 266.4568 87.384078 
L 269.632461 78.877145 
L 270.691015 102.970093 
L 271.749569 64.704747 
L 272.808123 87.106836 
L 273.866677 102.509365 
L 277.042338 92.51493 
L 278.100892 122.471265 
L 279.159446 72.000335 
L 280.218 131.42218 
L 281.276554 84.041796 
L 284.452215 72.867022 
L 285.510769 83.482716 
L 286.569323 106.497772 
L 287.627877 107.787711 
L 288.68643 103.739395 
L 291.862092 102.178778 
L 292.920646 75.294618 
L 293.9792 97.107591 
L 295.037753 66.453057 
L 296.096307 98.374462 
L 299.271969 85.39715 
L 300.330523 113.675442 
L 301.389076 74.962343 
L 302.44763 84.091749 
L 303.506184 69.29972 
L 306.681846 75.305272 
L 307.7404 104.013258 
L 308.798953 65.32336 
L 309.857507 82.736073 
L 310.916061 116.814135 
L 314.091723 83.321027 
L 315.150276 107.301099 
L 316.20883 106.433666 
L 317.267384 90.545103 
L 318.325938 101.456391 
L 321.501599 89.89835 
L 322.560153 109.637672 
L 323.618707 104.263182 
L 324.677261 110.852082 
L 325.735815 73.48977 
L 328.911476 100.106493 
L 329.97003 83.437126 
L 331.028584 87.878784 
L 332.087138 116.273693 
L 333.145692 103.212 
L 336.321353 110.808539 
L 337.379907 114.311034 
L 338.438461 90.341048 
L 339.497015 98.718047 
L 340.555569 80.358227 
L 343.73123 117.822552 
L 344.789784 107.765904 
L 345.848338 62.992121 
L 346.906892 80.480292 
L 347.965445 109.417287 
L 351.141107 90.908501 
L 352.199661 71.28806 
L 353.258215 90.778888 
L 354.316768 90.391877 
L 355.375322 114.85585 
L 358.550984 121.064693 
L 359.609538 79.736788 
L 360.668091 89.480969 
L 361.726645 71.325733 
L 362.785199 66.938603 
L 365.960861 85.670709 
L 367.019414 61.962304 
L 368.077968 113.012486 
L 369.136522 68.138334 
L 370.195076 84.630571 
L 373.370737 81.687482 
L 374.429291 112.97258 
L 375.487845 77.865289 
L 376.546399 94.612725 
L 377.604953 79.537977 
L 380.780614 87.821418 
L 381.839168 101.726645 
L 382.897722 71.061596 
L 383.956276 92.414203 
L 385.01483 79.555288 
L 388.190491 69.89865 
L 389.249045 84.567659 
L 390.307599 82.189247 
L 391.366153 115.487633 
L 392.424707 93.136521 
L 395.600368 113.364327 
L 396.658922 74.709374 
L 397.717476 98.63562 
L 398.77603 71.47877 
L 399.834583 89.349507 
L 403.010245 80.431022 
L 404.068799 94.895678 
L 405.127353 75.607792 
L 406.185906 63.483419 
L 407.24446 87.644693 
L 410.420122 81.13882 
L 411.478676 109.956933 
L 412.537229 70.950305 
L 413.595783 89.89835 
L 414.654337 99.160801 
L 417.829999 76.71768 
L 418.888553 108.158407 
L 419.947106 106.561971 
L 421.00566 86.45779 
L 422.064214 90.724863 
L 425.239876 116.520281 
L 426.298429 81.238109 
L 427.356983 104.036621 
L 428.415537 98.185445 
L 429.474091 105.538846 
L 429.474091 105.538846 
" clip-path="url(#p170feecec3)" style="fill: none; stroke-dasharray: 1.85,0.8; stroke-dashoffset: 0; stroke: #0000ff; stroke-width: 0.5"/>
   </g>
   <g id="patch_3">
    <path d="M 43.79 161.2325 
L 43.79 27.915 
" style="fill: none; stroke: #262626; stroke-width: 1.25; stroke-linejoin: miter; stroke-linecap: square"/>
   </g>
   <g id="patch_4">
    <path d="M 447.84 161.2325 
L 447.84 27.915 
" style="fill: none; stroke: #262626; stroke-width: 1.25; stroke-linejoin: miter; stroke-linecap: square"/>
   </g>
   <g id="patch_5">
    <path d="M 43.79 161.2325 
L 447.84 161.2325 
" style="fill: none; stroke: #262626; stroke-width: 1.25; stroke-linejoin: miter; stroke-linecap: square"/>
   </g>
   <g id="patch_6">
    <path d="M 43.79 27.915 
L 447.84 27.915 
" style="fill: none; stroke: #262626; stroke-width: 1.25; stroke-linejoin: miter; stroke-linecap: square"/>
   </g>
   <g id="text_6">
    <!-- Window 520 for portfolio constituent 2 -->
    <g style="fill: #262626" transform="translate(151.321562 21.915) scale(0.12 -0.12)">
     <defs>
      <path id="STIXGeneral-Regular-57" d="M 5965 4237 
L 5965 4115 
Q 5709 4064 5616 3990 
Q 5523 3917 5434 3667 
Q 4704 1709 4128 -70 
L 4032 -70 
Q 3642 1011 3008 2637 
L 2022 -70 
L 1926 -70 
Q 1709 576 1277 1753 
Q 845 2931 698 3347 
Q 538 3808 406 3958 
Q 275 4109 32 4115 
L 32 4237 
L 1594 4237 
L 1594 4115 
Q 1357 4109 1270 4064 
Q 1184 4019 1184 3917 
Q 1184 3808 1254 3616 
L 2176 1210 
L 2842 3021 
L 2662 3501 
Q 2509 3917 2400 4013 
Q 2291 4109 2010 4115 
L 2010 4237 
L 3706 4237 
L 3706 4115 
Q 3213 4102 3213 3891 
Q 3213 3808 3322 3520 
L 4237 1190 
L 5043 3360 
Q 5152 3667 5152 3853 
Q 5152 4109 4704 4115 
L 4704 4237 
L 5965 4237 
z
" transform="scale(0.015625)"/>
      <path id="STIXGeneral-Regular-69" d="M 1152 4045 
Q 1152 3904 1056 3811 
Q 960 3718 819 3718 
Q 685 3718 592 3811 
Q 499 3904 499 4045 
Q 499 4179 595 4275 
Q 691 4371 826 4371 
Q 966 4371 1059 4275 
Q 1152 4179 1152 4045 
z
M 1619 0 
L 102 0 
L 102 96 
Q 435 115 521 211 
Q 608 307 608 666 
L 608 2118 
Q 608 2342 563 2432 
Q 518 2522 397 2522 
Q 243 2522 128 2490 
L 128 2592 
L 1120 2944 
L 1146 2918 
L 1146 672 
Q 1146 314 1226 218 
Q 1306 122 1619 96 
L 1619 0 
z
" transform="scale(0.015625)"/>
      <path id="STIXGeneral-Regular-6e" d="M 3104 0 
L 1773 0 
L 1779 96 
Q 2016 115 2096 233 
Q 2176 352 2176 672 
L 2176 1946 
Q 2176 2592 1709 2592 
Q 1549 2592 1408 2515 
Q 1267 2438 1050 2227 
L 1050 461 
Q 1050 269 1136 192 
Q 1222 115 1466 96 
L 1466 0 
L 115 0 
L 115 96 
Q 358 115 435 214 
Q 512 314 512 602 
L 512 2157 
Q 512 2394 467 2483 
Q 422 2573 288 2573 
Q 160 2573 102 2547 
L 102 2656 
Q 550 2784 979 2944 
L 1030 2925 
L 1030 2426 
L 1037 2426 
Q 1491 2944 1958 2944 
Q 2323 2944 2518 2688 
Q 2714 2432 2714 1958 
L 2714 544 
Q 2714 288 2790 205 
Q 2867 122 3104 96 
L 3104 0 
z
" transform="scale(0.015625)"/>
      <path id="STIXGeneral-Regular-64" d="M 3142 269 
L 2202 -64 
L 2176 -45 
L 2176 365 
Q 1869 -64 1357 -64 
Q 826 -64 499 317 
Q 173 698 173 1312 
Q 173 1990 563 2467 
Q 954 2944 1504 2944 
Q 1850 2944 2176 2669 
L 2176 3667 
Q 2176 3866 2118 3930 
Q 2061 3994 1882 3994 
Q 1792 3994 1741 3987 
L 1741 4090 
Q 2323 4243 2682 4371 
L 2714 4358 
L 2714 730 
Q 2714 506 2768 435 
Q 2822 365 2995 365 
Q 3034 365 3142 371 
L 3142 269 
z
M 2176 653 
L 2176 2125 
Q 2176 2381 1981 2573 
Q 1786 2765 1523 2765 
Q 1158 2765 940 2438 
Q 723 2112 723 1568 
Q 723 979 963 624 
Q 1203 269 1606 269 
Q 1907 269 2080 474 
Q 2176 582 2176 653 
z
" transform="scale(0.015625)"/>
      <path id="STIXGeneral-Regular-6f" d="M 3008 1478 
Q 3008 806 2608 371 
Q 2208 -64 1568 -64 
Q 979 -64 582 368 
Q 186 800 186 1459 
Q 186 2125 582 2534 
Q 979 2944 1626 2944 
Q 2221 2944 2614 2537 
Q 3008 2131 3008 1478 
z
M 2432 1306 
Q 2432 2035 2112 2445 
Q 1856 2765 1504 2765 
Q 1171 2765 966 2493 
Q 762 2221 762 1747 
Q 762 928 1101 435 
Q 1318 115 1677 115 
Q 2029 115 2230 432 
Q 2432 749 2432 1306 
z
" transform="scale(0.015625)"/>
      <path id="STIXGeneral-Regular-77" d="M 4442 2880 
L 4442 2784 
Q 4346 2752 4301 2691 
Q 4256 2630 4179 2438 
L 3296 224 
Q 3168 -90 3117 -90 
Q 3085 -90 3062 -48 
Q 3040 -6 2963 186 
L 2381 1696 
L 1664 160 
Q 1549 -90 1504 -90 
Q 1446 -90 1338 192 
L 474 2381 
Q 378 2630 314 2700 
Q 250 2771 134 2784 
L 134 2880 
L 1286 2880 
L 1286 2784 
Q 1120 2765 1056 2720 
Q 992 2675 992 2573 
Q 992 2477 1030 2381 
L 1664 710 
L 2246 1984 
L 2118 2342 
Q 2029 2598 1942 2681 
Q 1856 2765 1677 2784 
L 1677 2880 
L 2976 2880 
L 2976 2784 
Q 2752 2752 2678 2707 
Q 2605 2662 2605 2560 
Q 2605 2458 2714 2176 
L 3251 742 
L 3827 2163 
Q 3936 2432 3936 2592 
Q 3936 2669 3875 2710 
Q 3814 2752 3654 2784 
L 3654 2880 
L 4442 2880 
z
" transform="scale(0.015625)"/>
      <path id="STIXGeneral-Regular-20" transform="scale(0.015625)"/>
      <path id="STIXGeneral-Regular-35" d="M 2803 4358 
L 2573 3814 
Q 2534 3731 2400 3731 
L 1158 3731 
L 902 3187 
Q 1606 3053 1920 2896 
Q 2234 2739 2502 2368 
Q 2726 2061 2726 1555 
Q 2726 1094 2576 780 
Q 2426 467 2099 224 
Q 1664 -90 1011 -90 
Q 646 -90 422 19 
Q 198 128 198 307 
Q 198 550 486 550 
Q 717 550 960 352 
Q 1210 147 1414 147 
Q 1747 147 2012 480 
Q 2278 813 2278 1229 
Q 2278 1843 1850 2189 
Q 1293 2637 486 2637 
Q 410 2637 410 2688 
L 416 2720 
L 1114 4237 
L 2438 4237 
Q 2547 4237 2608 4269 
Q 2669 4301 2746 4403 
L 2803 4358 
z
" transform="scale(0.015625)"/>
      <path id="STIXGeneral-Regular-66" d="M 134 2880 
L 659 2880 
Q 666 3264 710 3478 
Q 755 3693 883 3910 
Q 1152 4371 1786 4371 
Q 2074 4371 2262 4259 
Q 2451 4147 2451 3974 
Q 2451 3866 2374 3789 
Q 2298 3712 2182 3712 
Q 2029 3712 1894 3942 
Q 1741 4192 1555 4192 
Q 1197 4192 1197 3622 
L 1197 2880 
L 1978 2880 
L 1978 2675 
L 1197 2675 
L 1197 666 
Q 1197 307 1299 208 
Q 1402 109 1792 96 
L 1792 0 
L 128 0 
L 128 96 
Q 474 115 566 214 
Q 659 314 659 666 
L 659 2675 
L 134 2675 
L 134 2880 
z
" transform="scale(0.015625)"/>
      <path id="STIXGeneral-Regular-72" d="M 1024 2931 
L 1024 2342 
Q 1267 2688 1430 2816 
Q 1594 2944 1792 2944 
Q 1958 2944 2051 2854 
Q 2144 2765 2144 2605 
Q 2144 2470 2077 2393 
Q 2010 2317 1894 2317 
Q 1773 2317 1638 2445 
Q 1536 2541 1472 2541 
Q 1338 2541 1181 2355 
Q 1024 2170 1024 2016 
L 1024 576 
Q 1024 301 1133 205 
Q 1242 109 1568 96 
L 1568 0 
L 32 0 
L 32 96 
Q 339 154 412 224 
Q 486 294 486 538 
L 486 2138 
Q 486 2349 438 2435 
Q 390 2522 269 2522 
Q 166 2522 45 2496 
L 45 2598 
Q 448 2726 992 2944 
L 1024 2931 
z
" transform="scale(0.015625)"/>
      <path id="STIXGeneral-Regular-70" d="M 1018 2931 
L 1018 2438 
Q 1421 2944 1939 2944 
Q 2406 2944 2707 2560 
Q 3008 2176 3008 1581 
Q 3008 883 2621 409 
Q 2234 -64 1664 -64 
Q 1466 -64 1328 -6 
Q 1190 51 1018 211 
L 1018 -794 
Q 1018 -1094 1120 -1180 
Q 1222 -1267 1581 -1274 
L 1581 -1389 
L 32 -1389 
L 32 -1280 
Q 314 -1254 397 -1171 
Q 480 -1088 480 -838 
L 480 2157 
Q 480 2381 429 2451 
Q 378 2522 218 2522 
Q 115 2522 58 2515 
L 58 2618 
Q 506 2752 979 2944 
L 1018 2931 
z
M 1018 2138 
L 1018 563 
Q 1018 422 1238 281 
Q 1459 141 1683 141 
Q 2029 141 2243 467 
Q 2458 794 2458 1325 
Q 2458 1888 2243 2224 
Q 2029 2560 1670 2560 
Q 1446 2560 1232 2419 
Q 1018 2278 1018 2138 
z
" transform="scale(0.015625)"/>
      <path id="STIXGeneral-Regular-74" d="M 1702 493 
L 1786 422 
Q 1478 -64 1011 -64 
Q 448 -64 448 749 
L 448 2675 
L 109 2675 
Q 83 2694 83 2720 
Q 83 2771 192 2842 
Q 435 2982 813 3526 
Q 826 3546 874 3606 
Q 922 3667 941 3706 
Q 986 3706 986 3622 
L 986 2880 
L 1632 2880 
L 1632 2675 
L 986 2675 
L 986 845 
Q 986 538 1062 403 
Q 1139 269 1318 269 
Q 1510 269 1702 493 
z
" transform="scale(0.015625)"/>
      <path id="STIXGeneral-Regular-6c" d="M 1645 0 
L 134 0 
L 134 96 
Q 435 122 531 221 
Q 627 320 627 589 
L 627 3590 
Q 627 3821 569 3910 
Q 512 4000 358 4000 
Q 224 4000 122 3987 
L 122 4090 
Q 730 4237 1133 4371 
L 1165 4346 
L 1165 557 
Q 1165 288 1254 201 
Q 1344 115 1645 96 
L 1645 0 
z
" transform="scale(0.015625)"/>
      <path id="STIXGeneral-Regular-63" d="M 2547 998 
L 2637 941 
Q 2362 403 2112 205 
Q 1786 -64 1376 -64 
Q 845 -64 502 336 
Q 160 736 160 1357 
Q 160 2170 698 2618 
Q 1094 2944 1562 2944 
Q 1965 2944 2256 2749 
Q 2547 2554 2547 2285 
Q 2547 2176 2457 2096 
Q 2368 2016 2246 2016 
Q 2022 2016 1939 2310 
L 1901 2451 
Q 1850 2630 1773 2694 
Q 1696 2758 1523 2758 
Q 1133 2758 893 2451 
Q 653 2144 653 1645 
Q 653 1094 928 745 
Q 1203 397 1645 397 
Q 1920 397 2118 528 
Q 2317 659 2547 998 
z
" transform="scale(0.015625)"/>
      <path id="STIXGeneral-Regular-73" d="M 998 1926 
L 1664 1523 
Q 1984 1331 2105 1164 
Q 2227 998 2227 736 
Q 2227 416 1961 176 
Q 1696 -64 1331 -64 
Q 1030 -64 864 -6 
Q 691 51 570 51 
Q 461 51 416 -26 
L 333 -26 
L 333 979 
L 435 979 
Q 538 512 730 294 
Q 922 77 1248 77 
Q 1485 77 1632 211 
Q 1779 346 1779 550 
Q 1779 845 1440 1030 
L 1094 1222 
Q 326 1651 326 2150 
Q 326 2522 566 2730 
Q 806 2938 1210 2938 
Q 1491 2938 1638 2867 
Q 1754 2816 1818 2816 
Q 1862 2816 1920 2880 
L 1990 2880 
L 2022 2010 
L 1926 2010 
Q 1818 2445 1654 2621 
Q 1491 2797 1203 2797 
Q 986 2797 854 2688 
Q 723 2579 723 2362 
Q 723 2253 796 2128 
Q 870 2003 998 1926 
z
" transform="scale(0.015625)"/>
      <path id="STIXGeneral-Regular-75" d="M 3072 320 
L 3072 230 
Q 2573 96 2195 -58 
L 2163 -38 
L 2163 486 
L 2150 486 
Q 1747 -64 1235 -64 
Q 870 -64 662 160 
Q 454 384 454 755 
L 454 2362 
Q 454 2598 371 2688 
Q 288 2778 58 2790 
L 58 2880 
L 992 2880 
L 992 813 
Q 992 595 1123 451 
Q 1254 307 1446 307 
Q 1760 307 1984 506 
Q 2067 582 2099 649 
Q 2131 717 2131 877 
L 2131 2355 
Q 2131 2605 2041 2678 
Q 1952 2752 1658 2771 
L 1658 2880 
L 2669 2880 
L 2669 685 
Q 2669 461 2742 390 
Q 2816 320 3034 320 
L 3072 320 
z
" transform="scale(0.015625)"/>
      <path id="STIXGeneral-Regular-65" d="M 2611 1050 
L 2714 1005 
Q 2330 -64 1376 -64 
Q 813 -64 486 329 
Q 160 723 160 1389 
Q 160 2074 525 2509 
Q 890 2944 1485 2944 
Q 2061 2944 2374 2502 
Q 2560 2246 2592 1773 
L 621 1773 
Q 646 1370 700 1158 
Q 755 947 915 730 
Q 1184 378 1626 378 
Q 1939 378 2153 531 
Q 2368 685 2611 1050 
z
M 634 1978 
L 1939 1978 
Q 1882 2381 1750 2547 
Q 1619 2714 1312 2714 
Q 1043 2714 864 2525 
Q 685 2336 634 1978 
z
" transform="scale(0.015625)"/>
     </defs>
     <use xlink:href="#STIXGeneral-Regular-57"/>
     <use xlink:href="#STIXGeneral-Regular-69" transform="translate(94.399994 0)"/>
     <use xlink:href="#STIXGeneral-Regular-6e" transform="translate(122.199982 0)"/>
     <use xlink:href="#STIXGeneral-Regular-64" transform="translate(172.199966 0)"/>
     <use xlink:href="#STIXGeneral-Regular-6f" transform="translate(222.199951 0)"/>
     <use xlink:href="#STIXGeneral-Regular-77" transform="translate(272.199936 0)"/>
     <use xlink:href="#STIXGeneral-Regular-20" transform="translate(344.399918 0)"/>
     <use xlink:href="#STIXGeneral-Regular-35" transform="translate(369.399902 0)"/>
     <use xlink:href="#STIXGeneral-Regular-32" transform="translate(419.399887 0)"/>
     <use xlink:href="#STIXGeneral-Regular-30" transform="translate(469.399872 0)"/>
     <use xlink:href="#STIXGeneral-Regular-20" transform="translate(519.399857 0)"/>
     <use xlink:href="#STIXGeneral-Regular-66" transform="translate(544.399841 0)"/>
     <use xlink:href="#STIXGeneral-Regular-6f" transform="translate(577.699829 0)"/>
     <use xlink:href="#STIXGeneral-Regular-72" transform="translate(627.699814 0)"/>
     <use xlink:href="#STIXGeneral-Regular-20" transform="translate(660.999802 0)"/>
     <use xlink:href="#STIXGeneral-Regular-70" transform="translate(685.999786 0)"/>
     <use xlink:href="#STIXGeneral-Regular-6f" transform="translate(735.999771 0)"/>
     <use xlink:href="#STIXGeneral-Regular-72" transform="translate(785.999756 0)"/>
     <use xlink:href="#STIXGeneral-Regular-74" transform="translate(819.299744 0)"/>
     <use xlink:href="#STIXGeneral-Regular-66" transform="translate(847.099731 0)"/>
     <use xlink:href="#STIXGeneral-Regular-6f" transform="translate(880.399719 0)"/>
     <use xlink:href="#STIXGeneral-Regular-6c" transform="translate(930.399704 0)"/>
     <use xlink:href="#STIXGeneral-Regular-69" transform="translate(958.199692 0)"/>
     <use xlink:href="#STIXGeneral-Regular-6f" transform="translate(985.99968 0)"/>
     <use xlink:href="#STIXGeneral-Regular-20" transform="translate(1035.999664 0)"/>
     <use xlink:href="#STIXGeneral-Regular-63" transform="translate(1060.999649 0)"/>
     <use xlink:href="#STIXGeneral-Regular-6f" transform="translate(1105.399643 0)"/>
     <use xlink:href="#STIXGeneral-Regular-6e" transform="translate(1155.399628 0)"/>
     <use xlink:href="#STIXGeneral-Regular-73" transform="translate(1205.399612 0)"/>
     <use xlink:href="#STIXGeneral-Regular-74" transform="translate(1244.299606 0)"/>
     <use xlink:href="#STIXGeneral-Regular-69" transform="translate(1272.099594 0)"/>
     <use xlink:href="#STIXGeneral-Regular-74" transform="translate(1299.899582 0)"/>
     <use xlink:href="#STIXGeneral-Regular-75" transform="translate(1327.69957 0)"/>
     <use xlink:href="#STIXGeneral-Regular-65" transform="translate(1377.699554 0)"/>
     <use xlink:href="#STIXGeneral-Regular-6e" transform="translate(1422.099548 0)"/>
     <use xlink:href="#STIXGeneral-Regular-74" transform="translate(1472.099533 0)"/>
     <use xlink:href="#STIXGeneral-Regular-20" transform="translate(1499.899521 0)"/>
     <use xlink:href="#STIXGeneral-Regular-32" transform="translate(1524.899506 0)"/>
    </g>
   </g>
   <g id="legend_1">
    <g id="patch_7">
     <path d="M 51.49 155.7325 
L 94.61 155.7325 
Q 96.81 155.7325 96.81 153.5325 
L 96.81 122.545156 
Q 96.81 120.345156 94.61 120.345156 
L 51.49 120.345156 
Q 49.29 120.345156 49.29 122.545156 
L 49.29 153.5325 
Q 49.29 155.7325 51.49 155.7325 
z
" style="fill: #ffffff; opacity: 0.8; stroke: #cccccc; stroke-linejoin: miter"/>
    </g>
    <g id="line2d_25">
     <path d="M 53.69 128.595156 
L 64.69 128.595156 
L 75.69 128.595156 
" style="fill: none; stroke: #ffa500; stroke-width: 1.5; stroke-linecap: round"/>
    </g>
    <g id="text_7">
     <!-- $r_t$ -->
     <g style="fill: #262626" transform="translate(84.49 132.445156) scale(0.11 -0.11)">
      <defs>
       <path id="DejaVuSans-Oblique-72" d="M 2853 2969 
Q 2766 3016 2653 3041 
Q 2541 3066 2413 3066 
Q 1953 3066 1609 2717 
Q 1266 2369 1153 1784 
L 800 0 
L 225 0 
L 909 3500 
L 1484 3500 
L 1375 2956 
Q 1603 3259 1920 3421 
Q 2238 3584 2597 3584 
Q 2691 3584 2781 3573 
Q 2872 3563 2963 3538 
L 2853 2969 
z
" transform="scale(0.015625)"/>
       <path id="DejaVuSans-Oblique-74" d="M 2706 3500 
L 2619 3053 
L 1472 3053 
L 1100 1153 
Q 1081 1047 1072 975 
Q 1063 903 1063 863 
Q 1063 663 1183 572 
Q 1303 481 1569 481 
L 2150 481 
L 2053 0 
L 1503 0 
Q 991 0 739 200 
Q 488 400 488 806 
Q 488 878 497 964 
Q 506 1050 525 1153 
L 897 3053 
L 409 3053 
L 500 3500 
L 978 3500 
L 1172 4494 
L 1747 4494 
L 1556 3500 
L 2706 3500 
z
" transform="scale(0.015625)"/>
      </defs>
      <use xlink:href="#DejaVuSans-Oblique-72"/>
      <use xlink:href="#DejaVuSans-Oblique-74" transform="translate(41.113281 -16.40625) scale(0.7)"/>
     </g>
    </g>
    <g id="line2d_26">
     <path d="M 53.69 145.095156 
L 64.69 145.095156 
L 75.69 145.095156 
" style="fill: none; stroke-dasharray: 1.85,0.8; stroke-dashoffset: 0; stroke: #0000ff; stroke-width: 0.5"/>
    </g>
    <g id="text_8">
     <!-- $\tilde{r_t}$ -->
     <g style="fill: #262626" transform="translate(84.49 148.945156) scale(0.11 -0.11)">
      <defs>
       <path id="DejaVuSans-303" d="M -1619 4281 
L -1797 4453 
Q -1866 4516 -1917 4545 
Q -1969 4575 -2009 4575 
Q -2128 4575 -2184 4461 
Q -2241 4347 -2247 4091 
L -2638 4091 
Q -2631 4513 -2472 4742 
Q -2313 4972 -2028 4972 
Q -1909 4972 -1809 4928 
Q -1709 4884 -1594 4781 
L -1416 4609 
Q -1347 4547 -1295 4517 
Q -1244 4488 -1203 4488 
Q -1084 4488 -1028 4602 
Q -972 4716 -966 4972 
L -575 4972 
Q -581 4550 -740 4320 
Q -900 4091 -1184 4091 
Q -1303 4091 -1403 4134 
Q -1503 4178 -1619 4281 
z
" transform="scale(0.015625)"/>
      </defs>
      <use xlink:href="#DejaVuSans-303" transform="translate(70.042236 5.3125)"/>
      <use xlink:href="#DejaVuSans-Oblique-72" transform="translate(0 0.734375)"/>
      <use xlink:href="#DejaVuSans-Oblique-74" transform="translate(41.113281 -15.671875) scale(0.7)"/>
     </g>
    </g>
   </g>
  </g>
  <g id="axes_2">
   <g id="patch_8">
    <path d="M 43.79 313.51 
L 447.84 313.51 
L 447.84 180.1925 
L 43.79 180.1925 
z
" style="fill: #ffffff"/>
   </g>
   <g id="matplotlib.axis_3">
    <g id="xtick_7">
     <g id="line2d_27">
      <path d="M 63.214463 313.51 
L 63.214463 180.1925 
" clip-path="url(#p104aff35d2)" style="fill: none; stroke-dasharray: 1,1.65; stroke-dashoffset: 0; stroke: #808080"/>
     </g>
     <g id="line2d_28">
      <g>
       <use xlink:href="#me9b93f0f4a" x="63.214463" y="313.51" style="fill: #262626; stroke: #262626; stroke-width: 1.25"/>
      </g>
     </g>
     <g id="text_9">
      <!-- 2002-01 -->
      <g style="fill: #262626" transform="translate(44.883135 330.522656) scale(0.11 -0.11)">
       <defs>
        <path id="STIXGeneral-Regular-2d" d="M 1824 1242 
L 250 1242 
L 250 1645 
L 1824 1645 
L 1824 1242 
z
" transform="scale(0.015625)"/>
       </defs>
       <use xlink:href="#STIXGeneral-Regular-32"/>
       <use xlink:href="#STIXGeneral-Regular-30" transform="translate(49.999985 0)"/>
       <use xlink:href="#STIXGeneral-Regular-30" transform="translate(99.999969 0)"/>
       <use xlink:href="#STIXGeneral-Regular-32" transform="translate(149.999954 0)"/>
       <use xlink:href="#STIXGeneral-Regular-2d" transform="translate(199.999939 0)"/>
       <use xlink:href="#STIXGeneral-Regular-30" transform="translate(233.299927 0)"/>
       <use xlink:href="#STIXGeneral-Regular-31" transform="translate(283.299911 0)"/>
      </g>
     </g>
    </g>
    <g id="xtick_8">
     <g id="line2d_29">
      <path d="M 125.669139 313.51 
L 125.669139 180.1925 
" clip-path="url(#p104aff35d2)" style="fill: none; stroke-dasharray: 1,1.65; stroke-dashoffset: 0; stroke: #808080"/>
     </g>
     <g id="line2d_30">
      <g>
       <use xlink:href="#me9b93f0f4a" x="125.669139" y="313.51" style="fill: #262626; stroke: #262626; stroke-width: 1.25"/>
      </g>
     </g>
     <g id="text_10">
      <!-- 2002-03 -->
      <g style="fill: #262626" transform="translate(107.337811 330.522656) scale(0.11 -0.11)">
       <defs>
        <path id="STIXGeneral-Regular-33" d="M 390 3264 
L 288 3290 
Q 435 3770 748 4048 
Q 1062 4326 1542 4326 
Q 1990 4326 2265 4083 
Q 2541 3840 2541 3450 
Q 2541 2925 1946 2566 
Q 2298 2413 2477 2227 
Q 2758 1914 2758 1402 
Q 2758 890 2464 506 
Q 2246 211 1840 60 
Q 1434 -90 979 -90 
Q 262 -90 262 275 
Q 262 378 339 442 
Q 416 506 525 506 
Q 685 506 915 339 
Q 1197 141 1466 141 
Q 1818 141 2058 425 
Q 2298 710 2298 1120 
Q 2298 1856 1632 2048 
Q 1434 2112 979 2112 
L 979 2202 
Q 1338 2323 1517 2432 
Q 2035 2726 2035 3290 
Q 2035 3610 1852 3776 
Q 1670 3942 1344 3942 
Q 768 3942 390 3264 
z
" transform="scale(0.015625)"/>
       </defs>
       <use xlink:href="#STIXGeneral-Regular-32"/>
       <use xlink:href="#STIXGeneral-Regular-30" transform="translate(49.999985 0)"/>
       <use xlink:href="#STIXGeneral-Regular-30" transform="translate(99.999969 0)"/>
       <use xlink:href="#STIXGeneral-Regular-32" transform="translate(149.999954 0)"/>
       <use xlink:href="#STIXGeneral-Regular-2d" transform="translate(199.999939 0)"/>
       <use xlink:href="#STIXGeneral-Regular-30" transform="translate(233.299927 0)"/>
       <use xlink:href="#STIXGeneral-Regular-33" transform="translate(283.299911 0)"/>
      </g>
     </g>
    </g>
    <g id="xtick_9">
     <g id="line2d_31">
      <path d="M 190.240924 313.51 
L 190.240924 180.1925 
" clip-path="url(#p104aff35d2)" style="fill: none; stroke-dasharray: 1,1.65; stroke-dashoffset: 0; stroke: #808080"/>
     </g>
     <g id="line2d_32">
      <g>
       <use xlink:href="#me9b93f0f4a" x="190.240924" y="313.51" style="fill: #262626; stroke: #262626; stroke-width: 1.25"/>
      </g>
     </g>
     <g id="text_11">
      <!-- 2002-05 -->
      <g style="fill: #262626" transform="translate(171.909595 330.522656) scale(0.11 -0.11)">
       <use xlink:href="#STIXGeneral-Regular-32"/>
       <use xlink:href="#STIXGeneral-Regular-30" transform="translate(49.999985 0)"/>
       <use xlink:href="#STIXGeneral-Regular-30" transform="translate(99.999969 0)"/>
       <use xlink:href="#STIXGeneral-Regular-32" transform="translate(149.999954 0)"/>
       <use xlink:href="#STIXGeneral-Regular-2d" transform="translate(199.999939 0)"/>
       <use xlink:href="#STIXGeneral-Regular-30" transform="translate(233.299927 0)"/>
       <use xlink:href="#STIXGeneral-Regular-35" transform="translate(283.299911 0)"/>
      </g>
     </g>
    </g>
    <g id="xtick_10">
     <g id="line2d_33">
      <path d="M 254.812708 313.51 
L 254.812708 180.1925 
" clip-path="url(#p104aff35d2)" style="fill: none; stroke-dasharray: 1,1.65; stroke-dashoffset: 0; stroke: #808080"/>
     </g>
     <g id="line2d_34">
      <g>
       <use xlink:href="#me9b93f0f4a" x="254.812708" y="313.51" style="fill: #262626; stroke: #262626; stroke-width: 1.25"/>
      </g>
     </g>
     <g id="text_12">
      <!-- 2002-07 -->
      <g style="fill: #262626" transform="translate(236.481379 330.522656) scale(0.11 -0.11)">
       <defs>
        <path id="STIXGeneral-Regular-37" d="M 2874 4134 
L 1517 -51 
L 1101 -51 
L 2368 3763 
L 992 3763 
Q 717 3763 582 3667 
Q 448 3571 243 3238 
L 128 3296 
L 512 4237 
L 2874 4237 
L 2874 4134 
z
" transform="scale(0.015625)"/>
       </defs>
       <use xlink:href="#STIXGeneral-Regular-32"/>
       <use xlink:href="#STIXGeneral-Regular-30" transform="translate(49.999985 0)"/>
       <use xlink:href="#STIXGeneral-Regular-30" transform="translate(99.999969 0)"/>
       <use xlink:href="#STIXGeneral-Regular-32" transform="translate(149.999954 0)"/>
       <use xlink:href="#STIXGeneral-Regular-2d" transform="translate(199.999939 0)"/>
       <use xlink:href="#STIXGeneral-Regular-30" transform="translate(233.299927 0)"/>
       <use xlink:href="#STIXGeneral-Regular-37" transform="translate(283.299911 0)"/>
      </g>
     </g>
    </g>
    <g id="xtick_11">
     <g id="line2d_35">
      <path d="M 320.443046 313.51 
L 320.443046 180.1925 
" clip-path="url(#p104aff35d2)" style="fill: none; stroke-dasharray: 1,1.65; stroke-dashoffset: 0; stroke: #808080"/>
     </g>
     <g id="line2d_36">
      <g>
       <use xlink:href="#me9b93f0f4a" x="320.443046" y="313.51" style="fill: #262626; stroke: #262626; stroke-width: 1.25"/>
      </g>
     </g>
     <g id="text_13">
      <!-- 2002-09 -->
      <g style="fill: #262626" transform="translate(302.111717 330.522656) scale(0.11 -0.11)">
       <defs>
        <path id="STIXGeneral-Regular-39" d="M 378 -141 
L 358 -13 
Q 1094 115 1603 608 
Q 2112 1101 2304 1882 
Q 1933 1517 1344 1517 
Q 826 1517 509 1875 
Q 192 2234 192 2816 
Q 192 3462 573 3894 
Q 954 4326 1523 4326 
Q 2131 4326 2528 3840 
Q 2938 3328 2938 2522 
Q 2938 1958 2742 1462 
Q 2547 966 2170 621 
Q 1773 262 1395 105 
Q 1018 -51 378 -141 
z
M 2317 2272 
L 2317 2522 
Q 2317 4147 1472 4147 
Q 1171 4147 1005 3930 
Q 909 3802 845 3546 
Q 781 3290 781 3034 
Q 781 2464 995 2128 
Q 1210 1792 1568 1792 
Q 1824 1792 2070 1917 
Q 2317 2042 2317 2272 
z
" transform="scale(0.015625)"/>
       </defs>
       <use xlink:href="#STIXGeneral-Regular-32"/>
       <use xlink:href="#STIXGeneral-Regular-30" transform="translate(49.999985 0)"/>
       <use xlink:href="#STIXGeneral-Regular-30" transform="translate(99.999969 0)"/>
       <use xlink:href="#STIXGeneral-Regular-32" transform="translate(149.999954 0)"/>
       <use xlink:href="#STIXGeneral-Regular-2d" transform="translate(199.999939 0)"/>
       <use xlink:href="#STIXGeneral-Regular-30" transform="translate(233.299927 0)"/>
       <use xlink:href="#STIXGeneral-Regular-39" transform="translate(283.299911 0)"/>
      </g>
     </g>
    </g>
    <g id="xtick_12">
     <g id="line2d_37">
      <path d="M 385.01483 313.51 
L 385.01483 180.1925 
" clip-path="url(#p104aff35d2)" style="fill: none; stroke-dasharray: 1,1.65; stroke-dashoffset: 0; stroke: #808080"/>
     </g>
     <g id="line2d_38">
      <g>
       <use xlink:href="#me9b93f0f4a" x="385.01483" y="313.51" style="fill: #262626; stroke: #262626; stroke-width: 1.25"/>
      </g>
     </g>
     <g id="text_14">
      <!-- 2002-11 -->
      <g style="fill: #262626" transform="translate(366.683502 330.522656) scale(0.11 -0.11)">
       <use xlink:href="#STIXGeneral-Regular-32"/>
       <use xlink:href="#STIXGeneral-Regular-30" transform="translate(49.999985 0)"/>
       <use xlink:href="#STIXGeneral-Regular-30" transform="translate(99.999969 0)"/>
       <use xlink:href="#STIXGeneral-Regular-32" transform="translate(149.999954 0)"/>
       <use xlink:href="#STIXGeneral-Regular-2d" transform="translate(199.999939 0)"/>
       <use xlink:href="#STIXGeneral-Regular-31" transform="translate(233.299927 0)"/>
       <use xlink:href="#STIXGeneral-Regular-31" transform="translate(283.299911 0)"/>
      </g>
     </g>
    </g>
   </g>
   <g id="matplotlib.axis_4">
    <g id="ytick_6">
     <g id="line2d_39">
      <path d="M 43.79 299.564757 
L 447.84 299.564757 
" clip-path="url(#p104aff35d2)" style="fill: none; stroke-dasharray: 1,1.65; stroke-dashoffset: 0; stroke: #808080"/>
     </g>
     <g id="line2d_40">
      <g>
       <use xlink:href="#mc3afd373a2" x="43.79" y="299.564757" style="fill: #262626; stroke: #262626; stroke-width: 1.25"/>
      </g>
     </g>
     <g id="text_15">
      <!-- 0.50 -->
      <g style="fill: #262626" transform="translate(15.04 303.321085) scale(0.11 -0.11)">
       <use xlink:href="#STIXGeneral-Regular-30"/>
       <use xlink:href="#STIXGeneral-Regular-2e" transform="translate(49.999985 0)"/>
       <use xlink:href="#STIXGeneral-Regular-35" transform="translate(74.999969 0)"/>
       <use xlink:href="#STIXGeneral-Regular-30" transform="translate(124.999954 0)"/>
      </g>
     </g>
    </g>
    <g id="ytick_7">
     <g id="line2d_41">
      <path d="M 43.79 275.374919 
L 447.84 275.374919 
" clip-path="url(#p104aff35d2)" style="fill: none; stroke-dasharray: 1,1.65; stroke-dashoffset: 0; stroke: #808080"/>
     </g>
     <g id="line2d_42">
      <g>
       <use xlink:href="#mc3afd373a2" x="43.79" y="275.374919" style="fill: #262626; stroke: #262626; stroke-width: 1.25"/>
      </g>
     </g>
     <g id="text_16">
      <!-- 0.75 -->
      <g style="fill: #262626" transform="translate(15.04 279.131248) scale(0.11 -0.11)">
       <use xlink:href="#STIXGeneral-Regular-30"/>
       <use xlink:href="#STIXGeneral-Regular-2e" transform="translate(49.999985 0)"/>
       <use xlink:href="#STIXGeneral-Regular-37" transform="translate(74.999969 0)"/>
       <use xlink:href="#STIXGeneral-Regular-35" transform="translate(124.999954 0)"/>
      </g>
     </g>
    </g>
    <g id="ytick_8">
     <g id="line2d_43">
      <path d="M 43.79 251.185082 
L 447.84 251.185082 
" clip-path="url(#p104aff35d2)" style="fill: none; stroke-dasharray: 1,1.65; stroke-dashoffset: 0; stroke: #808080"/>
     </g>
     <g id="line2d_44">
      <g>
       <use xlink:href="#mc3afd373a2" x="43.79" y="251.185082" style="fill: #262626; stroke: #262626; stroke-width: 1.25"/>
      </g>
     </g>
     <g id="text_17">
      <!-- 1.00 -->
      <g style="fill: #262626" transform="translate(15.04 254.94141) scale(0.11 -0.11)">
       <use xlink:href="#STIXGeneral-Regular-31"/>
       <use xlink:href="#STIXGeneral-Regular-2e" transform="translate(49.999985 0)"/>
       <use xlink:href="#STIXGeneral-Regular-30" transform="translate(74.999969 0)"/>
       <use xlink:href="#STIXGeneral-Regular-30" transform="translate(124.999954 0)"/>
      </g>
     </g>
    </g>
    <g id="ytick_9">
     <g id="line2d_45">
      <path d="M 43.79 226.995245 
L 447.84 226.995245 
" clip-path="url(#p104aff35d2)" style="fill: none; stroke-dasharray: 1,1.65; stroke-dashoffset: 0; stroke: #808080"/>
     </g>
     <g id="line2d_46">
      <g>
       <use xlink:href="#mc3afd373a2" x="43.79" y="226.995245" style="fill: #262626; stroke: #262626; stroke-width: 1.25"/>
      </g>
     </g>
     <g id="text_18">
      <!-- 1.25 -->
      <g style="fill: #262626" transform="translate(15.04 230.751573) scale(0.11 -0.11)">
       <use xlink:href="#STIXGeneral-Regular-31"/>
       <use xlink:href="#STIXGeneral-Regular-2e" transform="translate(49.999985 0)"/>
       <use xlink:href="#STIXGeneral-Regular-32" transform="translate(74.999969 0)"/>
       <use xlink:href="#STIXGeneral-Regular-35" transform="translate(124.999954 0)"/>
      </g>
     </g>
    </g>
    <g id="ytick_10">
     <g id="line2d_47">
      <path d="M 43.79 202.805408 
L 447.84 202.805408 
" clip-path="url(#p104aff35d2)" style="fill: none; stroke-dasharray: 1,1.65; stroke-dashoffset: 0; stroke: #808080"/>
     </g>
     <g id="line2d_48">
      <g>
       <use xlink:href="#mc3afd373a2" x="43.79" y="202.805408" style="fill: #262626; stroke: #262626; stroke-width: 1.25"/>
      </g>
     </g>
     <g id="text_19">
      <!-- 1.50 -->
      <g style="fill: #262626" transform="translate(15.04 206.561736) scale(0.11 -0.11)">
       <use xlink:href="#STIXGeneral-Regular-31"/>
       <use xlink:href="#STIXGeneral-Regular-2e" transform="translate(49.999985 0)"/>
       <use xlink:href="#STIXGeneral-Regular-35" transform="translate(74.999969 0)"/>
       <use xlink:href="#STIXGeneral-Regular-30" transform="translate(124.999954 0)"/>
      </g>
     </g>
    </g>
   </g>
   <g id="FillBetweenPolyCollection_3"/>
   <g id="line2d_49">
    <path d="M 62.155909 214.850539 
L 63.214463 225.34753 
L 64.273017 216.397252 
L 65.331571 233.373203 
L 66.390124 228.430282 
L 69.565786 223.163848 
L 71.682894 215.176807 
L 72.741447 215.418461 
L 73.800001 211.631022 
L 76.975663 209.695621 
L 78.034217 206.163012 
L 79.092771 226.279859 
L 80.151324 226.25717 
L 81.209878 222.994991 
L 84.38554 217.839225 
L 85.444094 215.773121 
L 86.502647 220.758345 
L 87.561201 219.200324 
L 88.619755 213.695328 
L 91.795417 209.748484 
L 92.85397 213.411613 
L 93.912524 205.599534 
L 94.971078 204.021957 
L 96.029632 202.059326 
L 99.205293 204.782456 
L 100.263847 202.145594 
L 101.322401 197.742778 
L 102.380955 211.142498 
L 103.439509 203.010547 
L 106.61517 213.011517 
L 107.673724 204.194304 
L 109.790832 215.782367 
L 110.849386 216.384512 
L 114.025047 224.61385 
L 115.083601 204.105147 
L 116.142155 208.688134 
L 117.200709 217.026534 
L 118.259263 209.634552 
L 121.434924 226.186896 
L 122.493478 217.108238 
L 123.552032 219.955374 
L 124.610586 221.25466 
L 125.669139 240.883617 
L 128.844801 232.319991 
L 129.903355 220.774079 
L 130.961909 220.590014 
L 132.020462 221.930711 
L 133.079016 215.091623 
L 136.254678 220.027893 
L 137.313232 218.634195 
L 138.371785 208.673494 
L 139.430339 209.068897 
L 140.488893 215.021355 
L 143.664555 211.528107 
L 144.723108 213.361378 
L 145.781662 220.087415 
L 146.840216 208.433705 
L 147.89877 203.215113 
L 151.074431 204.351589 
L 152.132985 205.07586 
L 153.191539 202.579226 
L 154.250093 219.461851 
L 155.308647 208.759519 
L 158.484308 204.463148 
L 159.542862 209.723029 
L 160.601416 199.055041 
L 161.65997 193.172051 
L 162.718524 197.693952 
L 165.894185 193.388965 
L 166.952739 196.196683 
L 168.011293 192.41948 
L 169.069847 198.568408 
L 170.128401 198.367454 
L 173.304062 196.587392 
L 174.362616 208.350634 
L 175.42117 208.213787 
L 176.479724 199.309095 
L 177.538277 196.998373 
L 180.713939 197.944245 
L 181.772493 197.419325 
L 182.831047 193.7184 
L 183.8896 190.562685 
L 184.948154 194.864959 
L 188.123816 189.325088 
L 189.18237 191.906033 
L 190.240924 186.252386 
L 191.299477 207.966554 
L 192.358031 223.816404 
L 195.533693 218.751886 
L 196.592247 217.552777 
L 197.6508 238.237422 
L 199.767908 240.306921 
L 202.94357 236.783991 
L 205.060677 230.255644 
L 207.177785 216.842953 
L 210.353446 203.826767 
L 211.412 213.274688 
L 212.470554 204.928169 
L 213.529108 209.765343 
L 214.587662 207.716717 
L 217.763323 203.97489 
L 218.821877 200.185407 
L 219.880431 213.765895 
L 220.938985 204.094467 
L 221.997539 200.344287 
L 225.1732 203.864106 
L 226.231754 204.297086 
L 227.290308 199.473707 
L 228.348862 208.492865 
L 229.407416 197.719158 
L 232.583077 195.163223 
L 233.641631 206.523325 
L 234.700185 203.088741 
L 235.758739 202.430193 
L 236.817292 199.93207 
L 239.992954 205.938285 
L 241.051508 207.128442 
L 242.110062 226.029418 
L 243.168615 213.882203 
L 244.227169 210.856877 
L 247.402831 207.081313 
L 249.519938 201.61799 
L 250.578492 211.270195 
L 251.637046 208.153659 
L 254.812708 212.715222 
L 255.871261 217.586048 
L 256.929815 212.255907 
L 257.988369 209.830718 
L 259.046923 245.35666 
L 262.222584 242.969469 
L 264.339692 246.018053 
L 265.398246 244.829208 
L 266.4568 237.921247 
L 269.632461 235.214509 
L 270.691015 227.040926 
L 271.749569 240.948632 
L 272.808123 235.363803 
L 273.866677 233.700587 
L 277.042338 227.762518 
L 278.100892 239.154966 
L 279.159446 240.859082 
L 280.218 286.391553 
L 281.276554 281.406296 
L 284.452215 280.832023 
L 285.510769 274.542596 
L 286.569323 270.360806 
L 287.627877 259.452183 
L 288.68643 266.415918 
L 291.862092 255.916053 
L 292.920646 242.885074 
L 293.9792 236.072075 
L 295.037753 245.405781 
L 296.096307 241.461942 
L 299.271969 227.708449 
L 300.330523 244.244038 
L 301.389076 243.50847 
L 302.44763 235.318666 
L 303.506184 240.836505 
L 306.681846 237.978614 
L 307.7404 235.179609 
L 308.798953 252.195899 
L 309.857507 242.69347 
L 310.916061 258.137155 
L 314.091723 248.845714 
L 315.150276 247.200531 
L 316.20883 244.003788 
L 317.267384 229.785529 
L 318.325938 229.049612 
L 321.501599 217.962225 
L 322.560153 234.902564 
L 323.618707 233.622584 
L 324.677261 245.456853 
L 325.735815 238.823892 
L 328.911476 230.872589 
L 329.97003 224.041541 
L 331.028584 222.751296 
L 332.087138 241.657708 
L 333.145692 238.400712 
L 336.321353 245.555784 
L 337.379907 257.839272 
L 338.438461 244.504921 
L 340.555569 226.627233 
L 343.73123 254.687573 
L 344.789784 241.164609 
L 345.848338 272.556183 
L 346.906892 262.218075 
L 347.965445 260.796652 
L 351.141107 240.001264 
L 352.199661 239.951645 
L 353.258215 248.387991 
L 354.316768 235.548131 
L 355.375322 247.803186 
L 358.550984 288.180369 
L 359.609538 278.511908 
L 360.668091 271.334191 
L 361.726645 272.642061 
L 362.785199 282.354514 
L 365.960861 261.01588 
L 367.019414 299.609199 
L 368.077968 306.055252 
L 369.136522 307.450114 
L 370.195076 301.396954 
L 373.370737 299.186707 
L 374.429291 305.658149 
L 375.487845 303.594496 
L 377.604953 292.586694 
L 380.780614 281.353947 
L 381.839168 279.995684 
L 382.897722 279.6155 
L 383.956276 264.381099 
L 385.01483 255.686503 
L 388.190491 264.247976 
L 389.249045 265.647167 
L 390.307599 255.36084 
L 391.366153 273.130229 
L 392.424707 263.780141 
L 395.600368 276.345153 
L 396.658922 275.321168 
L 397.717476 268.284587 
L 398.77603 273.544872 
L 399.834583 261.720849 
L 403.010245 250.891887 
L 404.068799 233.455375 
L 405.127353 248.675362 
L 406.185906 278.4622 
L 407.24446 269.388661 
L 410.420122 261.99418 
L 411.478676 268.869707 
L 412.537229 273.247634 
L 414.654337 255.917863 
L 417.829999 255.72083 
L 418.888553 257.480682 
L 421.00566 253.456082 
L 422.064214 249.009747 
L 425.239876 264.241384 
L 426.298429 259.484761 
L 427.356983 258.291294 
L 428.415537 252.805214 
L 429.474091 251.185082 
L 429.474091 251.185082 
" clip-path="url(#p104aff35d2)" style="fill: none; stroke: #008000; stroke-width: 1.5; stroke-linecap: round"/>
   </g>
   <g id="patch_9">
    <path d="M 43.79 313.51 
L 43.79 180.1925 
" style="fill: none; stroke: #262626; stroke-width: 1.25; stroke-linejoin: miter; stroke-linecap: square"/>
   </g>
   <g id="patch_10">
    <path d="M 447.84 313.51 
L 447.84 180.1925 
" style="fill: none; stroke: #262626; stroke-width: 1.25; stroke-linejoin: miter; stroke-linecap: square"/>
   </g>
   <g id="patch_11">
    <path d="M 43.79 313.51 
L 447.84 313.51 
" style="fill: none; stroke: #262626; stroke-width: 1.25; stroke-linejoin: miter; stroke-linecap: square"/>
   </g>
   <g id="patch_12">
    <path d="M 43.79 180.1925 
L 447.84 180.1925 
" style="fill: none; stroke: #262626; stroke-width: 1.25; stroke-linejoin: miter; stroke-linecap: square"/>
   </g>
   <g id="legend_2">
    <g id="patch_13">
     <path d="M 394.6 204.579844 
L 440.14 204.579844 
Q 442.34 204.579844 442.34 202.379844 
L 442.34 187.8925 
Q 442.34 185.6925 440.14 185.6925 
L 394.6 185.6925 
Q 392.4 185.6925 392.4 187.8925 
L 392.4 202.379844 
Q 392.4 204.579844 394.6 204.579844 
z
" style="fill: #ffffff; opacity: 0.8; stroke: #cccccc; stroke-linejoin: miter"/>
    </g>
    <g id="line2d_50">
     <path d="M 396.8 193.9425 
L 407.8 193.9425 
L 418.8 193.9425 
" style="fill: none; stroke: #008000; stroke-width: 1.5; stroke-linecap: round"/>
    </g>
    <g id="text_20">
     <!-- $\rho_t$ -->
     <g style="fill: #262626" transform="translate(427.6 197.7925) scale(0.11 -0.11)">
      <defs>
       <path id="DejaVuSans-Oblique-3c1" d="M 1203 2875 
Q 1453 3194 1981 3475 
Q 2188 3584 2756 3584 
Q 3394 3584 3694 3078 
Q 3994 2572 3834 1747 
Q 3672 922 3175 415 
Q 2678 -91 2041 -91 
Q 1656 -91 1409 63 
Q 1163 213 1044 525 
L 681 -1331 
L 103 -1331 
L 697 1716 
Q 838 2438 1203 2875 
z
M 3238 1747 
Q 3359 2381 3169 2744 
Q 2978 3103 2522 3103 
Q 2066 3103 1734 2744 
Q 1403 2381 1281 1747 
Q 1156 1113 1347 750 
Q 1538 391 1994 391 
Q 2450 391 2781 750 
Q 3113 1113 3238 1747 
z
" transform="scale(0.015625)"/>
      </defs>
      <use xlink:href="#DejaVuSans-Oblique-3c1"/>
      <use xlink:href="#DejaVuSans-Oblique-74" transform="translate(63.476562 -16.40625) scale(0.7)"/>
     </g>
    </g>
   </g>
  </g>
 </g>
 <defs>
  <clipPath id="p170feecec3">
   <rect x="43.79" y="27.915" width="404.05" height="133.3175"/>
  </clipPath>
  <clipPath id="p104aff35d2">
   <rect x="43.79" y="180.1925" width="404.05" height="133.3175"/>
  </clipPath>
 </defs>
</svg>
