<?xml version="1.0" encoding="utf-8" standalone="no"?>
<!DOCTYPE svg PUBLIC "-//W3C//DTD SVG 1.1//EN"
  "http://www.w3.org/Graphics/SVG/1.1/DTD/svg11.dtd">
<svg xmlns:xlink="http://www.w3.org/1999/xlink" width="324pt" height="180pt" viewBox="0 0 324 180" xmlns="http://www.w3.org/2000/svg" version="1.1">
 <metadata>
  <rdf:RDF xmlns:dc="http://purl.org/dc/elements/1.1/" xmlns:cc="http://creativecommons.org/ns#" xmlns:rdf="http://www.w3.org/1999/02/22-rdf-syntax-ns#">
   <cc:Work>
    <dc:type rdf:resource="http://purl.org/dc/dcmitype/StillImage"/>
    <dc:date>2024-11-04T17:08:56.484530</dc:date>
    <dc:format>image/svg+xml</dc:format>
    <dc:creator>
     <cc:Agent>
      <dc:title>Matplotlib v3.8.4, https://matplotlib.org/</dc:title>
     </cc:Agent>
    </dc:creator>
   </cc:Work>
  </rdf:RDF>
 </metadata>
 <defs>
  <style type="text/css">*{stroke-linejoin: round; stroke-linecap: butt}</style>
 </defs>
 <g id="figure_1">
  <g id="patch_1">
   <path d="M 0 180 
L 324 180 
L 324 0 
L 0 0 
z
" style="fill: #ffffff"/>
  </g>
  <g id="axes_1">
   <g id="patch_2">
    <path d="M 40.5 160.2 
L 291.6 160.2 
L 291.6 21.6 
L 40.5 21.6 
z
" style="fill: #ffffff"/>
   </g>
   <g id="matplotlib.axis_1">
    <g id="xtick_1">
     <g id="line2d_1">
      <path d="M 52.85504 160.2 
L 52.85504 21.6 
" clip-path="url(#p30d0b8f758)" style="fill: none; stroke-dasharray: 1,1.65; stroke-dashoffset: 0; stroke: #808080"/>
     </g>
     <g id="line2d_2">
      <defs>
       <path id="m8d1426b761" d="M 0 0 
L 0 6 
" style="stroke: #262626; stroke-width: 1.25"/>
      </defs>
      <g>
       <use xlink:href="#m8d1426b761" x="52.85504" y="160.2" style="fill: #262626; stroke: #262626; stroke-width: 1.25"/>
      </g>
     </g>
     <g id="text_1">
      <!-- −10.0 -->
      <g style="fill: #262626" transform="translate(39.46254 177.212656) scale(0.11 -0.11)">
       <defs>
        <path id="STIXGeneral-Regular-2212" d="M 3974 1408 
L 410 1408 
L 410 1830 
L 3974 1830 
L 3974 1408 
z
" transform="scale(0.015625)"/>
        <path id="STIXGeneral-Regular-31" d="M 2522 0 
L 755 0 
L 755 96 
Q 1107 115 1235 227 
Q 1363 339 1363 608 
L 1363 3482 
Q 1363 3795 1171 3795 
Q 1082 3795 883 3718 
L 710 3654 
L 710 3744 
L 1856 4326 
L 1914 4307 
L 1914 486 
Q 1914 275 2042 185 
Q 2170 96 2522 96 
L 2522 0 
z
" transform="scale(0.015625)"/>
        <path id="STIXGeneral-Regular-30" d="M 3046 2112 
Q 3046 1683 2963 1302 
Q 2880 922 2717 602 
Q 2554 282 2266 96 
Q 1978 -90 1600 -90 
Q 1210 -90 915 108 
Q 621 307 461 640 
Q 301 973 227 1350 
Q 154 1728 154 2150 
Q 154 2746 301 3222 
Q 448 3699 790 4012 
Q 1133 4326 1626 4326 
Q 2253 4326 2649 3712 
Q 3046 3098 3046 2112 
z
M 2432 2080 
Q 2432 3091 2217 3625 
Q 2003 4160 1587 4160 
Q 1190 4160 979 3622 
Q 768 3085 768 2106 
Q 768 1120 979 598 
Q 1190 77 1600 77 
Q 2003 77 2217 598 
Q 2432 1120 2432 2080 
z
" transform="scale(0.015625)"/>
        <path id="STIXGeneral-Regular-2e" d="M 1158 275 
Q 1158 134 1052 32 
Q 947 -70 800 -70 
Q 653 -70 550 32 
Q 448 134 448 281 
Q 448 429 553 534 
Q 659 640 806 640 
Q 947 640 1052 531 
Q 1158 422 1158 275 
z
" transform="scale(0.015625)"/>
       </defs>
       <use xlink:href="#STIXGeneral-Regular-2212"/>
       <use xlink:href="#STIXGeneral-Regular-31" x="68.499985"/>
       <use xlink:href="#STIXGeneral-Regular-30" x="118.499969"/>
       <use xlink:href="#STIXGeneral-Regular-2e" x="168.499954"/>
       <use xlink:href="#STIXGeneral-Regular-30" x="193.499939"/>
      </g>
     </g>
    </g>
    <g id="xtick_2">
     <g id="line2d_3">
      <path d="M 90.370571 160.2 
L 90.370571 21.6 
" clip-path="url(#p30d0b8f758)" style="fill: none; stroke-dasharray: 1,1.65; stroke-dashoffset: 0; stroke: #808080"/>
     </g>
     <g id="line2d_4">
      <g>
       <use xlink:href="#m8d1426b761" x="90.370571" y="160.2" style="fill: #262626; stroke: #262626; stroke-width: 1.25"/>
      </g>
     </g>
     <g id="text_2">
      <!-- −7.5 -->
      <g style="fill: #262626" transform="translate(79.728071 177.212656) scale(0.11 -0.11)">
       <defs>
        <path id="STIXGeneral-Regular-37" d="M 2874 4134 
L 1517 -51 
L 1101 -51 
L 2368 3763 
L 992 3763 
Q 717 3763 582 3667 
Q 448 3571 243 3238 
L 128 3296 
L 512 4237 
L 2874 4237 
L 2874 4134 
z
" transform="scale(0.015625)"/>
        <path id="STIXGeneral-Regular-35" d="M 2803 4358 
L 2573 3814 
Q 2534 3731 2400 3731 
L 1158 3731 
L 902 3187 
Q 1606 3053 1920 2896 
Q 2234 2739 2502 2368 
Q 2726 2061 2726 1555 
Q 2726 1094 2576 780 
Q 2426 467 2099 224 
Q 1664 -90 1011 -90 
Q 646 -90 422 19 
Q 198 128 198 307 
Q 198 550 486 550 
Q 717 550 960 352 
Q 1210 147 1414 147 
Q 1747 147 2012 480 
Q 2278 813 2278 1229 
Q 2278 1843 1850 2189 
Q 1293 2637 486 2637 
Q 410 2637 410 2688 
L 416 2720 
L 1114 4237 
L 2438 4237 
Q 2547 4237 2608 4269 
Q 2669 4301 2746 4403 
L 2803 4358 
z
" transform="scale(0.015625)"/>
       </defs>
       <use xlink:href="#STIXGeneral-Regular-2212"/>
       <use xlink:href="#STIXGeneral-Regular-37" x="68.499985"/>
       <use xlink:href="#STIXGeneral-Regular-2e" x="118.499969"/>
       <use xlink:href="#STIXGeneral-Regular-35" x="143.499954"/>
      </g>
     </g>
    </g>
    <g id="xtick_3">
     <g id="line2d_5">
      <path d="M 127.886103 160.2 
L 127.886103 21.6 
" clip-path="url(#p30d0b8f758)" style="fill: none; stroke-dasharray: 1,1.65; stroke-dashoffset: 0; stroke: #808080"/>
     </g>
     <g id="line2d_6">
      <g>
       <use xlink:href="#m8d1426b761" x="127.886103" y="160.2" style="fill: #262626; stroke: #262626; stroke-width: 1.25"/>
      </g>
     </g>
     <g id="text_3">
      <!-- −5.0 -->
      <g style="fill: #262626" transform="translate(117.243603 177.212656) scale(0.11 -0.11)">
       <use xlink:href="#STIXGeneral-Regular-2212"/>
       <use xlink:href="#STIXGeneral-Regular-35" x="68.499985"/>
       <use xlink:href="#STIXGeneral-Regular-2e" x="118.499969"/>
       <use xlink:href="#STIXGeneral-Regular-30" x="143.499954"/>
      </g>
     </g>
    </g>
    <g id="xtick_4">
     <g id="line2d_7">
      <path d="M 165.401635 160.2 
L 165.401635 21.6 
" clip-path="url(#p30d0b8f758)" style="fill: none; stroke-dasharray: 1,1.65; stroke-dashoffset: 0; stroke: #808080"/>
     </g>
     <g id="line2d_8">
      <g>
       <use xlink:href="#m8d1426b761" x="165.401635" y="160.2" style="fill: #262626; stroke: #262626; stroke-width: 1.25"/>
      </g>
     </g>
     <g id="text_4">
      <!-- −2.5 -->
      <g style="fill: #262626" transform="translate(154.759135 177.212656) scale(0.11 -0.11)">
       <defs>
        <path id="STIXGeneral-Regular-32" d="M 3034 877 
L 2688 0 
L 186 0 
L 186 77 
L 1325 1286 
Q 1773 1754 1965 2144 
Q 2157 2534 2157 2950 
Q 2157 3379 1920 3616 
Q 1683 3853 1267 3853 
Q 922 3853 720 3673 
Q 518 3494 326 3021 
L 192 3053 
Q 301 3648 630 3987 
Q 960 4326 1523 4326 
Q 2054 4326 2380 4006 
Q 2707 3686 2707 3200 
Q 2707 2477 1888 1613 
L 832 486 
L 2330 486 
Q 2541 486 2665 569 
Q 2790 653 2944 915 
L 3034 877 
z
" transform="scale(0.015625)"/>
       </defs>
       <use xlink:href="#STIXGeneral-Regular-2212"/>
       <use xlink:href="#STIXGeneral-Regular-32" x="68.499985"/>
       <use xlink:href="#STIXGeneral-Regular-2e" x="118.499969"/>
       <use xlink:href="#STIXGeneral-Regular-35" x="143.499954"/>
      </g>
     </g>
    </g>
    <g id="xtick_5">
     <g id="line2d_9">
      <path d="M 202.917166 160.2 
L 202.917166 21.6 
" clip-path="url(#p30d0b8f758)" style="fill: none; stroke-dasharray: 1,1.65; stroke-dashoffset: 0; stroke: #808080"/>
     </g>
     <g id="line2d_10">
      <g>
       <use xlink:href="#m8d1426b761" x="202.917166" y="160.2" style="fill: #262626; stroke: #262626; stroke-width: 1.25"/>
      </g>
     </g>
     <g id="text_5">
      <!-- 0.0 -->
      <g style="fill: #262626" transform="translate(196.042166 177.212656) scale(0.11 -0.11)">
       <use xlink:href="#STIXGeneral-Regular-30"/>
       <use xlink:href="#STIXGeneral-Regular-2e" x="49.999985"/>
       <use xlink:href="#STIXGeneral-Regular-30" x="74.999969"/>
      </g>
     </g>
    </g>
    <g id="xtick_6">
     <g id="line2d_11">
      <path d="M 240.432698 160.2 
L 240.432698 21.6 
" clip-path="url(#p30d0b8f758)" style="fill: none; stroke-dasharray: 1,1.65; stroke-dashoffset: 0; stroke: #808080"/>
     </g>
     <g id="line2d_12">
      <g>
       <use xlink:href="#m8d1426b761" x="240.432698" y="160.2" style="fill: #262626; stroke: #262626; stroke-width: 1.25"/>
      </g>
     </g>
     <g id="text_6">
      <!-- 2.5 -->
      <g style="fill: #262626" transform="translate(233.557698 177.212656) scale(0.11 -0.11)">
       <use xlink:href="#STIXGeneral-Regular-32"/>
       <use xlink:href="#STIXGeneral-Regular-2e" x="49.999985"/>
       <use xlink:href="#STIXGeneral-Regular-35" x="74.999969"/>
      </g>
     </g>
    </g>
    <g id="xtick_7">
     <g id="line2d_13">
      <path d="M 277.94823 160.2 
L 277.94823 21.6 
" clip-path="url(#p30d0b8f758)" style="fill: none; stroke-dasharray: 1,1.65; stroke-dashoffset: 0; stroke: #808080"/>
     </g>
     <g id="line2d_14">
      <g>
       <use xlink:href="#m8d1426b761" x="277.94823" y="160.2" style="fill: #262626; stroke: #262626; stroke-width: 1.25"/>
      </g>
     </g>
     <g id="text_7">
      <!-- 5.0 -->
      <g style="fill: #262626" transform="translate(271.07323 177.212656) scale(0.11 -0.11)">
       <use xlink:href="#STIXGeneral-Regular-35"/>
       <use xlink:href="#STIXGeneral-Regular-2e" x="49.999985"/>
       <use xlink:href="#STIXGeneral-Regular-30" x="74.999969"/>
      </g>
     </g>
    </g>
   </g>
   <g id="matplotlib.axis_2">
    <g id="ytick_1">
     <g id="line2d_15">
      <path d="M 40.5 160.2 
L 291.6 160.2 
" clip-path="url(#p30d0b8f758)" style="fill: none; stroke-dasharray: 1,1.65; stroke-dashoffset: 0; stroke: #808080"/>
     </g>
     <g id="line2d_16">
      <defs>
       <path id="mc65d4788c4" d="M 0 0 
L -6 0 
" style="stroke: #262626; stroke-width: 1.25"/>
      </defs>
      <g>
       <use xlink:href="#mc65d4788c4" x="40.5" y="160.2" style="fill: #262626; stroke: #262626; stroke-width: 1.25"/>
      </g>
     </g>
     <g id="text_8">
      <!-- 0.0 -->
      <g style="fill: #262626" transform="translate(17.25 163.956328) scale(0.11 -0.11)">
       <use xlink:href="#STIXGeneral-Regular-30"/>
       <use xlink:href="#STIXGeneral-Regular-2e" x="49.999985"/>
       <use xlink:href="#STIXGeneral-Regular-30" x="74.999969"/>
      </g>
     </g>
    </g>
    <g id="ytick_2">
     <g id="line2d_17">
      <path d="M 40.5 117.387169 
L 291.6 117.387169 
" clip-path="url(#p30d0b8f758)" style="fill: none; stroke-dasharray: 1,1.65; stroke-dashoffset: 0; stroke: #808080"/>
     </g>
     <g id="line2d_18">
      <g>
       <use xlink:href="#mc65d4788c4" x="40.5" y="117.387169" style="fill: #262626; stroke: #262626; stroke-width: 1.25"/>
      </g>
     </g>
     <g id="text_9">
      <!-- 0.1 -->
      <g style="fill: #262626" transform="translate(17.25 121.143497) scale(0.11 -0.11)">
       <use xlink:href="#STIXGeneral-Regular-30"/>
       <use xlink:href="#STIXGeneral-Regular-2e" x="49.999985"/>
       <use xlink:href="#STIXGeneral-Regular-31" x="74.999969"/>
      </g>
     </g>
    </g>
    <g id="ytick_3">
     <g id="line2d_19">
      <path d="M 40.5 74.574337 
L 291.6 74.574337 
" clip-path="url(#p30d0b8f758)" style="fill: none; stroke-dasharray: 1,1.65; stroke-dashoffset: 0; stroke: #808080"/>
     </g>
     <g id="line2d_20">
      <g>
       <use xlink:href="#mc65d4788c4" x="40.5" y="74.574337" style="fill: #262626; stroke: #262626; stroke-width: 1.25"/>
      </g>
     </g>
     <g id="text_10">
      <!-- 0.2 -->
      <g style="fill: #262626" transform="translate(17.25 78.330665) scale(0.11 -0.11)">
       <use xlink:href="#STIXGeneral-Regular-30"/>
       <use xlink:href="#STIXGeneral-Regular-2e" x="49.999985"/>
       <use xlink:href="#STIXGeneral-Regular-32" x="74.999969"/>
      </g>
     </g>
    </g>
    <g id="ytick_4">
     <g id="line2d_21">
      <path d="M 40.5 31.761506 
L 291.6 31.761506 
" clip-path="url(#p30d0b8f758)" style="fill: none; stroke-dasharray: 1,1.65; stroke-dashoffset: 0; stroke: #808080"/>
     </g>
     <g id="line2d_22">
      <g>
       <use xlink:href="#mc65d4788c4" x="40.5" y="31.761506" style="fill: #262626; stroke: #262626; stroke-width: 1.25"/>
      </g>
     </g>
     <g id="text_11">
      <!-- 0.3 -->
      <g style="fill: #262626" transform="translate(17.25 35.517834) scale(0.11 -0.11)">
       <defs>
        <path id="STIXGeneral-Regular-33" d="M 390 3264 
L 288 3290 
Q 435 3770 748 4048 
Q 1062 4326 1542 4326 
Q 1990 4326 2265 4083 
Q 2541 3840 2541 3450 
Q 2541 2925 1946 2566 
Q 2298 2413 2477 2227 
Q 2758 1914 2758 1402 
Q 2758 890 2464 506 
Q 2246 211 1840 60 
Q 1434 -90 979 -90 
Q 262 -90 262 275 
Q 262 378 339 442 
Q 416 506 525 506 
Q 685 506 915 339 
Q 1197 141 1466 141 
Q 1818 141 2058 425 
Q 2298 710 2298 1120 
Q 2298 1856 1632 2048 
Q 1434 2112 979 2112 
L 979 2202 
Q 1338 2323 1517 2432 
Q 2035 2726 2035 3290 
Q 2035 3610 1852 3776 
Q 1670 3942 1344 3942 
Q 768 3942 390 3264 
z
" transform="scale(0.015625)"/>
       </defs>
       <use xlink:href="#STIXGeneral-Regular-30"/>
       <use xlink:href="#STIXGeneral-Regular-2e" x="49.999985"/>
       <use xlink:href="#STIXGeneral-Regular-33" x="74.999969"/>
      </g>
     </g>
    </g>
    <g id="text_12">
     <!-- Density -->
     <g style="fill: #262626" transform="translate(10.634375 109.566562) rotate(-90) scale(0.12 -0.12)">
      <defs>
       <path id="STIXGeneral-Regular-44" d="M 102 4237 
L 1830 4237 
Q 3078 4237 3750 3654 
Q 4384 3110 4384 2138 
Q 4384 966 3514 410 
Q 2880 0 1901 0 
L 102 0 
L 102 122 
Q 474 147 570 252 
Q 666 358 666 736 
L 666 3520 
Q 666 3891 570 3990 
Q 474 4090 102 4115 
L 102 4237 
z
M 1318 3731 
L 1318 538 
Q 1318 365 1379 301 
Q 1440 237 1626 237 
Q 2125 237 2432 307 
Q 2739 378 3021 570 
Q 3686 1018 3686 2099 
Q 3686 3027 3078 3558 
Q 2803 3802 2476 3901 
Q 2150 4000 1658 4000 
Q 1472 4000 1395 3942 
Q 1318 3885 1318 3731 
z
" transform="scale(0.015625)"/>
       <path id="STIXGeneral-Regular-65" d="M 2611 1050 
L 2714 1005 
Q 2330 -64 1376 -64 
Q 813 -64 486 329 
Q 160 723 160 1389 
Q 160 2074 525 2509 
Q 890 2944 1485 2944 
Q 2061 2944 2374 2502 
Q 2560 2246 2592 1773 
L 621 1773 
Q 646 1370 700 1158 
Q 755 947 915 730 
Q 1184 378 1626 378 
Q 1939 378 2153 531 
Q 2368 685 2611 1050 
z
M 634 1978 
L 1939 1978 
Q 1882 2381 1750 2547 
Q 1619 2714 1312 2714 
Q 1043 2714 864 2525 
Q 685 2336 634 1978 
z
" transform="scale(0.015625)"/>
       <path id="STIXGeneral-Regular-6e" d="M 3104 0 
L 1773 0 
L 1779 96 
Q 2016 115 2096 233 
Q 2176 352 2176 672 
L 2176 1946 
Q 2176 2592 1709 2592 
Q 1549 2592 1408 2515 
Q 1267 2438 1050 2227 
L 1050 461 
Q 1050 269 1136 192 
Q 1222 115 1466 96 
L 1466 0 
L 115 0 
L 115 96 
Q 358 115 435 214 
Q 512 314 512 602 
L 512 2157 
Q 512 2394 467 2483 
Q 422 2573 288 2573 
Q 160 2573 102 2547 
L 102 2656 
Q 550 2784 979 2944 
L 1030 2925 
L 1030 2426 
L 1037 2426 
Q 1491 2944 1958 2944 
Q 2323 2944 2518 2688 
Q 2714 2432 2714 1958 
L 2714 544 
Q 2714 288 2790 205 
Q 2867 122 3104 96 
L 3104 0 
z
" transform="scale(0.015625)"/>
       <path id="STIXGeneral-Regular-73" d="M 998 1926 
L 1664 1523 
Q 1984 1331 2105 1164 
Q 2227 998 2227 736 
Q 2227 416 1961 176 
Q 1696 -64 1331 -64 
Q 1030 -64 864 -6 
Q 691 51 570 51 
Q 461 51 416 -26 
L 333 -26 
L 333 979 
L 435 979 
Q 538 512 730 294 
Q 922 77 1248 77 
Q 1485 77 1632 211 
Q 1779 346 1779 550 
Q 1779 845 1440 1030 
L 1094 1222 
Q 326 1651 326 2150 
Q 326 2522 566 2730 
Q 806 2938 1210 2938 
Q 1491 2938 1638 2867 
Q 1754 2816 1818 2816 
Q 1862 2816 1920 2880 
L 1990 2880 
L 2022 2010 
L 1926 2010 
Q 1818 2445 1654 2621 
Q 1491 2797 1203 2797 
Q 986 2797 854 2688 
Q 723 2579 723 2362 
Q 723 2253 796 2128 
Q 870 2003 998 1926 
z
" transform="scale(0.015625)"/>
       <path id="STIXGeneral-Regular-69" d="M 1152 4045 
Q 1152 3904 1056 3811 
Q 960 3718 819 3718 
Q 685 3718 592 3811 
Q 499 3904 499 4045 
Q 499 4179 595 4275 
Q 691 4371 826 4371 
Q 966 4371 1059 4275 
Q 1152 4179 1152 4045 
z
M 1619 0 
L 102 0 
L 102 96 
Q 435 115 521 211 
Q 608 307 608 666 
L 608 2118 
Q 608 2342 563 2432 
Q 518 2522 397 2522 
Q 243 2522 128 2490 
L 128 2592 
L 1120 2944 
L 1146 2918 
L 1146 672 
Q 1146 314 1226 218 
Q 1306 122 1619 96 
L 1619 0 
z
" transform="scale(0.015625)"/>
       <path id="STIXGeneral-Regular-74" d="M 1702 493 
L 1786 422 
Q 1478 -64 1011 -64 
Q 448 -64 448 749 
L 448 2675 
L 109 2675 
Q 83 2694 83 2720 
Q 83 2771 192 2842 
Q 435 2982 813 3526 
Q 826 3546 874 3606 
Q 922 3667 941 3706 
Q 986 3706 986 3622 
L 986 2880 
L 1632 2880 
L 1632 2675 
L 986 2675 
L 986 845 
Q 986 538 1062 403 
Q 1139 269 1318 269 
Q 1510 269 1702 493 
z
" transform="scale(0.015625)"/>
       <path id="STIXGeneral-Regular-79" d="M 3040 2880 
L 3040 2784 
Q 2925 2771 2854 2700 
Q 2784 2630 2720 2458 
L 1760 -160 
Q 1510 -838 1257 -1116 
Q 1005 -1395 640 -1395 
Q 435 -1395 313 -1289 
Q 192 -1184 192 -1024 
Q 192 -902 272 -816 
Q 352 -730 467 -730 
Q 653 -730 800 -813 
Q 883 -858 966 -858 
Q 1101 -858 1286 -576 
Q 1376 -448 1459 -211 
Q 1542 26 1542 115 
Q 1542 198 1274 762 
L 429 2566 
Q 346 2752 90 2790 
L 90 2880 
L 1402 2880 
L 1402 2784 
Q 1197 2778 1117 2739 
Q 1037 2701 1037 2611 
Q 1037 2541 1120 2349 
L 1837 749 
L 2458 2515 
Q 2483 2573 2483 2630 
Q 2483 2784 2189 2784 
L 2189 2880 
L 3040 2880 
z
" transform="scale(0.015625)"/>
      </defs>
      <use xlink:href="#STIXGeneral-Regular-44"/>
      <use xlink:href="#STIXGeneral-Regular-65" x="72.199982"/>
      <use xlink:href="#STIXGeneral-Regular-6e" x="116.599976"/>
      <use xlink:href="#STIXGeneral-Regular-73" x="166.59996"/>
      <use xlink:href="#STIXGeneral-Regular-69" x="205.499954"/>
      <use xlink:href="#STIXGeneral-Regular-74" x="233.299942"/>
      <use xlink:href="#STIXGeneral-Regular-79" x="261.09993"/>
     </g>
    </g>
   </g>
   <g id="PolyCollection_1">
    <defs>
     <path id="m2c440ac30d" d="M 51.913636 -19.8 
L 51.913636 -19.801423 
L 53.060735 -19.802496 
L 54.207835 -19.804265 
L 55.354934 -19.807098 
L 56.502033 -19.811518 
L 57.649132 -19.818237 
L 58.796231 -19.828198 
L 59.94333 -19.842613 
L 61.090429 -19.863002 
L 62.237529 -19.891215 
L 63.384628 -19.929451 
L 64.531727 -19.980257 
L 65.678826 -20.046512 
L 66.825925 -20.131384 
L 67.973024 -20.238274 
L 69.120123 -20.37072 
L 70.267222 -20.532288 
L 71.414322 -20.726435 
L 72.561421 -20.95637 
L 73.70852 -21.224907 
L 74.855619 -21.534338 
L 76.002718 -21.886327 
L 77.149817 -22.281846 
L 78.296916 -22.721142 
L 79.444016 -23.203743 
L 80.591115 -23.728505 
L 81.738214 -24.293683 
L 82.885313 -24.897052 
L 84.032412 -25.536072 
L 85.179511 -26.208105 
L 86.32661 -26.910714 
L 87.473709 -27.641999 
L 88.620809 -28.400961 
L 89.767908 -29.187808 
L 90.915007 -30.004109 
L 92.062106 -30.8527 
L 93.209205 -31.737248 
L 94.356304 -32.661452 
L 95.503403 -33.62794 
L 96.650503 -34.637012 
L 97.797602 -35.685472 
L 98.944701 -36.765799 
L 100.0918 -37.865921 
L 101.238899 -38.969693 
L 102.385998 -40.058068 
L 103.533097 -41.110766 
L 104.680196 -42.108117 
L 105.827296 -43.032696 
L 106.974395 -43.870409 
L 108.121494 -44.610837 
L 109.268593 -45.246813 
L 110.415692 -45.77339 
L 111.562791 -46.186529 
L 112.70989 -46.481848 
L 113.856989 -46.653768 
L 115.004089 -46.695266 
L 116.151188 -46.598297 
L 117.298287 -46.354796 
L 118.445386 -45.958048 
L 119.592485 -45.404185 
L 120.739584 -44.693517 
L 121.886683 -43.831505 
L 123.033783 -42.829243 
L 124.180882 -41.703377 
L 125.327981 -40.47551 
L 126.47508 -39.171157 
L 127.622179 -37.818365 
L 128.769278 -36.446125 
L 129.916377 -35.082702 
L 131.063476 -33.754026 
L 132.210576 -32.482277 
L 133.357675 -31.284789 
L 134.504774 -30.173396 
L 135.651873 -29.154289 
L 136.798972 -28.228403 
L 137.946071 -27.392295 
L 139.09317 -26.639379 
L 140.24027 -25.961351 
L 141.387369 -25.349606 
L 142.534468 -24.796459 
L 142.534468 -19.8 
L 142.534468 -19.8 
L 141.387369 -19.8 
L 140.24027 -19.8 
L 139.09317 -19.8 
L 137.946071 -19.8 
L 136.798972 -19.8 
L 135.651873 -19.8 
L 134.504774 -19.8 
L 133.357675 -19.8 
L 132.210576 -19.8 
L 131.063476 -19.8 
L 129.916377 -19.8 
L 128.769278 -19.8 
L 127.622179 -19.8 
L 126.47508 -19.8 
L 125.327981 -19.8 
L 124.180882 -19.8 
L 123.033783 -19.8 
L 121.886683 -19.8 
L 120.739584 -19.8 
L 119.592485 -19.8 
L 118.445386 -19.8 
L 117.298287 -19.8 
L 116.151188 -19.8 
L 115.004089 -19.8 
L 113.856989 -19.8 
L 112.70989 -19.8 
L 111.562791 -19.8 
L 110.415692 -19.8 
L 109.268593 -19.8 
L 108.121494 -19.8 
L 106.974395 -19.8 
L 105.827296 -19.8 
L 104.680196 -19.8 
L 103.533097 -19.8 
L 102.385998 -19.8 
L 101.238899 -19.8 
L 100.0918 -19.8 
L 98.944701 -19.8 
L 97.797602 -19.8 
L 96.650503 -19.8 
L 95.503403 -19.8 
L 94.356304 -19.8 
L 93.209205 -19.8 
L 92.062106 -19.8 
L 90.915007 -19.8 
L 89.767908 -19.8 
L 88.620809 -19.8 
L 87.473709 -19.8 
L 86.32661 -19.8 
L 85.179511 -19.8 
L 84.032412 -19.8 
L 82.885313 -19.8 
L 81.738214 -19.8 
L 80.591115 -19.8 
L 79.444016 -19.8 
L 78.296916 -19.8 
L 77.149817 -19.8 
L 76.002718 -19.8 
L 74.855619 -19.8 
L 73.70852 -19.8 
L 72.561421 -19.8 
L 71.414322 -19.8 
L 70.267222 -19.8 
L 69.120123 -19.8 
L 67.973024 -19.8 
L 66.825925 -19.8 
L 65.678826 -19.8 
L 64.531727 -19.8 
L 63.384628 -19.8 
L 62.237529 -19.8 
L 61.090429 -19.8 
L 59.94333 -19.8 
L 58.796231 -19.8 
L 57.649132 -19.8 
L 56.502033 -19.8 
L 55.354934 -19.8 
L 54.207835 -19.8 
L 53.060735 -19.8 
L 51.913636 -19.8 
z
" style="stroke: #c0c0c0; stroke-opacity: 0.5"/>
    </defs>
    <g clip-path="url(#p30d0b8f758)">
     <use xlink:href="#m2c440ac30d" x="0" y="180" style="fill: #c0c0c0; fill-opacity: 0.5; stroke: #c0c0c0; stroke-opacity: 0.5"/>
    </g>
   </g>
   <g id="line2d_23">
    <path d="M 51.913636 160.198577 
L 62.237529 160.108785 
L 66.825925 159.868616 
L 70.267222 159.467712 
L 73.70852 158.775093 
L 76.002718 158.113673 
L 78.296916 157.278858 
L 80.591115 156.271495 
L 84.032412 154.463928 
L 87.473709 152.358001 
L 90.915007 149.995891 
L 94.356304 147.338548 
L 97.797602 144.314528 
L 104.680196 137.891883 
L 106.974395 136.129591 
L 109.268593 134.753187 
L 111.562791 133.813471 
L 112.70989 133.518152 
L 113.856989 133.346232 
L 115.004089 133.304734 
L 116.151188 133.401703 
L 117.298287 133.645204 
L 118.445386 134.041952 
L 119.592485 134.595815 
L 120.739584 135.306483 
L 121.886683 136.168495 
L 124.180882 138.296623 
L 126.47508 140.828843 
L 132.210576 147.517723 
L 134.504774 149.826604 
L 136.798972 151.771597 
L 139.09317 153.360621 
L 141.387369 154.650394 
L 143.681567 155.703955 
L 145.975765 156.558253 
L 148.269963 157.212937 
L 150.564162 157.636451 
L 152.85836 157.778588 
L 155.152558 157.582017 
L 157.446757 156.990185 
L 159.740955 155.949084 
L 160.888054 155.242232 
L 162.035153 154.399826 
L 163.182252 153.41129 
L 164.329351 152.263941 
L 165.47645 150.942868 
L 166.62355 149.431132 
L 167.770649 147.710275 
L 168.917748 145.761115 
L 170.064847 143.564713 
L 171.211946 141.103412 
L 172.359045 138.361815 
L 174.653243 131.992341 
L 176.947442 124.406013 
L 179.24164 115.627037 
L 181.535838 105.768869 
L 184.977136 89.471649 
L 190.712631 61.512923 
L 193.00683 51.392482 
L 195.301028 42.559744 
L 196.448127 38.766086 
L 197.595226 35.464144 
L 198.742325 32.711699 
L 199.889424 30.564326 
L 201.036524 29.072009 
L 202.183623 28.275071 
L 203.330722 28.2 
L 204.477821 28.85586 
L 205.62492 30.231954 
L 206.772019 32.297252 
L 207.919118 35.001844 
L 209.066217 38.280371 
L 210.213317 42.056993 
L 212.507515 50.783513 
L 214.801713 60.576825 
L 219.39011 81.588205 
L 223.978506 102.478213 
L 226.272704 112.178556 
L 228.566903 121.046557 
L 230.861101 128.928305 
L 233.155299 135.76336 
L 235.449497 141.55398 
L 237.743696 146.330904 
L 238.890795 148.35342 
L 240.037894 150.142508 
L 241.184993 151.708832 
L 242.332092 153.065659 
L 243.479191 154.228809 
L 244.626291 155.216213 
L 246.920489 156.741609 
L 249.214687 157.797432 
L 251.508885 158.522681 
L 253.803084 159.025635 
L 257.244381 159.520805 
L 261.832778 159.900535 
L 267.568273 160.118199 
L 276.745066 160.19612 
L 280.186364 160.199171 
L 280.186364 160.199171 
" clip-path="url(#p30d0b8f758)" style="fill: none; stroke: #363737; stroke-width: 0.9; stroke-linecap: round"/>
   </g>
   <g id="line2d_24">
    <path d="M 142.892316 160.2 
L 142.892316 90.9 
" clip-path="url(#p30d0b8f758)" style="fill: none; stroke: #000000; stroke-width: 0.75; stroke-linecap: round"/>
   </g>
   <g id="patch_3">
    <path d="M 40.5 160.2 
L 40.5 21.6 
" style="fill: none; stroke: #262626; stroke-width: 1.25; stroke-linejoin: miter; stroke-linecap: square"/>
   </g>
   <g id="patch_4">
    <path d="M 291.6 160.2 
L 291.6 21.6 
" style="fill: none; stroke: #262626; stroke-width: 1.25; stroke-linejoin: miter; stroke-linecap: square"/>
   </g>
   <g id="patch_5">
    <path d="M 40.5 160.2 
L 291.6 160.2 
" style="fill: none; stroke: #262626; stroke-width: 1.25; stroke-linejoin: miter; stroke-linecap: square"/>
   </g>
   <g id="patch_6">
    <path d="M 40.5 21.6 
L 291.6 21.6 
" style="fill: none; stroke: #262626; stroke-width: 1.25; stroke-linejoin: miter; stroke-linecap: square"/>
   </g>
   <g id="text_13">
    <!-- $VaR_\alpha$ -->
    <g style="fill: #262626" transform="translate(146.643869 89.558828) scale(0.12 -0.12)">
     <defs>
      <path id="DejaVuSans-Oblique-56" d="M 1319 0 
L 500 4666 
L 1119 4666 
L 1797 653 
L 4063 4666 
L 4750 4666 
L 2053 0 
L 1319 0 
z
" transform="scale(0.015625)"/>
      <path id="DejaVuSans-Oblique-61" d="M 3438 1997 
L 3047 0 
L 2472 0 
L 2578 531 
Q 2325 219 2001 64 
Q 1678 -91 1281 -91 
Q 834 -91 548 182 
Q 263 456 263 884 
Q 263 1497 752 1853 
Q 1241 2209 2100 2209 
L 2900 2209 
L 2931 2363 
Q 2938 2388 2941 2417 
Q 2944 2447 2944 2509 
Q 2944 2788 2717 2942 
Q 2491 3097 2081 3097 
Q 1800 3097 1504 3025 
Q 1209 2953 897 2809 
L 997 3341 
Q 1322 3463 1633 3523 
Q 1944 3584 2234 3584 
Q 2853 3584 3176 3315 
Q 3500 3047 3500 2534 
Q 3500 2431 3484 2292 
Q 3469 2153 3438 1997 
z
M 2816 1759 
L 2241 1759 
Q 1534 1759 1195 1570 
Q 856 1381 856 984 
Q 856 709 1029 553 
Q 1203 397 1509 397 
Q 1978 397 2328 733 
Q 2678 1069 2791 1631 
L 2816 1759 
z
" transform="scale(0.015625)"/>
      <path id="DejaVuSans-Oblique-52" d="M 1613 4147 
L 1294 2491 
L 2106 2491 
Q 2584 2491 2879 2755 
Q 3175 3019 3175 3444 
Q 3175 3784 2976 3965 
Q 2778 4147 2406 4147 
L 1613 4147 
z
M 2772 2241 
Q 2972 2194 3105 2009 
Q 3238 1825 3413 1275 
L 3809 0 
L 3144 0 
L 2778 1197 
Q 2638 1659 2453 1815 
Q 2269 1972 1888 1972 
L 1191 1972 
L 806 0 
L 172 0 
L 1081 4666 
L 2503 4666 
Q 3150 4666 3495 4373 
Q 3841 4081 3841 3531 
Q 3841 3044 3547 2687 
Q 3253 2331 2772 2241 
z
" transform="scale(0.015625)"/>
      <path id="DejaVuSans-Oblique-3b1" d="M 2619 1628 
L 2622 2350 
Q 2625 3088 2069 3091 
Q 1653 3094 1394 2747 
Q 1069 2319 959 1747 
Q 825 1059 994 731 
Q 1169 397 1547 397 
Q 1966 397 2319 1063 
L 2619 1628 
z
M 2166 3578 
Q 3141 3594 3128 2584 
Q 3128 2584 3616 3500 
L 4128 3500 
L 3119 1603 
L 3109 919 
Q 3109 766 3194 638 
Q 3291 488 3391 488 
L 3669 488 
L 3575 0 
L 3228 0 
Q 2934 0 2722 263 
Q 2622 394 2619 669 
Q 2416 334 2066 50 
Q 1900 -81 1453 -78 
Q 722 -72 456 397 
Q 184 884 353 1747 
Q 534 2675 1009 3097 
Q 1544 3569 2166 3578 
z
" transform="scale(0.015625)"/>
     </defs>
     <use xlink:href="#DejaVuSans-Oblique-56" transform="translate(0 0.09375)"/>
     <use xlink:href="#DejaVuSans-Oblique-61" transform="translate(68.408203 0.09375)"/>
     <use xlink:href="#DejaVuSans-Oblique-52" transform="translate(129.6875 0.09375)"/>
     <use xlink:href="#DejaVuSans-Oblique-3b1" transform="translate(199.169922 -16.3125) scale(0.7)"/>
    </g>
   </g>
  </g>
 </g>
 <defs>
  <clipPath id="p30d0b8f758">
   <rect x="40.5" y="21.6" width="251.1" height="138.6"/>
  </clipPath>
 </defs>
</svg>
