<?xml version="1.0" encoding="utf-8" standalone="no"?>
<!DOCTYPE svg PUBLIC "-//W3C//DTD SVG 1.1//EN"
  "http://www.w3.org/Graphics/SVG/1.1/DTD/svg11.dtd">
<svg xmlns:xlink="http://www.w3.org/1999/xlink" width="720pt" height="576pt" viewBox="0 0 720 576" xmlns="http://www.w3.org/2000/svg" version="1.1">
 <metadata>
  <rdf:RDF xmlns:dc="http://purl.org/dc/elements/1.1/" xmlns:cc="http://creativecommons.org/ns#" xmlns:rdf="http://www.w3.org/1999/02/22-rdf-syntax-ns#">
   <cc:Work>
    <dc:type rdf:resource="http://purl.org/dc/dcmitype/StillImage"/>
    <dc:date>2026-03-06T15:22:42.285120</dc:date>
    <dc:format>image/svg+xml</dc:format>
    <dc:creator>
     <cc:Agent>
      <dc:title>Matplotlib v3.10.8, https://matplotlib.org/</dc:title>
     </cc:Agent>
    </dc:creator>
   </cc:Work>
  </rdf:RDF>
 </metadata>
 <defs>
  <style type="text/css">*{stroke-linejoin: round; stroke-linecap: butt}</style>
 </defs>
 <g id="figure_1">
  <g id="patch_1">
   <path d="M 0 576 
L 720 576 
L 720 0 
L 0 0 
z
" style="fill: #ffffff"/>
  </g>
  <g id="axes_1">
   <g id="patch_2">
    <path d="M 12.96 563.04 
L 707.04 563.04 
L 707.04 27.92625 
L 12.96 27.92625 
z
" style="fill: #ffffff"/>
   </g>
   <g id="matplotlib.axis_1">
    <g id="xtick_1">
     <g id="line2d_1">
      <path d="M 42.821974 563.04 
L 42.821974 27.92625 
" clip-path="url(#p38349312e8)" style="fill: none; stroke-dasharray: 1,1.65; stroke-dashoffset: 0; stroke: #808080"/>
     </g>
    </g>
    <g id="xtick_2">
     <g id="line2d_2">
      <path d="M 155.296451 563.04 
L 155.296451 27.92625 
" clip-path="url(#p38349312e8)" style="fill: none; stroke-dasharray: 1,1.65; stroke-dashoffset: 0; stroke: #808080"/>
     </g>
    </g>
    <g id="xtick_3">
     <g id="line2d_3">
      <path d="M 267.770929 563.04 
L 267.770929 27.92625 
" clip-path="url(#p38349312e8)" style="fill: none; stroke-dasharray: 1,1.65; stroke-dashoffset: 0; stroke: #808080"/>
     </g>
    </g>
    <g id="xtick_4">
     <g id="line2d_4">
      <path d="M 380.245406 563.04 
L 380.245406 27.92625 
" clip-path="url(#p38349312e8)" style="fill: none; stroke-dasharray: 1,1.65; stroke-dashoffset: 0; stroke: #808080"/>
     </g>
    </g>
    <g id="xtick_5">
     <g id="line2d_5">
      <path d="M 492.719883 563.04 
L 492.719883 27.92625 
" clip-path="url(#p38349312e8)" style="fill: none; stroke-dasharray: 1,1.65; stroke-dashoffset: 0; stroke: #808080"/>
     </g>
    </g>
    <g id="xtick_6">
     <g id="line2d_6">
      <path d="M 605.194361 563.04 
L 605.194361 27.92625 
" clip-path="url(#p38349312e8)" style="fill: none; stroke-dasharray: 1,1.65; stroke-dashoffset: 0; stroke: #808080"/>
     </g>
    </g>
   </g>
   <g id="matplotlib.axis_2">
    <g id="ytick_1">
     <g id="line2d_7">
      <path d="M 12.96 541.519595 
L 707.04 541.519595 
" clip-path="url(#p38349312e8)" style="fill: none; stroke-dasharray: 1,1.65; stroke-dashoffset: 0; stroke: #808080"/>
     </g>
    </g>
    <g id="ytick_2">
     <g id="line2d_8">
      <path d="M 12.96 472.311024 
L 707.04 472.311024 
" clip-path="url(#p38349312e8)" style="fill: none; stroke-dasharray: 1,1.65; stroke-dashoffset: 0; stroke: #808080"/>
     </g>
    </g>
    <g id="ytick_3">
     <g id="line2d_9">
      <path d="M 12.96 403.102453 
L 707.04 403.102453 
" clip-path="url(#p38349312e8)" style="fill: none; stroke-dasharray: 1,1.65; stroke-dashoffset: 0; stroke: #808080"/>
     </g>
    </g>
    <g id="ytick_4">
     <g id="line2d_10">
      <path d="M 12.96 333.893882 
L 707.04 333.893882 
" clip-path="url(#p38349312e8)" style="fill: none; stroke-dasharray: 1,1.65; stroke-dashoffset: 0; stroke: #808080"/>
     </g>
    </g>
    <g id="ytick_5">
     <g id="line2d_11">
      <path d="M 12.96 264.685311 
L 707.04 264.685311 
" clip-path="url(#p38349312e8)" style="fill: none; stroke-dasharray: 1,1.65; stroke-dashoffset: 0; stroke: #808080"/>
     </g>
    </g>
    <g id="ytick_6">
     <g id="line2d_12">
      <path d="M 12.96 195.47674 
L 707.04 195.47674 
" clip-path="url(#p38349312e8)" style="fill: none; stroke-dasharray: 1,1.65; stroke-dashoffset: 0; stroke: #808080"/>
     </g>
    </g>
    <g id="ytick_7">
     <g id="line2d_13">
      <path d="M 12.96 126.268169 
L 707.04 126.268169 
" clip-path="url(#p38349312e8)" style="fill: none; stroke-dasharray: 1,1.65; stroke-dashoffset: 0; stroke: #808080"/>
     </g>
    </g>
    <g id="ytick_8">
     <g id="line2d_14">
      <path d="M 12.96 57.059598 
L 707.04 57.059598 
" clip-path="url(#p38349312e8)" style="fill: none; stroke-dasharray: 1,1.65; stroke-dashoffset: 0; stroke: #808080"/>
     </g>
    </g>
   </g>
   <g id="LineCollection_1">
    <path d="M 73.190083 221.775997 
L 154.171706 369.190253 
" clip-path="url(#p38349312e8)" style="fill: none; stroke: #1a1a1a"/>
    <path d="M 250.899757 74.361741 
L 250.899757 221.775997 
" clip-path="url(#p38349312e8)" style="fill: none; stroke: #1a1a1a"/>
    <path d="M 154.171706 221.775997 
L 154.171706 369.190253 
" clip-path="url(#p38349312e8)" style="fill: none; stroke: #1a1a1a"/>
    <path d="M 250.899757 221.775997 
L 154.171706 369.190253 
" clip-path="url(#p38349312e8)" style="fill: none; stroke: #1a1a1a"/>
    <path d="M 154.171706 369.190253 
L 154.171706 516.604509 
" clip-path="url(#p38349312e8)" style="fill: none; stroke: #1a1a1a"/>
    <path d="M 331.881381 74.361741 
L 372.372193 221.775997 
" clip-path="url(#p38349312e8)" style="fill: none; stroke: #1a1a1a"/>
    <path d="M 412.863004 74.361741 
L 372.372193 221.775997 
" clip-path="url(#p38349312e8)" style="fill: none; stroke: #1a1a1a"/>
    <path d="M 453.353816 221.775997 
L 416.237239 369.190253 
" clip-path="url(#p38349312e8)" style="fill: none; stroke: #1a1a1a"/>
    <path d="M 372.372193 221.775997 
L 416.237239 369.190253 
" clip-path="url(#p38349312e8)" style="fill: none; stroke: #1a1a1a"/>
    <path d="M 544.458143 74.361741 
L 544.458143 221.775997 
" clip-path="url(#p38349312e8)" style="fill: none; stroke: #1a1a1a"/>
    <path d="M 544.458143 221.775997 
L 605.194361 369.190253 
" clip-path="url(#p38349312e8)" style="fill: none; stroke: #1a1a1a"/>
    <path d="M 646.809917 221.775997 
L 605.194361 369.190253 
" clip-path="url(#p38349312e8)" style="fill: none; stroke: #1a1a1a"/>
   </g>
   <g id="text_1">
    <g id="patch_3">
     <path d="M 95.671081 290.608847 
L 108.135381 313.298136 
Q 109.579819 315.927509 112.209191 314.48307 
L 130.506061 304.431734 
Q 133.135433 302.987296 131.690994 300.357924 
L 119.226694 277.668634 
Q 117.782256 275.039262 115.152883 276.4837 
L 96.856014 286.535036 
Q 94.226642 287.979474 95.671081 290.608847 
z
" clip-path="url(#p38349312e8)" style="fill: #cccccc; opacity: 0.75; stroke: #808080; stroke-linejoin: miter"/>
    </g>
    <g clip-path="url(#p38349312e8)">
     <!-- 1,2 -->
     <g style="fill: #1a1a1a" transform="translate(112.341251 287.147004) rotate(-298.782074) scale(0.1 -0.1)">
      <defs>
       <path id="DejaVuSans-31" d="M 794 531 
L 1825 531 
L 1825 4091 
L 703 3866 
L 703 4441 
L 1819 4666 
L 2450 4666 
L 2450 531 
L 3481 531 
L 3481 0 
L 794 0 
L 794 531 
z
" transform="scale(0.015625)"/>
       <path id="DejaVuSans-2c" d="M 750 794 
L 1409 794 
L 1409 256 
L 897 -744 
L 494 -744 
L 750 256 
L 750 794 
z
" transform="scale(0.015625)"/>
       <path id="DejaVuSans-32" d="M 1228 531 
L 3431 531 
L 3431 0 
L 469 0 
L 469 531 
Q 828 903 1448 1529 
Q 2069 2156 2228 2338 
Q 2531 2678 2651 2914 
Q 2772 3150 2772 3378 
Q 2772 3750 2511 3984 
Q 2250 4219 1831 4219 
Q 1534 4219 1204 4116 
Q 875 4013 500 3803 
L 500 4441 
Q 881 4594 1212 4672 
Q 1544 4750 1819 4750 
Q 2544 4750 2975 4387 
Q 3406 4025 3406 3419 
Q 3406 3131 3298 2873 
Q 3191 2616 2906 2266 
Q 2828 2175 2409 1742 
Q 1991 1309 1228 531 
z
" transform="scale(0.015625)"/>
      </defs>
      <use xlink:href="#DejaVuSans-31"/>
      <use xlink:href="#DejaVuSans-2c" transform="translate(63.623047 0)"/>
      <use xlink:href="#DejaVuSans-32" transform="translate(95.410156 0)"/>
     </g>
    </g>
    <g clip-path="url(#p38349312e8)">
     <!-- frank -->
     <g style="fill: #1a1a1a" transform="translate(100.12321 288.163081) rotate(-298.782074) scale(0.1 -0.1)">
      <defs>
       <path id="DejaVuSans-66" d="M 2375 4863 
L 2375 4384 
L 1825 4384 
Q 1516 4384 1395 4259 
Q 1275 4134 1275 3809 
L 1275 3500 
L 2222 3500 
L 2222 3053 
L 1275 3053 
L 1275 0 
L 697 0 
L 697 3053 
L 147 3053 
L 147 3500 
L 697 3500 
L 697 3744 
Q 697 4328 969 4595 
Q 1241 4863 1831 4863 
L 2375 4863 
z
" transform="scale(0.015625)"/>
       <path id="DejaVuSans-72" d="M 2631 2963 
Q 2534 3019 2420 3045 
Q 2306 3072 2169 3072 
Q 1681 3072 1420 2755 
Q 1159 2438 1159 1844 
L 1159 0 
L 581 0 
L 581 3500 
L 1159 3500 
L 1159 2956 
Q 1341 3275 1631 3429 
Q 1922 3584 2338 3584 
Q 2397 3584 2469 3576 
Q 2541 3569 2628 3553 
L 2631 2963 
z
" transform="scale(0.015625)"/>
       <path id="DejaVuSans-61" d="M 2194 1759 
Q 1497 1759 1228 1600 
Q 959 1441 959 1056 
Q 959 750 1161 570 
Q 1363 391 1709 391 
Q 2188 391 2477 730 
Q 2766 1069 2766 1631 
L 2766 1759 
L 2194 1759 
z
M 3341 1997 
L 3341 0 
L 2766 0 
L 2766 531 
Q 2569 213 2275 61 
Q 1981 -91 1556 -91 
Q 1019 -91 701 211 
Q 384 513 384 1019 
Q 384 1609 779 1909 
Q 1175 2209 1959 2209 
L 2766 2209 
L 2766 2266 
Q 2766 2663 2505 2880 
Q 2244 3097 1772 3097 
Q 1472 3097 1187 3025 
Q 903 2953 641 2809 
L 641 3341 
Q 956 3463 1253 3523 
Q 1550 3584 1831 3584 
Q 2591 3584 2966 3190 
Q 3341 2797 3341 1997 
z
" transform="scale(0.015625)"/>
       <path id="DejaVuSans-6e" d="M 3513 2113 
L 3513 0 
L 2938 0 
L 2938 2094 
Q 2938 2591 2744 2837 
Q 2550 3084 2163 3084 
Q 1697 3084 1428 2787 
Q 1159 2491 1159 1978 
L 1159 0 
L 581 0 
L 581 3500 
L 1159 3500 
L 1159 2956 
Q 1366 3272 1645 3428 
Q 1925 3584 2291 3584 
Q 2894 3584 3203 3211 
Q 3513 2838 3513 2113 
z
" transform="scale(0.015625)"/>
       <path id="DejaVuSans-6b" d="M 581 4863 
L 1159 4863 
L 1159 1991 
L 2875 3500 
L 3609 3500 
L 1753 1863 
L 3688 0 
L 2938 0 
L 1159 1709 
L 1159 0 
L 581 0 
L 581 4863 
z
" transform="scale(0.015625)"/>
      </defs>
      <use xlink:href="#DejaVuSans-66"/>
      <use xlink:href="#DejaVuSans-72" transform="translate(35.205078 0)"/>
      <use xlink:href="#DejaVuSans-61" transform="translate(76.318359 0)"/>
      <use xlink:href="#DejaVuSans-6e" transform="translate(137.597656 0)"/>
      <use xlink:href="#DejaVuSans-6b" transform="translate(200.976562 0)"/>
     </g>
    </g>
   </g>
   <g id="text_2">
    <g id="patch_4">
     <path d="M 237.461788 135.125425 
L 237.461788 161.012925 
Q 237.461788 164.012925 240.461788 164.012925 
L 261.337726 164.012925 
Q 264.337726 164.012925 264.337726 161.012925 
L 264.337726 135.125425 
Q 264.337726 132.125425 261.337726 132.125425 
L 240.461788 132.125425 
Q 237.461788 132.125425 237.461788 135.125425 
z
" clip-path="url(#p38349312e8)" style="fill: #cccccc; opacity: 0.75; stroke: #808080; stroke-linejoin: miter"/>
    </g>
    <g clip-path="url(#p38349312e8)">
     <!-- 0,4 -->
     <g style="fill: #1a1a1a" transform="translate(253.739288 140.117613) rotate(-270) scale(0.1 -0.1)">
      <defs>
       <path id="DejaVuSans-30" d="M 2034 4250 
Q 1547 4250 1301 3770 
Q 1056 3291 1056 2328 
Q 1056 1369 1301 889 
Q 1547 409 2034 409 
Q 2525 409 2770 889 
Q 3016 1369 3016 2328 
Q 3016 3291 2770 3770 
Q 2525 4250 2034 4250 
z
M 2034 4750 
Q 2819 4750 3233 4129 
Q 3647 3509 3647 2328 
Q 3647 1150 3233 529 
Q 2819 -91 2034 -91 
Q 1250 -91 836 529 
Q 422 1150 422 2328 
Q 422 3509 836 4129 
Q 1250 4750 2034 4750 
z
" transform="scale(0.015625)"/>
       <path id="DejaVuSans-34" d="M 2419 4116 
L 825 1625 
L 2419 1625 
L 2419 4116 
z
M 2253 4666 
L 3047 4666 
L 3047 1625 
L 3713 1625 
L 3713 1100 
L 3047 1100 
L 3047 0 
L 2419 0 
L 2419 1100 
L 313 1100 
L 313 1709 
L 2253 4666 
z
" transform="scale(0.015625)"/>
      </defs>
      <use xlink:href="#DejaVuSans-30"/>
      <use xlink:href="#DejaVuSans-2c" transform="translate(63.623047 0)"/>
      <use xlink:href="#DejaVuSans-34" transform="translate(95.410156 0)"/>
     </g>
    </g>
    <g clip-path="url(#p38349312e8)">
     <!-- frank -->
     <g style="fill: #1a1a1a" transform="translate(242.541476 135.125425) rotate(-270) scale(0.1 -0.1)">
      <use xlink:href="#DejaVuSans-66"/>
      <use xlink:href="#DejaVuSans-72" transform="translate(35.205078 0)"/>
      <use xlink:href="#DejaVuSans-61" transform="translate(76.318359 0)"/>
      <use xlink:href="#DejaVuSans-6e" transform="translate(137.597656 0)"/>
      <use xlink:href="#DejaVuSans-6b" transform="translate(200.976562 0)"/>
     </g>
    </g>
   </g>
   <g id="text_3">
    <g id="patch_5">
     <path d="M 140.733738 273.24515 
L 140.733738 317.721713 
Q 140.733738 320.721713 143.733738 320.721713 
L 164.609675 320.721713 
Q 167.609675 320.721713 167.609675 317.721713 
L 167.609675 273.24515 
Q 167.609675 270.24515 164.609675 270.24515 
L 143.733738 270.24515 
Q 140.733738 270.24515 140.733738 273.24515 
z
" clip-path="url(#p38349312e8)" style="fill: #cccccc; opacity: 0.75; stroke: #808080; stroke-linejoin: miter"/>
    </g>
    <g clip-path="url(#p38349312e8)">
     <!-- 3,2 -->
     <g style="fill: #1a1a1a" transform="translate(157.011238 287.531869) rotate(-270) scale(0.1 -0.1)">
      <defs>
       <path id="DejaVuSans-33" d="M 2597 2516 
Q 3050 2419 3304 2112 
Q 3559 1806 3559 1356 
Q 3559 666 3084 287 
Q 2609 -91 1734 -91 
Q 1441 -91 1130 -33 
Q 819 25 488 141 
L 488 750 
Q 750 597 1062 519 
Q 1375 441 1716 441 
Q 2309 441 2620 675 
Q 2931 909 2931 1356 
Q 2931 1769 2642 2001 
Q 2353 2234 1838 2234 
L 1294 2234 
L 1294 2753 
L 1863 2753 
Q 2328 2753 2575 2939 
Q 2822 3125 2822 3475 
Q 2822 3834 2567 4026 
Q 2313 4219 1838 4219 
Q 1578 4219 1281 4162 
Q 984 4106 628 3988 
L 628 4550 
Q 988 4650 1302 4700 
Q 1616 4750 1894 4750 
Q 2613 4750 3031 4423 
Q 3450 4097 3450 3541 
Q 3450 3153 3228 2886 
Q 3006 2619 2597 2516 
z
" transform="scale(0.015625)"/>
      </defs>
      <use xlink:href="#DejaVuSans-33"/>
      <use xlink:href="#DejaVuSans-2c" transform="translate(63.623047 0)"/>
      <use xlink:href="#DejaVuSans-32" transform="translate(95.410156 0)"/>
     </g>
    </g>
    <g clip-path="url(#p38349312e8)">
     <!-- gaussian -->
     <g style="fill: #1a1a1a" transform="translate(145.813425 273.24515) rotate(-270) scale(0.1 -0.1)">
      <defs>
       <path id="DejaVuSans-67" d="M 2906 1791 
Q 2906 2416 2648 2759 
Q 2391 3103 1925 3103 
Q 1463 3103 1205 2759 
Q 947 2416 947 1791 
Q 947 1169 1205 825 
Q 1463 481 1925 481 
Q 2391 481 2648 825 
Q 2906 1169 2906 1791 
z
M 3481 434 
Q 3481 -459 3084 -895 
Q 2688 -1331 1869 -1331 
Q 1566 -1331 1297 -1286 
Q 1028 -1241 775 -1147 
L 775 -588 
Q 1028 -725 1275 -790 
Q 1522 -856 1778 -856 
Q 2344 -856 2625 -561 
Q 2906 -266 2906 331 
L 2906 616 
Q 2728 306 2450 153 
Q 2172 0 1784 0 
Q 1141 0 747 490 
Q 353 981 353 1791 
Q 353 2603 747 3093 
Q 1141 3584 1784 3584 
Q 2172 3584 2450 3431 
Q 2728 3278 2906 2969 
L 2906 3500 
L 3481 3500 
L 3481 434 
z
" transform="scale(0.015625)"/>
       <path id="DejaVuSans-75" d="M 544 1381 
L 544 3500 
L 1119 3500 
L 1119 1403 
Q 1119 906 1312 657 
Q 1506 409 1894 409 
Q 2359 409 2629 706 
Q 2900 1003 2900 1516 
L 2900 3500 
L 3475 3500 
L 3475 0 
L 2900 0 
L 2900 538 
Q 2691 219 2414 64 
Q 2138 -91 1772 -91 
Q 1169 -91 856 284 
Q 544 659 544 1381 
z
M 1991 3584 
L 1991 3584 
z
" transform="scale(0.015625)"/>
       <path id="DejaVuSans-73" d="M 2834 3397 
L 2834 2853 
Q 2591 2978 2328 3040 
Q 2066 3103 1784 3103 
Q 1356 3103 1142 2972 
Q 928 2841 928 2578 
Q 928 2378 1081 2264 
Q 1234 2150 1697 2047 
L 1894 2003 
Q 2506 1872 2764 1633 
Q 3022 1394 3022 966 
Q 3022 478 2636 193 
Q 2250 -91 1575 -91 
Q 1294 -91 989 -36 
Q 684 19 347 128 
L 347 722 
Q 666 556 975 473 
Q 1284 391 1588 391 
Q 1994 391 2212 530 
Q 2431 669 2431 922 
Q 2431 1156 2273 1281 
Q 2116 1406 1581 1522 
L 1381 1569 
Q 847 1681 609 1914 
Q 372 2147 372 2553 
Q 372 3047 722 3315 
Q 1072 3584 1716 3584 
Q 2034 3584 2315 3537 
Q 2597 3491 2834 3397 
z
" transform="scale(0.015625)"/>
       <path id="DejaVuSans-69" d="M 603 3500 
L 1178 3500 
L 1178 0 
L 603 0 
L 603 3500 
z
M 603 4863 
L 1178 4863 
L 1178 4134 
L 603 4134 
L 603 4863 
z
" transform="scale(0.015625)"/>
      </defs>
      <use xlink:href="#DejaVuSans-67"/>
      <use xlink:href="#DejaVuSans-61" transform="translate(63.476562 0)"/>
      <use xlink:href="#DejaVuSans-75" transform="translate(124.755859 0)"/>
      <use xlink:href="#DejaVuSans-73" transform="translate(188.134766 0)"/>
      <use xlink:href="#DejaVuSans-73" transform="translate(240.234375 0)"/>
      <use xlink:href="#DejaVuSans-69" transform="translate(292.333984 0)"/>
      <use xlink:href="#DejaVuSans-61" transform="translate(320.117188 0)"/>
      <use xlink:href="#DejaVuSans-6e" transform="translate(381.396484 0)"/>
     </g>
    </g>
   </g>
   <g id="text_4">
    <g id="patch_6">
     <path d="M 206.669733 313.6776 
L 220.871789 292.033564 
Q 222.517609 289.525322 220.009367 287.879502 
L 202.555401 276.426824 
Q 200.047159 274.781004 198.401339 277.289245 
L 184.199284 298.933281 
Q 182.553464 301.441523 185.061706 303.087343 
L 202.515672 314.540021 
Q 205.023913 316.185841 206.669733 313.6776 
z
" clip-path="url(#p38349312e8)" style="fill: #cccccc; opacity: 0.75; stroke: #808080; stroke-linejoin: miter"/>
    </g>
    <g clip-path="url(#p38349312e8)">
     <!-- 4,2 -->
     <g style="fill: #1a1a1a" transform="translate(195.799179 300.573784) rotate(-56.728523) scale(0.1 -0.1)">
      <use xlink:href="#DejaVuSans-34"/>
      <use xlink:href="#DejaVuSans-2c" transform="translate(63.623047 0)"/>
      <use xlink:href="#DejaVuSans-32" transform="translate(95.410156 0)"/>
     </g>
    </g>
    <g clip-path="url(#p38349312e8)">
     <!-- frank -->
     <g style="fill: #1a1a1a" transform="translate(202.422705 310.890849) rotate(-56.728523) scale(0.1 -0.1)">
      <use xlink:href="#DejaVuSans-66"/>
      <use xlink:href="#DejaVuSans-72" transform="translate(35.205078 0)"/>
      <use xlink:href="#DejaVuSans-61" transform="translate(76.318359 0)"/>
      <use xlink:href="#DejaVuSans-6e" transform="translate(137.597656 0)"/>
      <use xlink:href="#DejaVuSans-6b" transform="translate(200.976562 0)"/>
     </g>
    </g>
   </g>
   <g id="text_5">
    <g id="patch_7">
     <path d="M 140.733738 429.953938 
L 140.733738 455.841438 
Q 140.733738 458.841438 143.733738 458.841438 
L 164.609675 458.841438 
Q 167.609675 458.841438 167.609675 455.841438 
L 167.609675 429.953938 
Q 167.609675 426.953938 164.609675 426.953938 
L 143.733738 426.953938 
Q 140.733738 426.953938 140.733738 429.953938 
z
" clip-path="url(#p38349312e8)" style="fill: #cccccc; opacity: 0.75; stroke: #808080; stroke-linejoin: miter"/>
    </g>
    <g clip-path="url(#p38349312e8)">
     <!-- 2,5 -->
     <g style="fill: #1a1a1a" transform="translate(157.011238 434.946125) rotate(-270) scale(0.1 -0.1)">
      <defs>
       <path id="DejaVuSans-35" d="M 691 4666 
L 3169 4666 
L 3169 4134 
L 1269 4134 
L 1269 2991 
Q 1406 3038 1543 3061 
Q 1681 3084 1819 3084 
Q 2600 3084 3056 2656 
Q 3513 2228 3513 1497 
Q 3513 744 3044 326 
Q 2575 -91 1722 -91 
Q 1428 -91 1123 -41 
Q 819 9 494 109 
L 494 744 
Q 775 591 1075 516 
Q 1375 441 1709 441 
Q 2250 441 2565 725 
Q 2881 1009 2881 1497 
Q 2881 1984 2565 2268 
Q 2250 2553 1709 2553 
Q 1456 2553 1204 2497 
Q 953 2441 691 2322 
L 691 4666 
z
" transform="scale(0.015625)"/>
      </defs>
      <use xlink:href="#DejaVuSans-32"/>
      <use xlink:href="#DejaVuSans-2c" transform="translate(63.623047 0)"/>
      <use xlink:href="#DejaVuSans-35" transform="translate(95.410156 0)"/>
     </g>
    </g>
    <g clip-path="url(#p38349312e8)">
     <!-- frank -->
     <g style="fill: #1a1a1a" transform="translate(145.813425 429.953938) rotate(-270) scale(0.1 -0.1)">
      <use xlink:href="#DejaVuSans-66"/>
      <use xlink:href="#DejaVuSans-72" transform="translate(35.205078 0)"/>
      <use xlink:href="#DejaVuSans-61" transform="translate(76.318359 0)"/>
      <use xlink:href="#DejaVuSans-6e" transform="translate(137.597656 0)"/>
      <use xlink:href="#DejaVuSans-6b" transform="translate(200.976562 0)"/>
     </g>
    </g>
   </g>
   <g id="text_6">
    <g id="patch_8">
     <path d="M 335.310922 138.190612 
L 342.718006 165.157467 
Q 343.512598 168.050325 346.405455 167.255733 
L 367.114397 161.567532 
Q 370.007254 160.772941 369.212663 157.880083 
L 361.805578 130.913228 
Q 361.010986 128.020371 358.118129 128.814962 
L 337.409187 134.503163 
Q 334.51633 135.297755 335.310922 138.190612 
z
" clip-path="url(#p38349312e8)" style="fill: #cccccc; opacity: 0.75; stroke: #808080; stroke-linejoin: miter"/>
    </g>
    <g clip-path="url(#p38349312e8)">
     <!-- 1,4|2 -->
     <g style="fill: #1a1a1a" transform="translate(351.584008 134.92962) rotate(-285.358866) scale(0.1 -0.1)">
      <defs>
       <path id="DejaVuSans-7c" d="M 1344 4891 
L 1344 -1509 
L 813 -1509 
L 813 4891 
L 1344 4891 
z
" transform="scale(0.015625)"/>
      </defs>
      <use xlink:href="#DejaVuSans-31"/>
      <use xlink:href="#DejaVuSans-2c" transform="translate(63.623047 0)"/>
      <use xlink:href="#DejaVuSans-34" transform="translate(95.410156 0)"/>
      <use xlink:href="#DejaVuSans-7c" transform="translate(159.033203 0)"/>
      <use xlink:href="#DejaVuSans-32" transform="translate(192.724609 0)"/>
     </g>
    </g>
    <g clip-path="url(#p38349312e8)">
     <!-- indep -->
     <g style="fill: #1a1a1a" transform="translate(340.209192 136.845186) rotate(-285.358866) scale(0.1 -0.1)">
      <defs>
       <path id="DejaVuSans-64" d="M 2906 2969 
L 2906 4863 
L 3481 4863 
L 3481 0 
L 2906 0 
L 2906 525 
Q 2725 213 2448 61 
Q 2172 -91 1784 -91 
Q 1150 -91 751 415 
Q 353 922 353 1747 
Q 353 2572 751 3078 
Q 1150 3584 1784 3584 
Q 2172 3584 2448 3432 
Q 2725 3281 2906 2969 
z
M 947 1747 
Q 947 1113 1208 752 
Q 1469 391 1925 391 
Q 2381 391 2643 752 
Q 2906 1113 2906 1747 
Q 2906 2381 2643 2742 
Q 2381 3103 1925 3103 
Q 1469 3103 1208 2742 
Q 947 2381 947 1747 
z
" transform="scale(0.015625)"/>
       <path id="DejaVuSans-65" d="M 3597 1894 
L 3597 1613 
L 953 1613 
Q 991 1019 1311 708 
Q 1631 397 2203 397 
Q 2534 397 2845 478 
Q 3156 559 3463 722 
L 3463 178 
Q 3153 47 2828 -22 
Q 2503 -91 2169 -91 
Q 1331 -91 842 396 
Q 353 884 353 1716 
Q 353 2575 817 3079 
Q 1281 3584 2069 3584 
Q 2775 3584 3186 3129 
Q 3597 2675 3597 1894 
z
M 3022 2063 
Q 3016 2534 2758 2815 
Q 2500 3097 2075 3097 
Q 1594 3097 1305 2825 
Q 1016 2553 972 2059 
L 3022 2063 
z
" transform="scale(0.015625)"/>
       <path id="DejaVuSans-70" d="M 1159 525 
L 1159 -1331 
L 581 -1331 
L 581 3500 
L 1159 3500 
L 1159 2969 
Q 1341 3281 1617 3432 
Q 1894 3584 2278 3584 
Q 2916 3584 3314 3078 
Q 3713 2572 3713 1747 
Q 3713 922 3314 415 
Q 2916 -91 2278 -91 
Q 1894 -91 1617 61 
Q 1341 213 1159 525 
z
M 3116 1747 
Q 3116 2381 2855 2742 
Q 2594 3103 2138 3103 
Q 1681 3103 1420 2742 
Q 1159 2381 1159 1747 
Q 1159 1113 1420 752 
Q 1681 391 2138 391 
Q 2594 391 2855 752 
Q 3116 1113 3116 1747 
z
" transform="scale(0.015625)"/>
      </defs>
      <use xlink:href="#DejaVuSans-69"/>
      <use xlink:href="#DejaVuSans-6e" transform="translate(27.783203 0)"/>
      <use xlink:href="#DejaVuSans-64" transform="translate(91.162109 0)"/>
      <use xlink:href="#DejaVuSans-65" transform="translate(154.638672 0)"/>
      <use xlink:href="#DejaVuSans-70" transform="translate(216.162109 0)"/>
     </g>
    </g>
   </g>
   <g id="text_7">
    <g id="patch_9">
     <path d="M 400.736409 169.85384 
L 410.723433 133.494239 
Q 411.518025 130.601381 408.625168 129.80679 
L 387.916226 124.118589 
Q 385.023369 123.323997 384.228777 126.216855 
L 374.241752 162.576456 
Q 373.447161 165.469314 376.340018 166.263905 
L 397.04896 171.952106 
Q 399.941817 172.746698 400.736409 169.85384 
z
" clip-path="url(#p38349312e8)" style="fill: #cccccc; opacity: 0.75; stroke: #808080; stroke-linejoin: miter"/>
    </g>
    <g clip-path="url(#p38349312e8)">
     <!-- 0,2|4 -->
     <g style="fill: #1a1a1a" transform="translate(386.370757 159.648484) rotate(-74.641134) scale(0.1 -0.1)">
      <use xlink:href="#DejaVuSans-30"/>
      <use xlink:href="#DejaVuSans-2c" transform="translate(63.623047 0)"/>
      <use xlink:href="#DejaVuSans-32" transform="translate(95.410156 0)"/>
      <use xlink:href="#DejaVuSans-7c" transform="translate(159.033203 0)"/>
      <use xlink:href="#DejaVuSans-34" transform="translate(192.724609 0)"/>
     </g>
    </g>
    <g clip-path="url(#p38349312e8)">
     <!-- gumbel -->
     <g style="fill: #1a1a1a" transform="translate(395.838138 168.508415) rotate(-74.641134) scale(0.1 -0.1)">
      <defs>
       <path id="DejaVuSans-6d" d="M 3328 2828 
Q 3544 3216 3844 3400 
Q 4144 3584 4550 3584 
Q 5097 3584 5394 3201 
Q 5691 2819 5691 2113 
L 5691 0 
L 5113 0 
L 5113 2094 
Q 5113 2597 4934 2840 
Q 4756 3084 4391 3084 
Q 3944 3084 3684 2787 
Q 3425 2491 3425 1978 
L 3425 0 
L 2847 0 
L 2847 2094 
Q 2847 2600 2669 2842 
Q 2491 3084 2119 3084 
Q 1678 3084 1418 2786 
Q 1159 2488 1159 1978 
L 1159 0 
L 581 0 
L 581 3500 
L 1159 3500 
L 1159 2956 
Q 1356 3278 1631 3431 
Q 1906 3584 2284 3584 
Q 2666 3584 2933 3390 
Q 3200 3197 3328 2828 
z
" transform="scale(0.015625)"/>
       <path id="DejaVuSans-62" d="M 3116 1747 
Q 3116 2381 2855 2742 
Q 2594 3103 2138 3103 
Q 1681 3103 1420 2742 
Q 1159 2381 1159 1747 
Q 1159 1113 1420 752 
Q 1681 391 2138 391 
Q 2594 391 2855 752 
Q 3116 1113 3116 1747 
z
M 1159 2969 
Q 1341 3281 1617 3432 
Q 1894 3584 2278 3584 
Q 2916 3584 3314 3078 
Q 3713 2572 3713 1747 
Q 3713 922 3314 415 
Q 2916 -91 2278 -91 
Q 1894 -91 1617 61 
Q 1341 213 1159 525 
L 1159 0 
L 581 0 
L 581 4863 
L 1159 4863 
L 1159 2969 
z
" transform="scale(0.015625)"/>
       <path id="DejaVuSans-6c" d="M 603 4863 
L 1178 4863 
L 1178 0 
L 603 0 
L 603 4863 
z
" transform="scale(0.015625)"/>
      </defs>
      <use xlink:href="#DejaVuSans-67"/>
      <use xlink:href="#DejaVuSans-75" transform="translate(63.476562 0)"/>
      <use xlink:href="#DejaVuSans-6d" transform="translate(126.855469 0)"/>
      <use xlink:href="#DejaVuSans-62" transform="translate(224.267578 0)"/>
      <use xlink:href="#DejaVuSans-65" transform="translate(287.744141 0)"/>
      <use xlink:href="#DejaVuSans-6c" transform="translate(349.267578 0)"/>
     </g>
    </g>
   </g>
   <g id="text_8">
    <g id="patch_10">
     <path d="M 444.822028 311.35718 
L 451.142815 286.25319 
Q 451.875306 283.343988 448.966104 282.611497 
L 428.140157 277.367853 
Q 425.230955 276.635362 424.498463 279.544564 
L 418.177676 304.648554 
Q 417.445185 307.557756 420.354387 308.290247 
L 441.180335 313.533891 
Q 444.089537 314.266382 444.822028 311.35718 
z
" clip-path="url(#p38349312e8)" style="fill: #cccccc; opacity: 0.75; stroke: #808080; stroke-linejoin: miter"/>
    </g>
    <g clip-path="url(#p38349312e8)">
     <!-- 3,5|2 -->
     <g style="fill: #1a1a1a" transform="translate(428.798377 307.192165) rotate(-75.867584) scale(0.1 -0.1)">
      <use xlink:href="#DejaVuSans-33"/>
      <use xlink:href="#DejaVuSans-2c" transform="translate(63.623047 0)"/>
      <use xlink:href="#DejaVuSans-35" transform="translate(95.410156 0)"/>
      <use xlink:href="#DejaVuSans-7c" transform="translate(159.033203 0)"/>
      <use xlink:href="#DejaVuSans-32" transform="translate(192.724609 0)"/>
     </g>
    </g>
    <g clip-path="url(#p38349312e8)">
     <!-- frank -->
     <g style="fill: #1a1a1a" transform="translate(439.896082 310.116905) rotate(-75.867584) scale(0.1 -0.1)">
      <use xlink:href="#DejaVuSans-66"/>
      <use xlink:href="#DejaVuSans-72" transform="translate(35.205078 0)"/>
      <use xlink:href="#DejaVuSans-61" transform="translate(76.318359 0)"/>
      <use xlink:href="#DejaVuSans-6e" transform="translate(137.597656 0)"/>
      <use xlink:href="#DejaVuSans-6b" transform="translate(200.976562 0)"/>
     </g>
    </g>
   </g>
   <g id="text_9">
    <g id="patch_11">
     <path d="M 377.579053 286.95561 
L 384.962281 311.767917 
Q 385.817894 314.643317 388.693294 313.787704 
L 409.277266 307.662674 
Q 412.152666 306.807061 411.297053 303.93166 
L 403.913826 279.119353 
Q 403.058212 276.243953 400.182812 277.099566 
L 379.598841 283.224596 
Q 376.72344 284.08021 377.579053 286.95561 
z
" clip-path="url(#p38349312e8)" style="fill: #cccccc; opacity: 0.75; stroke: #808080; stroke-linejoin: miter"/>
    </g>
    <g clip-path="url(#p38349312e8)">
     <!-- 4,5|2 -->
     <g style="fill: #1a1a1a" transform="translate(393.483165 282.355179) rotate(-286.571064) scale(0.1 -0.1)">
      <use xlink:href="#DejaVuSans-34"/>
      <use xlink:href="#DejaVuSans-2c" transform="translate(63.623047 0)"/>
      <use xlink:href="#DejaVuSans-35" transform="translate(95.410156 0)"/>
      <use xlink:href="#DejaVuSans-7c" transform="translate(159.033203 0)"/>
      <use xlink:href="#DejaVuSans-32" transform="translate(192.724609 0)"/>
     </g>
    </g>
    <g clip-path="url(#p38349312e8)">
     <!-- frank -->
     <g style="fill: #1a1a1a" transform="translate(382.447765 285.506861) rotate(-286.571064) scale(0.1 -0.1)">
      <use xlink:href="#DejaVuSans-66"/>
      <use xlink:href="#DejaVuSans-72" transform="translate(35.205078 0)"/>
      <use xlink:href="#DejaVuSans-61" transform="translate(76.318359 0)"/>
      <use xlink:href="#DejaVuSans-6e" transform="translate(137.597656 0)"/>
      <use xlink:href="#DejaVuSans-6b" transform="translate(200.976562 0)"/>
     </g>
    </g>
   </g>
   <g id="text_10">
    <g id="patch_12">
     <path d="M 530.859237 130.481675 
L 530.859237 165.656675 
Q 530.859237 168.656675 533.859237 168.656675 
L 555.335174 168.656675 
Q 558.335174 168.656675 558.335174 165.656675 
L 558.335174 130.481675 
Q 558.335174 127.481675 555.335174 127.481675 
L 533.859237 127.481675 
Q 530.859237 127.481675 530.859237 130.481675 
z
" clip-path="url(#p38349312e8)" style="fill: #cccccc; opacity: 0.75; stroke: #808080; stroke-linejoin: miter"/>
    </g>
    <g clip-path="url(#p38349312e8)">
     <!-- 1,0|4,2 -->
     <g style="fill: #1a1a1a" transform="translate(547.414862 130.481675) rotate(-270) scale(0.1 -0.1)">
      <use xlink:href="#DejaVuSans-31"/>
      <use xlink:href="#DejaVuSans-2c" transform="translate(63.623047 0)"/>
      <use xlink:href="#DejaVuSans-30" transform="translate(95.410156 0)"/>
      <use xlink:href="#DejaVuSans-7c" transform="translate(159.033203 0)"/>
      <use xlink:href="#DejaVuSans-34" transform="translate(192.724609 0)"/>
      <use xlink:href="#DejaVuSans-2c" transform="translate(256.347656 0)"/>
      <use xlink:href="#DejaVuSans-32" transform="translate(288.134766 0)"/>
     </g>
    </g>
    <g clip-path="url(#p38349312e8)">
     <!-- indep -->
     <g style="fill: #1a1a1a" transform="translate(535.938924 134.086363) rotate(-270) scale(0.1 -0.1)">
      <use xlink:href="#DejaVuSans-69"/>
      <use xlink:href="#DejaVuSans-6e" transform="translate(27.783203 0)"/>
      <use xlink:href="#DejaVuSans-64" transform="translate(91.162109 0)"/>
      <use xlink:href="#DejaVuSans-65" transform="translate(154.638672 0)"/>
      <use xlink:href="#DejaVuSans-70" transform="translate(216.162109 0)"/>
     </g>
    </g>
   </g>
   <g id="text_11">
    <g id="patch_13">
     <path d="M 555.551234 284.398197 
L 568.950943 316.920934 
Q 570.093775 319.694728 572.867569 318.551896 
L 592.72418 310.370765 
Q 595.497974 309.227932 594.355142 306.454138 
L 580.955433 273.931401 
Q 579.812601 271.157607 577.038807 272.300439 
L 557.182196 280.48157 
Q 554.408402 281.624403 555.551234 284.398197 
z
" clip-path="url(#p38349312e8)" style="fill: #cccccc; opacity: 0.75; stroke: #808080; stroke-linejoin: miter"/>
    </g>
    <g clip-path="url(#p38349312e8)">
     <!-- 0,5|2,4 -->
     <g style="fill: #1a1a1a" transform="translate(570.858533 278.091429) rotate(-292.392174) scale(0.1 -0.1)">
      <use xlink:href="#DejaVuSans-30"/>
      <use xlink:href="#DejaVuSans-2c" transform="translate(63.623047 0)"/>
      <use xlink:href="#DejaVuSans-35" transform="translate(95.410156 0)"/>
      <use xlink:href="#DejaVuSans-7c" transform="translate(159.033203 0)"/>
      <use xlink:href="#DejaVuSans-32" transform="translate(192.724609 0)"/>
      <use xlink:href="#DejaVuSans-2c" transform="translate(256.347656 0)"/>
      <use xlink:href="#DejaVuSans-34" transform="translate(288.134766 0)"/>
     </g>
    </g>
    <g clip-path="url(#p38349312e8)">
     <!-- indep -->
     <g style="fill: #1a1a1a" transform="translate(561.621088 285.796007) rotate(-292.392174) scale(0.1 -0.1)">
      <use xlink:href="#DejaVuSans-69"/>
      <use xlink:href="#DejaVuSans-6e" transform="translate(27.783203 0)"/>
      <use xlink:href="#DejaVuSans-64" transform="translate(91.162109 0)"/>
      <use xlink:href="#DejaVuSans-65" transform="translate(154.638672 0)"/>
      <use xlink:href="#DejaVuSans-70" transform="translate(216.162109 0)"/>
     </g>
    </g>
   </g>
   <g id="text_12">
    <g id="patch_14">
     <path d="M 634.310641 316.105974 
L 643.86716 282.254038 
Q 644.682215 279.366879 641.795056 278.551824 
L 621.12691 272.717135 
Q 618.239751 271.90208 617.424696 274.789239 
L 607.868177 308.641175 
Q 607.053122 311.528333 609.940281 312.343388 
L 630.608427 318.178078 
Q 633.495586 318.993133 634.310641 316.105974 
z
" clip-path="url(#p38349312e8)" style="fill: #cccccc; opacity: 0.75; stroke: #808080; stroke-linejoin: miter"/>
    </g>
    <g clip-path="url(#p38349312e8)">
     <!-- 3,4|5,2 -->
     <g style="fill: #1a1a1a" transform="translate(618.377735 311.608059) rotate(-74.235442) scale(0.1 -0.1)">
      <use xlink:href="#DejaVuSans-33"/>
      <use xlink:href="#DejaVuSans-2c" transform="translate(63.623047 0)"/>
      <use xlink:href="#DejaVuSans-34" transform="translate(95.410156 0)"/>
      <use xlink:href="#DejaVuSans-7c" transform="translate(159.033203 0)"/>
      <use xlink:href="#DejaVuSans-35" transform="translate(192.724609 0)"/>
      <use xlink:href="#DejaVuSans-2c" transform="translate(256.347656 0)"/>
      <use xlink:href="#DejaVuSans-32" transform="translate(288.134766 0)"/>
     </g>
    </g>
    <g clip-path="url(#p38349312e8)">
     <!-- indep -->
     <g style="fill: #1a1a1a" transform="translate(630.401359 311.256798) rotate(-74.235442) scale(0.1 -0.1)">
      <use xlink:href="#DejaVuSans-69"/>
      <use xlink:href="#DejaVuSans-6e" transform="translate(27.783203 0)"/>
      <use xlink:href="#DejaVuSans-64" transform="translate(91.162109 0)"/>
      <use xlink:href="#DejaVuSans-65" transform="translate(154.638672 0)"/>
      <use xlink:href="#DejaVuSans-70" transform="translate(216.162109 0)"/>
     </g>
    </g>
   </g>
   <g id="PathCollection_1">
    <defs>
     <path id="maf07ec652f" d="M -13.693064 13.693064 
L 13.693064 13.693064 
L 13.693064 -13.693064 
L -13.693064 -13.693064 
z
" style="stroke: #1f78b4"/>
    </defs>
    <g clip-path="url(#p38349312e8)">
     <use xlink:href="#maf07ec652f" x="73.190083" y="221.775997" style="fill: #1f78b4; stroke: #1f78b4"/>
    </g>
   </g>
   <g id="PathCollection_2">
    <g clip-path="url(#p38349312e8)">
     <use xlink:href="#maf07ec652f" x="250.899757" y="74.361741" style="fill: #1f78b4; stroke: #1f78b4"/>
    </g>
   </g>
   <g id="PathCollection_3">
    <g clip-path="url(#p38349312e8)">
     <use xlink:href="#maf07ec652f" x="154.171706" y="221.775997" style="fill: #1f78b4; stroke: #1f78b4"/>
    </g>
   </g>
   <g id="PathCollection_4">
    <g clip-path="url(#p38349312e8)">
     <use xlink:href="#maf07ec652f" x="250.899757" y="221.775997" style="fill: #1f78b4; stroke: #1f78b4"/>
    </g>
   </g>
   <g id="PathCollection_5">
    <g clip-path="url(#p38349312e8)">
     <use xlink:href="#maf07ec652f" x="154.171706" y="369.190253" style="fill: #1f78b4; stroke: #1f78b4"/>
    </g>
   </g>
   <g id="PathCollection_6">
    <g clip-path="url(#p38349312e8)">
     <use xlink:href="#maf07ec652f" x="154.171706" y="516.604509" style="fill: #1f78b4; stroke: #1f78b4"/>
    </g>
   </g>
   <g id="PathCollection_7">
    <defs>
     <path id="m3d0b6c71e5" d="M 0 13.693064 
C 3.631443 13.693064 7.11464 12.250276 9.682458 9.682458 
C 12.250276 7.11464 13.693064 3.631443 13.693064 0 
C 13.693064 -3.631443 12.250276 -7.11464 9.682458 -9.682458 
C 7.11464 -12.250276 3.631443 -13.693064 0 -13.693064 
C -3.631443 -13.693064 -7.11464 -12.250276 -9.682458 -9.682458 
C -12.250276 -7.11464 -13.693064 -3.631443 -13.693064 0 
C -13.693064 3.631443 -12.250276 7.11464 -9.682458 9.682458 
C -7.11464 12.250276 -3.631443 13.693064 0 13.693064 
z
" style="stroke: #1f78b4"/>
    </defs>
    <g clip-path="url(#p38349312e8)">
     <use xlink:href="#m3d0b6c71e5" x="331.881381" y="74.361741" style="fill: #1f78b4; stroke: #1f78b4"/>
    </g>
   </g>
   <g id="PathCollection_8">
    <g clip-path="url(#p38349312e8)">
     <use xlink:href="#m3d0b6c71e5" x="412.863004" y="74.361741" style="fill: #1f78b4; stroke: #1f78b4"/>
    </g>
   </g>
   <g id="PathCollection_9">
    <g clip-path="url(#p38349312e8)">
     <use xlink:href="#m3d0b6c71e5" x="453.353816" y="221.775997" style="fill: #1f78b4; stroke: #1f78b4"/>
    </g>
   </g>
   <g id="PathCollection_10">
    <g clip-path="url(#p38349312e8)">
     <use xlink:href="#m3d0b6c71e5" x="372.372193" y="221.775997" style="fill: #1f78b4; stroke: #1f78b4"/>
    </g>
   </g>
   <g id="PathCollection_11">
    <g clip-path="url(#p38349312e8)">
     <use xlink:href="#m3d0b6c71e5" x="416.237239" y="369.190253" style="fill: #1f78b4; stroke: #1f78b4"/>
    </g>
   </g>
   <g id="PathCollection_12">
    <g clip-path="url(#p38349312e8)">
     <use xlink:href="#m3d0b6c71e5" x="544.458143" y="74.361741" style="fill: #1f78b4; stroke: #1f78b4"/>
    </g>
   </g>
   <g id="PathCollection_13">
    <g clip-path="url(#p38349312e8)">
     <use xlink:href="#m3d0b6c71e5" x="544.458143" y="221.775997" style="fill: #1f78b4; stroke: #1f78b4"/>
    </g>
   </g>
   <g id="PathCollection_14">
    <g clip-path="url(#p38349312e8)">
     <use xlink:href="#m3d0b6c71e5" x="646.809917" y="221.775997" style="fill: #1f78b4; stroke: #1f78b4"/>
    </g>
   </g>
   <g id="PathCollection_15">
    <g clip-path="url(#p38349312e8)">
     <use xlink:href="#m3d0b6c71e5" x="605.194361" y="369.190253" style="fill: #1f78b4; stroke: #1f78b4"/>
    </g>
   </g>
   <g id="patch_15">
    <path d="M 12.96 563.04 
L 12.96 27.92625 
" style="fill: none; stroke: #262626; stroke-width: 1.25; stroke-linejoin: miter; stroke-linecap: square"/>
   </g>
   <g id="patch_16">
    <path d="M 707.04 563.04 
L 707.04 27.92625 
" style="fill: none; stroke: #262626; stroke-width: 1.25; stroke-linejoin: miter; stroke-linecap: square"/>
   </g>
   <g id="patch_17">
    <path d="M 12.96 563.04 
L 707.04 563.04 
" style="fill: none; stroke: #262626; stroke-width: 1.25; stroke-linejoin: miter; stroke-linecap: square"/>
   </g>
   <g id="patch_18">
    <path d="M 12.96 27.92625 
L 707.04 27.92625 
" style="fill: none; stroke: #262626; stroke-width: 1.25; stroke-linejoin: miter; stroke-linecap: square"/>
   </g>
   <g id="text_13">
    <g clip-path="url(#p38349312e8)">
     <!-- 1 -->
     <g style="fill: #1a1a1a" transform="translate(69.372583 225.087247) scale(0.12 -0.12)">
      <use xlink:href="#DejaVuSans-31"/>
     </g>
    </g>
   </g>
   <g id="text_14">
    <g clip-path="url(#p38349312e8)">
     <!-- 0 -->
     <g style="fill: #1a1a1a" transform="translate(247.082257 77.672991) scale(0.12 -0.12)">
      <use xlink:href="#DejaVuSans-30"/>
     </g>
    </g>
   </g>
   <g id="text_15">
    <g clip-path="url(#p38349312e8)">
     <!-- 3 -->
     <g style="fill: #1a1a1a" transform="translate(150.354206 225.087247) scale(0.12 -0.12)">
      <use xlink:href="#DejaVuSans-33"/>
     </g>
    </g>
   </g>
   <g id="text_16">
    <g clip-path="url(#p38349312e8)">
     <!-- 4 -->
     <g style="fill: #1a1a1a" transform="translate(247.082257 225.087247) scale(0.12 -0.12)">
      <use xlink:href="#DejaVuSans-34"/>
     </g>
    </g>
   </g>
   <g id="text_17">
    <g clip-path="url(#p38349312e8)">
     <!-- 2 -->
     <g style="fill: #1a1a1a" transform="translate(150.354206 372.501503) scale(0.12 -0.12)">
      <use xlink:href="#DejaVuSans-32"/>
     </g>
    </g>
   </g>
   <g id="text_18">
    <g clip-path="url(#p38349312e8)">
     <!-- 5 -->
     <g style="fill: #1a1a1a" transform="translate(150.354206 519.915759) scale(0.12 -0.12)">
      <use xlink:href="#DejaVuSans-35"/>
     </g>
    </g>
   </g>
   <g id="text_19">
    <g clip-path="url(#p38349312e8)">
     <!-- 1,2 -->
     <g style="fill: #1a1a1a" transform="translate(322.339506 77.672991) scale(0.12 -0.12)">
      <use xlink:href="#DejaVuSans-31"/>
      <use xlink:href="#DejaVuSans-2c" transform="translate(63.623047 0)"/>
      <use xlink:href="#DejaVuSans-32" transform="translate(95.410156 0)"/>
     </g>
    </g>
   </g>
   <g id="text_20">
    <g clip-path="url(#p38349312e8)">
     <!-- 0,4 -->
     <g style="fill: #1a1a1a" transform="translate(403.321129 77.672991) scale(0.12 -0.12)">
      <use xlink:href="#DejaVuSans-30"/>
      <use xlink:href="#DejaVuSans-2c" transform="translate(63.623047 0)"/>
      <use xlink:href="#DejaVuSans-34" transform="translate(95.410156 0)"/>
     </g>
    </g>
   </g>
   <g id="text_21">
    <g clip-path="url(#p38349312e8)">
     <!-- 3,2 -->
     <g style="fill: #1a1a1a" transform="translate(443.811941 225.087247) scale(0.12 -0.12)">
      <use xlink:href="#DejaVuSans-33"/>
      <use xlink:href="#DejaVuSans-2c" transform="translate(63.623047 0)"/>
      <use xlink:href="#DejaVuSans-32" transform="translate(95.410156 0)"/>
     </g>
    </g>
   </g>
   <g id="text_22">
    <g clip-path="url(#p38349312e8)">
     <!-- 4,2 -->
     <g style="fill: #1a1a1a" transform="translate(362.830318 225.087247) scale(0.12 -0.12)">
      <use xlink:href="#DejaVuSans-34"/>
      <use xlink:href="#DejaVuSans-2c" transform="translate(63.623047 0)"/>
      <use xlink:href="#DejaVuSans-32" transform="translate(95.410156 0)"/>
     </g>
    </g>
   </g>
   <g id="text_23">
    <g clip-path="url(#p38349312e8)">
     <!-- 2,5 -->
     <g style="fill: #1a1a1a" transform="translate(406.695364 372.501503) scale(0.12 -0.12)">
      <use xlink:href="#DejaVuSans-32"/>
      <use xlink:href="#DejaVuSans-2c" transform="translate(63.623047 0)"/>
      <use xlink:href="#DejaVuSans-35" transform="translate(95.410156 0)"/>
     </g>
    </g>
   </g>
   <g id="text_24">
    <g clip-path="url(#p38349312e8)">
     <!-- 1,4|2 -->
     <g style="fill: #1a1a1a" transform="translate(529.077518 77.532366) scale(0.12 -0.12)">
      <use xlink:href="#DejaVuSans-31"/>
      <use xlink:href="#DejaVuSans-2c" transform="translate(63.623047 0)"/>
      <use xlink:href="#DejaVuSans-34" transform="translate(95.410156 0)"/>
      <use xlink:href="#DejaVuSans-7c" transform="translate(159.033203 0)"/>
      <use xlink:href="#DejaVuSans-32" transform="translate(192.724609 0)"/>
     </g>
    </g>
   </g>
   <g id="text_25">
    <g clip-path="url(#p38349312e8)">
     <!-- 0,2|4 -->
     <g style="fill: #1a1a1a" transform="translate(529.077518 224.946622) scale(0.12 -0.12)">
      <use xlink:href="#DejaVuSans-30"/>
      <use xlink:href="#DejaVuSans-2c" transform="translate(63.623047 0)"/>
      <use xlink:href="#DejaVuSans-32" transform="translate(95.410156 0)"/>
      <use xlink:href="#DejaVuSans-7c" transform="translate(159.033203 0)"/>
      <use xlink:href="#DejaVuSans-34" transform="translate(192.724609 0)"/>
     </g>
    </g>
   </g>
   <g id="text_26">
    <g clip-path="url(#p38349312e8)">
     <!-- 3,5|2 -->
     <g style="fill: #1a1a1a" transform="translate(631.429292 224.946622) scale(0.12 -0.12)">
      <use xlink:href="#DejaVuSans-33"/>
      <use xlink:href="#DejaVuSans-2c" transform="translate(63.623047 0)"/>
      <use xlink:href="#DejaVuSans-35" transform="translate(95.410156 0)"/>
      <use xlink:href="#DejaVuSans-7c" transform="translate(159.033203 0)"/>
      <use xlink:href="#DejaVuSans-32" transform="translate(192.724609 0)"/>
     </g>
    </g>
   </g>
   <g id="text_27">
    <g clip-path="url(#p38349312e8)">
     <!-- 4,5|2 -->
     <g style="fill: #1a1a1a" transform="translate(589.813736 372.360878) scale(0.12 -0.12)">
      <use xlink:href="#DejaVuSans-34"/>
      <use xlink:href="#DejaVuSans-2c" transform="translate(63.623047 0)"/>
      <use xlink:href="#DejaVuSans-35" transform="translate(95.410156 0)"/>
      <use xlink:href="#DejaVuSans-7c" transform="translate(159.033203 0)"/>
      <use xlink:href="#DejaVuSans-32" transform="translate(192.724609 0)"/>
     </g>
    </g>
   </g>
   <g id="text_28">
    <!-- Example vine: First three trees for a portfolio of 6 assets in window 750 -->
    <g style="fill: #262626" transform="translate(187.186875 21.92625) scale(0.12 -0.12)">
     <defs>
      <path id="STIXGeneral-Regular-45" d="M 3821 1082 
L 3526 0 
L 77 0 
L 77 122 
Q 442 147 538 252 
Q 634 358 634 730 
L 634 3520 
Q 634 3878 534 3987 
Q 435 4096 77 4115 
L 77 4237 
L 3469 4237 
L 3494 3322 
L 3334 3322 
Q 3264 3750 3085 3872 
Q 2906 3994 2349 3994 
L 1510 3994 
Q 1370 3994 1328 3952 
Q 1286 3910 1286 3763 
L 1286 2355 
L 2253 2355 
Q 2656 2355 2787 2470 
Q 2918 2586 2976 2970 
L 3123 2970 
L 3123 1472 
L 2976 1472 
Q 2918 1875 2790 1984 
Q 2662 2093 2253 2093 
L 1286 2093 
L 1286 538 
Q 1286 346 1420 291 
Q 1555 237 1933 237 
L 2163 237 
Q 2848 237 3136 403 
Q 3424 570 3642 1082 
L 3821 1082 
z
" transform="scale(0.015625)"/>
      <path id="STIXGeneral-Regular-78" d="M 3066 0 
L 1779 0 
L 1779 96 
Q 1939 109 1987 137 
Q 2035 166 2035 250 
Q 2035 307 1997 365 
L 1414 1261 
L 909 474 
Q 781 275 781 211 
Q 781 96 1037 96 
L 1037 0 
L 109 0 
L 109 96 
Q 269 109 355 169 
Q 442 230 576 422 
L 1306 1478 
L 704 2400 
Q 557 2624 454 2704 
Q 352 2784 211 2784 
L 154 2784 
L 154 2880 
L 1478 2880 
L 1478 2784 
Q 1203 2778 1203 2643 
Q 1203 2509 1498 2074 
Q 1581 1958 1587 1946 
Q 1619 1990 1779 2227 
Q 1811 2285 1856 2349 
Q 1901 2413 1923 2451 
Q 1946 2490 1971 2528 
Q 1997 2566 2006 2595 
Q 2016 2624 2016 2643 
Q 2016 2765 1760 2784 
L 1760 2880 
L 2771 2880 
L 2771 2784 
Q 2445 2771 2253 2502 
L 1722 1734 
L 2541 480 
Q 2790 96 3066 96 
L 3066 0 
z
" transform="scale(0.015625)"/>
      <path id="STIXGeneral-Regular-61" d="M 2829 422 
L 2829 243 
Q 2586 -64 2253 -64 
Q 1888 -64 1843 403 
L 1837 403 
Q 1427 -64 909 -64 
Q 608 -64 422 112 
Q 237 288 237 602 
Q 237 1050 685 1350 
Q 992 1555 1837 1869 
L 1837 2214 
Q 1837 2502 1699 2646 
Q 1562 2790 1338 2790 
Q 1146 2790 1018 2697 
Q 890 2605 890 2477 
Q 890 2419 909 2348 
Q 928 2278 928 2208 
Q 928 2112 841 2029 
Q 755 1946 634 1946 
Q 525 1946 441 2029 
Q 358 2112 358 2240 
Q 358 2547 685 2752 
Q 986 2944 1421 2944 
Q 1939 2944 2176 2656 
Q 2291 2522 2323 2384 
Q 2355 2246 2355 1946 
L 2355 723 
Q 2355 301 2554 301 
Q 2682 301 2829 422 
z
M 1837 813 
L 1837 1715 
Q 1248 1510 1018 1293 
Q 800 1094 800 800 
Q 800 557 921 432 
Q 1043 307 1242 307 
Q 1453 307 1613 410 
Q 1747 506 1792 589 
Q 1837 672 1837 813 
z
" transform="scale(0.015625)"/>
      <path id="STIXGeneral-Regular-6d" d="M 4960 0 
L 3565 0 
L 3565 96 
Q 3834 122 3907 208 
Q 3981 294 3981 576 
L 3981 1894 
Q 3981 2278 3869 2444 
Q 3757 2611 3488 2611 
Q 3264 2611 3107 2521 
Q 2950 2432 2803 2221 
L 2803 608 
Q 2803 301 2896 201 
Q 2989 102 3264 96 
L 3264 0 
L 1830 0 
L 1830 96 
Q 2112 115 2189 188 
Q 2266 262 2266 550 
L 2266 1901 
Q 2266 2611 1850 2611 
Q 1670 2611 1468 2531 
Q 1267 2451 1171 2336 
Q 1088 2240 1088 2227 
L 1088 448 
Q 1088 243 1177 176 
Q 1267 109 1523 96 
L 1523 0 
L 102 0 
L 102 96 
Q 371 102 460 195 
Q 550 288 550 563 
L 550 2150 
Q 550 2387 499 2480 
Q 448 2573 326 2573 
Q 230 2573 122 2547 
L 122 2656 
Q 557 2778 1011 2944 
L 1062 2925 
L 1062 2451 
L 1075 2451 
Q 1363 2752 1584 2848 
Q 1805 2944 2054 2944 
Q 2560 2944 2733 2406 
Q 3232 2944 3776 2944 
Q 4518 2944 4518 1792 
L 4518 493 
Q 4518 282 4582 202 
Q 4646 122 4794 109 
L 4960 96 
L 4960 0 
z
" transform="scale(0.015625)"/>
      <path id="STIXGeneral-Regular-70" d="M 1018 2931 
L 1018 2438 
Q 1421 2944 1939 2944 
Q 2406 2944 2707 2560 
Q 3008 2176 3008 1581 
Q 3008 883 2621 409 
Q 2234 -64 1664 -64 
Q 1466 -64 1328 -6 
Q 1190 51 1018 211 
L 1018 -794 
Q 1018 -1094 1120 -1180 
Q 1222 -1267 1581 -1274 
L 1581 -1389 
L 32 -1389 
L 32 -1280 
Q 314 -1254 397 -1171 
Q 480 -1088 480 -838 
L 480 2157 
Q 480 2381 429 2451 
Q 378 2522 218 2522 
Q 115 2522 58 2515 
L 58 2618 
Q 506 2752 979 2944 
L 1018 2931 
z
M 1018 2138 
L 1018 563 
Q 1018 422 1238 281 
Q 1459 141 1683 141 
Q 2029 141 2243 467 
Q 2458 794 2458 1325 
Q 2458 1888 2243 2224 
Q 2029 2560 1670 2560 
Q 1446 2560 1232 2419 
Q 1018 2278 1018 2138 
z
" transform="scale(0.015625)"/>
      <path id="STIXGeneral-Regular-6c" d="M 1645 0 
L 134 0 
L 134 96 
Q 435 122 531 221 
Q 627 320 627 589 
L 627 3590 
Q 627 3821 569 3910 
Q 512 4000 358 4000 
Q 224 4000 122 3987 
L 122 4090 
Q 730 4237 1133 4371 
L 1165 4346 
L 1165 557 
Q 1165 288 1254 201 
Q 1344 115 1645 96 
L 1645 0 
z
" transform="scale(0.015625)"/>
      <path id="STIXGeneral-Regular-65" d="M 2611 1050 
L 2714 1005 
Q 2330 -64 1376 -64 
Q 813 -64 486 329 
Q 160 723 160 1389 
Q 160 2074 525 2509 
Q 890 2944 1485 2944 
Q 2061 2944 2374 2502 
Q 2560 2246 2592 1773 
L 621 1773 
Q 646 1370 700 1158 
Q 755 947 915 730 
Q 1184 378 1626 378 
Q 1939 378 2153 531 
Q 2368 685 2611 1050 
z
M 634 1978 
L 1939 1978 
Q 1882 2381 1750 2547 
Q 1619 2714 1312 2714 
Q 1043 2714 864 2525 
Q 685 2336 634 1978 
z
" transform="scale(0.015625)"/>
      <path id="STIXGeneral-Regular-20" transform="scale(0.015625)"/>
      <path id="STIXGeneral-Regular-76" d="M 3053 2880 
L 3053 2784 
Q 2906 2771 2835 2688 
Q 2765 2605 2637 2285 
L 1818 230 
Q 1690 -90 1638 -90 
Q 1587 -90 1523 77 
Q 1510 96 1497 141 
Q 1485 186 1472 211 
L 704 2048 
Q 499 2534 403 2652 
Q 307 2771 122 2784 
L 122 2880 
L 1376 2880 
L 1376 2784 
Q 1210 2771 1146 2732 
Q 1082 2694 1082 2611 
Q 1082 2509 1139 2368 
L 1792 730 
L 2426 2387 
Q 2464 2483 2464 2579 
Q 2464 2758 2163 2784 
L 2163 2880 
L 3053 2880 
z
" transform="scale(0.015625)"/>
      <path id="STIXGeneral-Regular-69" d="M 1152 4045 
Q 1152 3904 1056 3811 
Q 960 3718 819 3718 
Q 685 3718 592 3811 
Q 499 3904 499 4045 
Q 499 4179 595 4275 
Q 691 4371 826 4371 
Q 966 4371 1059 4275 
Q 1152 4179 1152 4045 
z
M 1619 0 
L 102 0 
L 102 96 
Q 435 115 521 211 
Q 608 307 608 666 
L 608 2118 
Q 608 2342 563 2432 
Q 518 2522 397 2522 
Q 243 2522 128 2490 
L 128 2592 
L 1120 2944 
L 1146 2918 
L 1146 672 
Q 1146 314 1226 218 
Q 1306 122 1619 96 
L 1619 0 
z
" transform="scale(0.015625)"/>
      <path id="STIXGeneral-Regular-6e" d="M 3104 0 
L 1773 0 
L 1779 96 
Q 2016 115 2096 233 
Q 2176 352 2176 672 
L 2176 1946 
Q 2176 2592 1709 2592 
Q 1549 2592 1408 2515 
Q 1267 2438 1050 2227 
L 1050 461 
Q 1050 269 1136 192 
Q 1222 115 1466 96 
L 1466 0 
L 115 0 
L 115 96 
Q 358 115 435 214 
Q 512 314 512 602 
L 512 2157 
Q 512 2394 467 2483 
Q 422 2573 288 2573 
Q 160 2573 102 2547 
L 102 2656 
Q 550 2784 979 2944 
L 1030 2925 
L 1030 2426 
L 1037 2426 
Q 1491 2944 1958 2944 
Q 2323 2944 2518 2688 
Q 2714 2432 2714 1958 
L 2714 544 
Q 2714 288 2790 205 
Q 2867 122 3104 96 
L 3104 0 
z
" transform="scale(0.015625)"/>
      <path id="STIXGeneral-Regular-3a" d="M 1123 2832 
Q 1229 2726 1229 2579 
Q 1229 2432 1126 2329 
Q 1024 2227 877 2227 
Q 730 2227 624 2332 
Q 518 2438 518 2579 
Q 518 2733 620 2835 
Q 723 2938 877 2938 
Q 1018 2938 1123 2832 
z
M 1229 282 
Q 1229 141 1126 35 
Q 1024 -70 877 -70 
Q 730 -70 624 35 
Q 518 141 518 282 
Q 518 435 620 537 
Q 723 640 877 640 
Q 1018 640 1123 534 
Q 1229 429 1229 282 
z
" transform="scale(0.015625)"/>
      <path id="STIXGeneral-Regular-46" d="M 3494 3322 
L 3334 3322 
Q 3264 3757 3094 3875 
Q 2925 3994 2349 3994 
L 1504 3994 
Q 1370 3994 1328 3946 
Q 1286 3898 1286 3744 
L 1286 2355 
L 2195 2355 
Q 2598 2355 2736 2470 
Q 2874 2586 2918 2963 
L 3066 2963 
L 3066 1472 
L 2918 1472 
Q 2880 1862 2745 1977 
Q 2611 2093 2195 2093 
L 1286 2093 
L 1286 717 
Q 1286 352 1392 246 
Q 1498 141 1869 122 
L 1869 0 
L 70 0 
L 70 122 
Q 435 147 534 259 
Q 634 371 634 787 
L 634 3526 
Q 634 3878 538 3984 
Q 442 4090 77 4115 
L 77 4237 
L 3462 4237 
L 3494 3322 
z
" transform="scale(0.015625)"/>
      <path id="STIXGeneral-Regular-72" d="M 1024 2931 
L 1024 2342 
Q 1267 2688 1430 2816 
Q 1594 2944 1792 2944 
Q 1958 2944 2051 2854 
Q 2144 2765 2144 2605 
Q 2144 2470 2077 2393 
Q 2010 2317 1894 2317 
Q 1773 2317 1638 2445 
Q 1536 2541 1472 2541 
Q 1338 2541 1181 2355 
Q 1024 2170 1024 2016 
L 1024 576 
Q 1024 301 1133 205 
Q 1242 109 1568 96 
L 1568 0 
L 32 0 
L 32 96 
Q 339 154 412 224 
Q 486 294 486 538 
L 486 2138 
Q 486 2349 438 2435 
Q 390 2522 269 2522 
Q 166 2522 45 2496 
L 45 2598 
Q 448 2726 992 2944 
L 1024 2931 
z
" transform="scale(0.015625)"/>
      <path id="STIXGeneral-Regular-73" d="M 998 1926 
L 1664 1523 
Q 1984 1331 2105 1164 
Q 2227 998 2227 736 
Q 2227 416 1961 176 
Q 1696 -64 1331 -64 
Q 1030 -64 864 -6 
Q 691 51 570 51 
Q 461 51 416 -26 
L 333 -26 
L 333 979 
L 435 979 
Q 538 512 730 294 
Q 922 77 1248 77 
Q 1485 77 1632 211 
Q 1779 346 1779 550 
Q 1779 845 1440 1030 
L 1094 1222 
Q 326 1651 326 2150 
Q 326 2522 566 2730 
Q 806 2938 1210 2938 
Q 1491 2938 1638 2867 
Q 1754 2816 1818 2816 
Q 1862 2816 1920 2880 
L 1990 2880 
L 2022 2010 
L 1926 2010 
Q 1818 2445 1654 2621 
Q 1491 2797 1203 2797 
Q 986 2797 854 2688 
Q 723 2579 723 2362 
Q 723 2253 796 2128 
Q 870 2003 998 1926 
z
" transform="scale(0.015625)"/>
      <path id="STIXGeneral-Regular-74" d="M 1702 493 
L 1786 422 
Q 1478 -64 1011 -64 
Q 448 -64 448 749 
L 448 2675 
L 109 2675 
Q 83 2694 83 2720 
Q 83 2771 192 2842 
Q 435 2982 813 3526 
Q 826 3546 874 3606 
Q 922 3667 941 3706 
Q 986 3706 986 3622 
L 986 2880 
L 1632 2880 
L 1632 2675 
L 986 2675 
L 986 845 
Q 986 538 1062 403 
Q 1139 269 1318 269 
Q 1510 269 1702 493 
z
" transform="scale(0.015625)"/>
      <path id="STIXGeneral-Regular-68" d="M 3117 0 
L 1760 0 
L 1760 96 
Q 2042 128 2118 224 
Q 2195 320 2195 653 
L 2195 1920 
Q 2195 2598 1722 2598 
Q 1530 2598 1370 2508 
Q 1210 2419 1005 2195 
L 1005 653 
Q 1005 320 1081 224 
Q 1158 128 1440 96 
L 1440 0 
L 58 0 
L 58 96 
Q 333 134 400 224 
Q 467 314 467 653 
L 467 3667 
Q 467 3872 406 3933 
Q 346 3994 141 3994 
Q 83 3994 64 3987 
L 64 4090 
L 237 4141 
Q 730 4288 973 4371 
L 1005 4352 
L 1005 2406 
Q 1229 2694 1446 2819 
Q 1664 2944 1946 2944 
Q 2733 2944 2733 1926 
L 2733 653 
Q 2733 320 2793 233 
Q 2854 147 3117 96 
L 3117 0 
z
" transform="scale(0.015625)"/>
      <path id="STIXGeneral-Regular-66" d="M 134 2880 
L 659 2880 
Q 666 3264 710 3478 
Q 755 3693 883 3910 
Q 1152 4371 1786 4371 
Q 2074 4371 2262 4259 
Q 2451 4147 2451 3974 
Q 2451 3866 2374 3789 
Q 2298 3712 2182 3712 
Q 2029 3712 1894 3942 
Q 1741 4192 1555 4192 
Q 1197 4192 1197 3622 
L 1197 2880 
L 1978 2880 
L 1978 2675 
L 1197 2675 
L 1197 666 
Q 1197 307 1299 208 
Q 1402 109 1792 96 
L 1792 0 
L 128 0 
L 128 96 
Q 474 115 566 214 
Q 659 314 659 666 
L 659 2675 
L 134 2675 
L 134 2880 
z
" transform="scale(0.015625)"/>
      <path id="STIXGeneral-Regular-6f" d="M 3008 1478 
Q 3008 806 2608 371 
Q 2208 -64 1568 -64 
Q 979 -64 582 368 
Q 186 800 186 1459 
Q 186 2125 582 2534 
Q 979 2944 1626 2944 
Q 2221 2944 2614 2537 
Q 3008 2131 3008 1478 
z
M 2432 1306 
Q 2432 2035 2112 2445 
Q 1856 2765 1504 2765 
Q 1171 2765 966 2493 
Q 762 2221 762 1747 
Q 762 928 1101 435 
Q 1318 115 1677 115 
Q 2029 115 2230 432 
Q 2432 749 2432 1306 
z
" transform="scale(0.015625)"/>
      <path id="STIXGeneral-Regular-36" d="M 2854 4378 
L 2867 4275 
Q 2112 4154 1606 3664 
Q 1101 3174 973 2451 
Q 1344 2739 1786 2739 
Q 2349 2739 2672 2380 
Q 2995 2022 2995 1402 
Q 2995 774 2669 378 
Q 2291 -90 1651 -90 
Q 870 -90 518 557 
Q 218 1107 218 1786 
Q 218 2835 915 3552 
Q 1312 3962 1731 4131 
Q 2150 4301 2854 4378 
z
M 2419 1203 
Q 2419 2445 1555 2445 
Q 1235 2445 1024 2275 
Q 813 2106 813 1702 
Q 813 954 1046 522 
Q 1280 90 1722 90 
Q 2061 90 2240 394 
Q 2419 698 2419 1203 
z
" transform="scale(0.015625)"/>
      <path id="STIXGeneral-Regular-77" d="M 4442 2880 
L 4442 2784 
Q 4346 2752 4301 2691 
Q 4256 2630 4179 2438 
L 3296 224 
Q 3168 -90 3117 -90 
Q 3085 -90 3062 -48 
Q 3040 -6 2963 186 
L 2381 1696 
L 1664 160 
Q 1549 -90 1504 -90 
Q 1446 -90 1338 192 
L 474 2381 
Q 378 2630 314 2700 
Q 250 2771 134 2784 
L 134 2880 
L 1286 2880 
L 1286 2784 
Q 1120 2765 1056 2720 
Q 992 2675 992 2573 
Q 992 2477 1030 2381 
L 1664 710 
L 2246 1984 
L 2118 2342 
Q 2029 2598 1942 2681 
Q 1856 2765 1677 2784 
L 1677 2880 
L 2976 2880 
L 2976 2784 
Q 2752 2752 2678 2707 
Q 2605 2662 2605 2560 
Q 2605 2458 2714 2176 
L 3251 742 
L 3827 2163 
Q 3936 2432 3936 2592 
Q 3936 2669 3875 2710 
Q 3814 2752 3654 2784 
L 3654 2880 
L 4442 2880 
z
" transform="scale(0.015625)"/>
      <path id="STIXGeneral-Regular-64" d="M 3142 269 
L 2202 -64 
L 2176 -45 
L 2176 365 
Q 1869 -64 1357 -64 
Q 826 -64 499 317 
Q 173 698 173 1312 
Q 173 1990 563 2467 
Q 954 2944 1504 2944 
Q 1850 2944 2176 2669 
L 2176 3667 
Q 2176 3866 2118 3930 
Q 2061 3994 1882 3994 
Q 1792 3994 1741 3987 
L 1741 4090 
Q 2323 4243 2682 4371 
L 2714 4358 
L 2714 730 
Q 2714 506 2768 435 
Q 2822 365 2995 365 
Q 3034 365 3142 371 
L 3142 269 
z
M 2176 653 
L 2176 2125 
Q 2176 2381 1981 2573 
Q 1786 2765 1523 2765 
Q 1158 2765 940 2438 
Q 723 2112 723 1568 
Q 723 979 963 624 
Q 1203 269 1606 269 
Q 1907 269 2080 474 
Q 2176 582 2176 653 
z
" transform="scale(0.015625)"/>
      <path id="STIXGeneral-Regular-37" d="M 2874 4134 
L 1517 -51 
L 1101 -51 
L 2368 3763 
L 992 3763 
Q 717 3763 582 3667 
Q 448 3571 243 3238 
L 128 3296 
L 512 4237 
L 2874 4237 
L 2874 4134 
z
" transform="scale(0.015625)"/>
      <path id="STIXGeneral-Regular-35" d="M 2803 4358 
L 2573 3814 
Q 2534 3731 2400 3731 
L 1158 3731 
L 902 3187 
Q 1606 3053 1920 2896 
Q 2234 2739 2502 2368 
Q 2726 2061 2726 1555 
Q 2726 1094 2576 780 
Q 2426 467 2099 224 
Q 1664 -90 1011 -90 
Q 646 -90 422 19 
Q 198 128 198 307 
Q 198 550 486 550 
Q 717 550 960 352 
Q 1210 147 1414 147 
Q 1747 147 2012 480 
Q 2278 813 2278 1229 
Q 2278 1843 1850 2189 
Q 1293 2637 486 2637 
Q 410 2637 410 2688 
L 416 2720 
L 1114 4237 
L 2438 4237 
Q 2547 4237 2608 4269 
Q 2669 4301 2746 4403 
L 2803 4358 
z
" transform="scale(0.015625)"/>
      <path id="STIXGeneral-Regular-30" d="M 3046 2112 
Q 3046 1683 2963 1302 
Q 2880 922 2717 602 
Q 2554 282 2266 96 
Q 1978 -90 1600 -90 
Q 1210 -90 915 108 
Q 621 307 461 640 
Q 301 973 227 1350 
Q 154 1728 154 2150 
Q 154 2746 301 3222 
Q 448 3699 790 4012 
Q 1133 4326 1626 4326 
Q 2253 4326 2649 3712 
Q 3046 3098 3046 2112 
z
M 2432 2080 
Q 2432 3091 2217 3625 
Q 2003 4160 1587 4160 
Q 1190 4160 979 3622 
Q 768 3085 768 2106 
Q 768 1120 979 598 
Q 1190 77 1600 77 
Q 2003 77 2217 598 
Q 2432 1120 2432 2080 
z
" transform="scale(0.015625)"/>
     </defs>
     <use xlink:href="#STIXGeneral-Regular-45"/>
     <use xlink:href="#STIXGeneral-Regular-78" transform="translate(61.099991 0)"/>
     <use xlink:href="#STIXGeneral-Regular-61" transform="translate(111.099976 0)"/>
     <use xlink:href="#STIXGeneral-Regular-6d" transform="translate(155.499969 0)"/>
     <use xlink:href="#STIXGeneral-Regular-70" transform="translate(233.299957 0)"/>
     <use xlink:href="#STIXGeneral-Regular-6c" transform="translate(283.299942 0)"/>
     <use xlink:href="#STIXGeneral-Regular-65" transform="translate(311.09993 0)"/>
     <use xlink:href="#STIXGeneral-Regular-20" transform="translate(355.499924 0)"/>
     <use xlink:href="#STIXGeneral-Regular-76" transform="translate(380.499908 0)"/>
     <use xlink:href="#STIXGeneral-Regular-69" transform="translate(430.499893 0)"/>
     <use xlink:href="#STIXGeneral-Regular-6e" transform="translate(458.299881 0)"/>
     <use xlink:href="#STIXGeneral-Regular-65" transform="translate(508.299866 0)"/>
     <use xlink:href="#STIXGeneral-Regular-3a" transform="translate(552.69986 0)"/>
     <use xlink:href="#STIXGeneral-Regular-20" transform="translate(580.499847 0)"/>
     <use xlink:href="#STIXGeneral-Regular-46" transform="translate(605.499832 0)"/>
     <use xlink:href="#STIXGeneral-Regular-69" transform="translate(661.099823 0)"/>
     <use xlink:href="#STIXGeneral-Regular-72" transform="translate(688.899811 0)"/>
     <use xlink:href="#STIXGeneral-Regular-73" transform="translate(722.199799 0)"/>
     <use xlink:href="#STIXGeneral-Regular-74" transform="translate(761.099792 0)"/>
     <use xlink:href="#STIXGeneral-Regular-20" transform="translate(788.89978 0)"/>
     <use xlink:href="#STIXGeneral-Regular-74" transform="translate(813.899765 0)"/>
     <use xlink:href="#STIXGeneral-Regular-68" transform="translate(841.699753 0)"/>
     <use xlink:href="#STIXGeneral-Regular-72" transform="translate(891.699738 0)"/>
     <use xlink:href="#STIXGeneral-Regular-65" transform="translate(924.999725 0)"/>
     <use xlink:href="#STIXGeneral-Regular-65" transform="translate(969.399719 0)"/>
     <use xlink:href="#STIXGeneral-Regular-20" transform="translate(1013.799713 0)"/>
     <use xlink:href="#STIXGeneral-Regular-74" transform="translate(1038.799698 0)"/>
     <use xlink:href="#STIXGeneral-Regular-72" transform="translate(1066.599686 0)"/>
     <use xlink:href="#STIXGeneral-Regular-65" transform="translate(1099.899673 0)"/>
     <use xlink:href="#STIXGeneral-Regular-65" transform="translate(1144.299667 0)"/>
     <use xlink:href="#STIXGeneral-Regular-73" transform="translate(1188.699661 0)"/>
     <use xlink:href="#STIXGeneral-Regular-20" transform="translate(1227.599655 0)"/>
     <use xlink:href="#STIXGeneral-Regular-66" transform="translate(1252.59964 0)"/>
     <use xlink:href="#STIXGeneral-Regular-6f" transform="translate(1285.899628 0)"/>
     <use xlink:href="#STIXGeneral-Regular-72" transform="translate(1335.899612 0)"/>
     <use xlink:href="#STIXGeneral-Regular-20" transform="translate(1369.1996 0)"/>
     <use xlink:href="#STIXGeneral-Regular-61" transform="translate(1394.199585 0)"/>
     <use xlink:href="#STIXGeneral-Regular-20" transform="translate(1438.599579 0)"/>
     <use xlink:href="#STIXGeneral-Regular-70" transform="translate(1463.599564 0)"/>
     <use xlink:href="#STIXGeneral-Regular-6f" transform="translate(1513.599548 0)"/>
     <use xlink:href="#STIXGeneral-Regular-72" transform="translate(1563.599533 0)"/>
     <use xlink:href="#STIXGeneral-Regular-74" transform="translate(1596.899521 0)"/>
     <use xlink:href="#STIXGeneral-Regular-66" transform="translate(1624.699509 0)"/>
     <use xlink:href="#STIXGeneral-Regular-6f" transform="translate(1657.999496 0)"/>
     <use xlink:href="#STIXGeneral-Regular-6c" transform="translate(1707.999481 0)"/>
     <use xlink:href="#STIXGeneral-Regular-69" transform="translate(1735.799469 0)"/>
     <use xlink:href="#STIXGeneral-Regular-6f" transform="translate(1763.599457 0)"/>
     <use xlink:href="#STIXGeneral-Regular-20" transform="translate(1813.599442 0)"/>
     <use xlink:href="#STIXGeneral-Regular-6f" transform="translate(1838.599426 0)"/>
     <use xlink:href="#STIXGeneral-Regular-66" transform="translate(1888.599411 0)"/>
     <use xlink:href="#STIXGeneral-Regular-20" transform="translate(1921.899399 0)"/>
     <use xlink:href="#STIXGeneral-Regular-36" transform="translate(1946.899384 0)"/>
     <use xlink:href="#STIXGeneral-Regular-20" transform="translate(1996.899368 0)"/>
     <use xlink:href="#STIXGeneral-Regular-61" transform="translate(2021.899353 0)"/>
     <use xlink:href="#STIXGeneral-Regular-73" transform="translate(2066.299347 0)"/>
     <use xlink:href="#STIXGeneral-Regular-73" transform="translate(2105.199341 0)"/>
     <use xlink:href="#STIXGeneral-Regular-65" transform="translate(2144.099335 0)"/>
     <use xlink:href="#STIXGeneral-Regular-74" transform="translate(2188.499329 0)"/>
     <use xlink:href="#STIXGeneral-Regular-73" transform="translate(2216.299316 0)"/>
     <use xlink:href="#STIXGeneral-Regular-20" transform="translate(2255.19931 0)"/>
     <use xlink:href="#STIXGeneral-Regular-69" transform="translate(2280.199295 0)"/>
     <use xlink:href="#STIXGeneral-Regular-6e" transform="translate(2307.999283 0)"/>
     <use xlink:href="#STIXGeneral-Regular-20" transform="translate(2357.999268 0)"/>
     <use xlink:href="#STIXGeneral-Regular-77" transform="translate(2382.999252 0)"/>
     <use xlink:href="#STIXGeneral-Regular-69" transform="translate(2455.199234 0)"/>
     <use xlink:href="#STIXGeneral-Regular-6e" transform="translate(2482.999222 0)"/>
     <use xlink:href="#STIXGeneral-Regular-64" transform="translate(2532.999207 0)"/>
     <use xlink:href="#STIXGeneral-Regular-6f" transform="translate(2582.999191 0)"/>
     <use xlink:href="#STIXGeneral-Regular-77" transform="translate(2632.999176 0)"/>
     <use xlink:href="#STIXGeneral-Regular-20" transform="translate(2705.199158 0)"/>
     <use xlink:href="#STIXGeneral-Regular-37" transform="translate(2730.199142 0)"/>
     <use xlink:href="#STIXGeneral-Regular-35" transform="translate(2780.199127 0)"/>
     <use xlink:href="#STIXGeneral-Regular-30" transform="translate(2830.199112 0)"/>
    </g>
   </g>
  </g>
 </g>
 <defs>
  <clipPath id="p38349312e8">
   <rect x="12.96" y="27.92625" width="694.08" height="535.11375"/>
  </clipPath>
 </defs>
</svg>
